<?xml version="1.0" encoding="UTF-8" standalone="no"?> <!-- Generator: Adobe Illustrator 21.1.0, SVG Export Plug-In . SVG Version: 6.00 Build 0) --> <svg xmlns:dc="http://purl.org/dc/elements/1.1/" xmlns:cc="http://creativecommons.org/ns#" xmlns:rdf="http://www.w3.org/1999/02/22-rdf-syntax-ns#" xmlns:svg="http://www.w3.org/2000/svg" xmlns="http://www.w3.org/2000/svg" xmlns:sodipodi="http://sodipodi.sourceforge.net/DTD/sodipodi-0.dtd" xmlns:inkscape="http://www.inkscape.org/namespaces/inkscape" version="1.1" id="Layer_1" x="0px" y="0px" viewBox="0 0 255.80142 69.776596" xml:space="preserve" sodipodi:docname="my-chocolatier-logo-cocoa-bean-white.svg" width="255.80142" height="69.776596" inkscape:version="0.92.4 (5da689c313, 2019-01-14)"><metadata id="metadata55"></metadata><defs id="defs53"></defs> <style type="text/css" id="style2"> .st0{fill:#551520;} .st1{fill:#FBB040;} .st2{display:none;} .st3{display:inline;fill:#FBB040;} .st4{display:inline;fill:none;stroke:#551520;stroke-width:1.1248;stroke-linecap:round;stroke-linejoin:round;stroke-miterlimit:10;} .st5{fill:none;stroke:#551520;stroke-width:0.4987;stroke-miterlimit:10;} </style> <g id="g8" transform="translate(-13.592858,-106.82341)" style="fill:#ffffff;fill-opacity:1"> <path class="st0" d="m 120.7,126.1 c -0.1,-0.4 -0.3,-0.8 -0.6,-1.1 -0.5,-0.7 -1.3,-1.3 -2.2,-1.6 -0.9,-0.3 -1.9,-0.3 -2.7,-0.1 -0.9,0.2 -1.6,0.7 -2.1,1.3 -0.5,0.6 -1.1,1.2 -1.7,2.1 -0.3,0.4 -0.5,0.9 -0.8,1.4 l -0.8,1.5 c -0.4,0.8 -0.9,1.7 -1.3,2.5 -1.5,2.7 -2.9,5.4 -4.3,8 -1.9,3.6 -3.8,7.1 -5.6,10.6 -0.4,0.8 -0.8,1.6 -1.3,2.4 l -0.5,0.9 c -0.3,0.6 -0.6,1.2 -1,1.8 l -0.9,-1.9 -1.6,-3.2 c -1.7,-3.4 -3.4,-6.9 -5,-10.4 -0.8,-1.7 -1.6,-3.5 -2.5,-5.3 -0.9,-2 -1.8,-3.9 -2.7,-5.9 L 82,126.7 c -0.4,-0.8 -0.7,-1.7 -1.2,-2.3 -0.4,-0.7 -0.9,-1.2 -1.4,-1.6 -0.5,-0.4 -0.9,-0.7 -1.4,-1 -1,-0.6 -2.5,-0.9 -3.9,-0.8 -1.4,0.1 -2.8,0.7 -3.9,1.6 -0.6,0.5 -1.1,1.1 -1.5,1.6 -0.4,0.6 -0.8,1.4 -1.1,2.5 -0.1,0.6 -0.2,1.2 -0.2,1.9 0,0.7 0,1.4 0,2.1 0,1.3 0,2.6 -0.1,3.9 -0.1,3.1 -0.1,6.4 -0.1,9.7 0,6.6 0.1,13.2 0.2,17.7 1.2,12 4.2,5.9 4.4,5.3 v 2.1 c 0,0.5 0.1,1 0.4,1.5 -0.3,-0.4 -0.4,-0.9 -0.4,-1.5 v 0.1 c 0,0.6 0.2,1.2 0.6,1.7 0,0 0,0 0,-0.1 0.1,0.2 0.3,0.4 0.4,0.5 0.6,0.6 1.4,0.9 2.2,0.9 0.9,0 1.6,-0.3 2.2,-0.9 0.6,-0.6 0.9,-1.4 0.9,-2.2 v -28 l 5.1,10.2 c 0.4,1.1 0.7,2 0.7,2 1.7,3.3 3.3,6.5 4.8,9.6 0.8,1.6 1.6,3.2 2.4,4.8 0.4,0.8 0.8,1.7 1.2,2.5 0.4,0.8 0.9,1.6 1.8,2 0.6,0.1 0.9,0 1.7,0.1 0.6,0.1 1.1,0 1.6,-0.2 0.5,-0.3 0.8,-0.7 1.1,-1.1 0.3,-0.5 0.5,-0.9 0.8,-1.4 0.2,-0.4 0.3,-0.7 0.5,-1.1 -0.1,0.2 -0.1,0.3 -0.2,0.5 1.1,-2.1 2.2,-4.2 3.2,-6.2 0.2,-0.5 0.4,-1 0.6,-1.3 0.7,-1.5 1.4,-3.2 2,-3.7 0.2,-0.3 0.3,-0.6 0.5,-0.9 0,0 -0.1,0.1 -0.1,0.1 0.1,-0.1 0.2,-0.2 0.2,-0.3 0.7,-1.3 1.4,-2.6 2.1,-3.9 1.2,-2.4 2.5,-4.7 3.8,-7.2 0.1,-0.2 0.2,-0.4 0.3,-0.6 -0.1,4.6 -0.2,9 -0.2,13.5 0,2.5 -0.1,5 -0.1,7.5 v 2 1 c 0,0.4 0,0.9 0.2,1.4 0.3,1 0.9,1.7 1.6,2.3 0.8,0.6 1.8,0.9 2.7,0.8 0.9,0 2,-0.3 2.7,-1 0.7,-0.6 1.3,-1.4 1.6,-2.4 0.1,-0.2 0.1,-0.5 0.1,-0.7 0,-0.1 0,-0.2 0,-0.4 v -0.3 -1 -2.1 c 0,-2.8 0,-5.5 0.1,-8.3 0.1,-5.6 0.1,-11.3 0.2,-17.1 0.1,-3.6 0.1,-7.1 0.2,-10.7 0,-1.1 -0.1,-2.1 -0.3,-2.9 -0.1,0 -0.2,-0.4 -0.3,-0.8 z" id="path4" inkscape:connector-curvature="0" style="fill:#ffffff;fill-opacity:1"></path> <path class="st0" d="m 160.8,127.7 c 0,-0.6 -0.2,-1.3 -0.5,-2 -0.3,-0.6 -0.7,-1.2 -1.1,-1.7 -0.8,-0.9 -2.2,-1.7 -3.6,-1.8 -0.7,-0.1 -1.2,-0.1 -1.9,0 -0.6,0.1 -1.3,0.3 -2,0.7 -0.6,0.3 -1.2,0.8 -1.6,1.3 -0.5,0.6 -0.6,0.8 -0.8,1.1 l -1.2,1.7 c -1.6,2.3 -3.2,4.6 -4.9,6.8 -0.4,0.6 -0.9,1.1 -1.3,1.7 -0.1,0.1 -0.1,0.1 -0.1,0.1 h -0.1 l -0.1,0.1 c -0.1,0 -0.1,0.1 -0.2,0.1 -0.2,0.1 -0.4,0.1 -0.5,-0.2 0,0 0,0 0,-0.1 0,-0.3 0,-0.4 0,-0.5 0,0 0,0 0,0 v 0 l -0.3,-0.4 -0.6,-1 c -1.7,-2.5 -3.5,-5 -4.7,-6.7 -4.2,-4.1 -5.1,0 -5.1,0.4 l -0.6,-0.8 c -0.1,-0.2 -0.3,-0.4 -0.4,-0.5 0.2,0.1 0.4,0.3 0.5,0.5 v 0 c -0.2,-0.2 -0.4,-0.4 -0.6,-0.6 0,0 0,0 0,0.1 -0.5,-0.5 -1.2,-0.7 -2,-0.7 -0.9,0 -1.6,0.3 -2.2,0.9 -0.6,0.6 -0.9,1.4 -0.9,2.2 0,0.7 0.2,1.3 0.5,1.8 l 7.7,11.5 c 0.2,0.5 0.3,0.8 0.3,0.8 0.9,1.3 1.8,2.6 2.6,3.9 0.8,1.3 1.6,2.5 2.4,3.7 0,0.4 0,0.8 0,1.1 0.1,0.2 0.3,0.4 0.2,0.8 -0.1,0.3 -0.2,0.5 -0.3,0.8 0,0.5 0,1 0,1.5 0,0.2 0,0.3 0.1,0.5 0,-0.1 0,-0.2 -0.1,-0.2 0,1.1 -0.1,2.2 -0.1,3.3 0,0.3 0,0.5 0.1,0.7 0.1,0.8 0.2,1.6 -0.2,2.1 0,0.2 0,0.4 0,0.6 l 0.1,-0.1 c 0,0.1 0,0.2 -0.1,0.2 0,0.8 -0.1,1.7 -0.1,2.5 -0.1,1.6 -0.1,3.3 -0.2,5 v 1 c 0,0.4 0.1,0.8 0.2,1.2 0.3,0.8 0.8,1.5 1.4,2 0.6,0.5 1.5,0.8 2.4,0.9 0.8,0 1.7,-0.2 2.4,-0.6 0.7,-0.5 1.3,-1.1 1.7,-1.9 0.2,-0.4 0.3,-0.8 0.3,-1.3 0,-0.5 0,-0.7 0,-1.1 0,-1.3 0,-2.5 0.1,-3.8 0,-2.5 0.1,-5 0.1,-7.6 0,-1.3 0,-2.6 0.1,-3.9 0,-0.7 0,-1.3 0,-2 0,-0.5 0,-1 0,-1.5 0.2,-0.3 0.5,-0.7 0.8,-1.1 3.6,-5 7.1,-9.7 10.7,-14.3 0.4,-0.6 0.9,-1.1 1.3,-1.7 l 0.6,-0.9 0.3,-0.4 0.2,-0.2 c 0.1,-0.1 0.1,-0.1 0.2,-0.3 0.4,-0.6 0.6,-1.3 0.8,-1.9 0.3,-0.6 0.3,-1.1 0.3,-1.8 z" id="path6" inkscape:connector-curvature="0" style="fill:#ffffff;fill-opacity:1"></path> </g> <g id="g22" transform="translate(-13.592858,-106.82341)" style="fill:#ffffff;fill-opacity:1"> <path class="st0" d="m 182.6,169.8 c 0,0 0,0 0,0 -0.1,-0.1 -0.1,0 0,0 -0.1,0 -0.2,0 -0.3,0 h -0.4 c 0,0 0,0 0,0 -1.4,-1 -2.6,-0.5 -5.4,-1 0.8,0.2 0.4,0.3 -0.4,0.3 -0.2,0 -0.5,0 -0.7,0 -0.1,0 -0.3,0 -0.4,0 -0.1,0 -0.3,0 -0.4,0 -0.3,-0.1 -0.6,-0.2 -0.6,-0.3 v 0 c 0.1,-0.3 0.2,-0.4 0.3,-0.5 0,-0.1 0.1,-0.1 0.1,-0.1 0,0 0,0 0,0 v -0.1 -0.1 -0.3 c 0.1,-0.8 0.1,-1.7 0.1,-2.6 0,-1.8 -0.2,-3.6 -0.1,-5.3 0.1,-0.9 0,-1.8 0,-2.8 0,-0.7 0.1,-1.3 0.1,-2 0,-0.3 0,-0.7 0,-1 v -0.2 -0.1 c 0,-0.1 0,-0.2 0,-0.2 0,-0.4 -0.1,-0.7 -0.3,-1.1 -0.2,-0.4 -0.4,-0.7 -0.6,-0.9 -0.2,-0.2 -0.6,-0.5 -0.9,-0.6 -0.4,-0.2 -0.7,-0.2 -1.1,-0.2 -0.3,0 -0.7,0 -1.1,0.1 -0.4,0.1 -0.7,0.3 -1,0.5 -0.3,0.2 -0.5,0.5 -0.7,0.8 -0.2,0.3 -0.3,0.7 -0.4,1.1 0,0.2 0,0.4 0,0.5 v 0.2 c 0.1,2.6 0.1,5.2 0.1,8 0,1.5 0.3,2.8 0.4,4 0,0.9 -0.1,1.9 -0.1,2.6 0,0.6 0,1.1 0.1,1.6 0,0.3 0,0.5 0.1,0.8 0,0.4 0.1,0.8 0.2,1.1 -0.2,-0.4 -0.2,-0.8 -0.2,-1.2 0,-0.2 0,-0.5 0,-0.7 0,-0.5 -0.1,-1 -0.1,-1.6 0,-0.8 0.4,0.6 0.4,1.1 0.1,0.2 -0.2,0.6 -0.2,0.8 0,0.1 0,0.2 0,0.4 0,0.2 0,0.4 0.1,0.5 0.1,0.3 0.2,0.7 0.4,1 0.2,0.2 0,0.4 0.1,0.5 0.4,0.4 0.9,0.5 1.3,0.5 0.4,0 0.8,-0.1 1,-0.1 0.3,0 0.7,0.1 1,0.1 0.2,0 0.4,0 0.6,0 0.1,0 0.3,0 0.4,-0.1 0.9,-0.2 2,-0.3 3,-0.4 v 0 c -0.6,0 -1.2,0 -1.8,-0.2 0.3,0.1 0.2,0.1 -0.1,0.2 l -0.2,-0.1 c 0.5,-0.1 1.1,-0.2 1.6,0 0,0 0.2,-0.1 0.3,-0.1 0.2,0 0.2,0.1 0.2,0.2 0.1,0 0.2,0 0.3,0 -0.1,-0.1 -0.4,-0.2 -0.7,-0.2 h 5.5 c 0.4,0 0.7,-0.1 0.9,-0.4 0.3,-0.3 0.4,-0.6 0.4,-0.9 0,-0.4 -0.1,-0.7 -0.4,-0.9 0,-0.5 -0.2,-0.6 -0.4,-0.6 z m -11.9,2.4 c 0,0 0,0 0,0 0,0.1 0.1,0.1 0.1,0.2 0,-0.1 -0.1,-0.2 -0.1,-0.2 z" id="path10" inkscape:connector-curvature="0" style="fill:#ffffff;fill-opacity:1"></path> <path class="st0" d="m 203.9,170.1 -0.1,-0.2 c -0.1,-0.2 -0.2,-0.5 -0.4,-0.7 0.1,0.3 0.2,0.5 0.3,0.7 0.1,0.1 0.1,0.2 0.2,0.2 0,0.2 0,0.3 0.1,0.4 0.1,0.2 0.1,0.4 0.1,0.7 0,0.4 -0.1,1 -0.4,1.4 -0.2,0.2 -0.3,0.4 -0.5,0.6 -0.2,0.2 -0.5,0.3 -0.8,0.4 -0.4,0.1 -0.5,0.1 -0.5,0 0,0 0.3,-0.1 0.5,-0.2 0.3,-0.1 0.6,-0.4 0.8,-0.6 0.2,-0.2 0.4,-0.5 0.4,-0.8 0.1,-0.4 0.5,-0.9 0.3,-1.3 0,-0.1 0,-0.2 -0.1,-0.3 0,-0.1 0,-0.1 -0.1,-0.1 v -0.1 c -0.1,-0.1 -0.1,-0.2 -0.2,-0.3 -0.1,-0.2 -0.3,-0.5 -0.4,-0.7 -0.1,-0.2 0.1,-0.3 0,-0.4 -0.3,-0.7 -0.9,-1.1 -1,-1.6 -0.1,-0.4 -0.2,-0.7 -0.3,-1 -0.1,-0.2 -0.1,-0.4 -0.2,-0.6 -0.1,-0.1 -0.1,-0.2 -0.2,-0.4 -0.5,-0.9 -1.1,-1.9 -1.6,-2.9 v 0 c 0.3,0.6 0.5,1.2 0.5,1.8 0,-0.3 0,-0.3 0.2,0 v 0.3 c -0.3,-0.5 -0.5,-1 -0.6,-1.6 0,0 -0.1,-0.2 -0.2,-0.3 0,-0.2 0.1,-0.2 0.1,-0.3 -0.1,-0.1 -0.1,-0.2 -0.2,-0.3 0,0.2 0,0.5 0.1,0.7 l -3.6,-9.3 c 0,0 0,0 0,0 0,0 0,0 0,-0.1 l -0.1,-0.3 c -0.1,-0.1 -0.1,-0.3 -0.2,-0.4 0,0 0,0 0,0 0,-0.5 -0.4,-0.9 -0.9,-1 -0.2,-0.1 -0.5,-0.1 -0.8,0 -0.3,0.1 -0.6,0.3 -0.8,0.5 -0.1,0.1 -0.2,0.2 -0.3,0.4 -0.1,0.1 -0.2,0.3 -0.2,0.4 -0.1,0.2 -0.2,0.5 -0.3,0.7 -0.3,0.5 -0.6,1.1 -1,1.8 1.1,-1.9 0,1.7 -1.4,3.4 -2,2.4 -2.8,6.6 -4.3,9.9 -0.1,0.2 -0.2,0.4 -0.3,0.6 0,0.1 -0.1,0.2 -0.1,0.3 l -0.1,0.2 c 0,0 -0.1,0.2 -0.1,0.3 -0.1,0.2 -0.1,0.5 -0.1,0.8 0,0.3 0,0.5 0.1,0.8 0.1,0.6 0.5,1.1 0.9,1.5 0.3,0.3 0.7,0.5 1.1,0.7 0.4,0.1 0.8,0.2 1.2,0.1 0.4,0 0.9,-0.2 1.2,-0.4 0.2,-0.1 0.4,-0.2 0.5,-0.4 0.1,-0.1 0.3,-0.3 0.4,-0.4 0.1,-0.2 0.2,-0.3 0.3,-0.6 l 0.1,-0.3 0.2,-0.5 0.4,-1.1 0.8,-2.1 0.4,-1 V 167 c 0,0 0,0 0,0 0,0 0,0 0,0 h 0.4 c 0.5,0 1.1,0 1.6,0 0.7,0 1.5,0 2.2,0 l 0.1,0.2 c 0.6,1.5 1.3,2.7 1.9,3.9 0.1,0.2 0.2,0.5 0.3,0.7 l 0.1,0.2 c 0.1,0.1 0.1,0.2 0.2,0.3 0.1,0.2 0.3,0.4 0.4,0.5 0.3,0.3 0.7,0.6 1.2,0.7 0.4,0.1 0.8,0.1 1.2,0 0.6,-0.1 1.1,-0.5 1.4,-0.9 0.3,-0.4 0.5,-1 0.5,-1.5 0,-0.2 0,-0.5 -0.1,-0.7 -0.1,-0.1 -0.2,-0.2 -0.2,-0.3 z m -1.8,-1.6 c 0,0 0,0.1 0,0.2 v 0 c 0,-0.1 0,-0.1 0,-0.2 z m -9.5,-5.6 v 0 0 0 0 c 0,-0.1 0,-0.1 0,0 1,-0.1 0.6,-0.6 1.4,-1.1 -0.2,0.2 -0.4,0 -0.3,-0.2 0,-0.1 0.2,-0.3 0.5,-0.1 0.4,0.3 0.4,0.4 0.4,0.3 0,-0.1 0,-0.4 0,-0.2 0,0.1 0,0 0,0 0,0.1 0,0.1 0,0.2 0,0.1 0,0.1 0,0.1 -0.1,0 -0.2,0.1 -0.3,0.1 0,0.1 -0.2,0.1 -0.3,0.2 -0.1,0.1 -0.2,0.1 -0.3,0.2 -0.1,0 -0.1,0 -0.2,0 0.1,0 0.2,0.1 0.2,0.1 0.1,0.1 0.3,-0.3 0.4,-0.3 0,0 0,0.2 0.1,0.2 0.1,-0.1 0.1,-0.2 0.2,-0.2 0,-0.1 0.2,0.2 0.2,0.2 0.1,-0.1 0.1,-0.4 0,-0.4 0,0 0,0 0,0 0,0 0,0 0,0 0,0 0,0 0,-0.1 l -0.1,-0.3 c 0,-0.1 -0.1,-0.2 -0.1,-0.3 0.1,0.2 0.2,0.3 0.3,0.4 0.1,0.1 0.1,0.1 0.2,0.2 0,-0.1 0,-0.2 0,-0.3 0.1,0.1 0.1,0.1 0.2,0.2 v 0.1 c 0,0 0,0 0,0 -0.1,-0.1 -0.2,-0.2 -0.2,-0.3 0,0 0,0 0,0 0.1,0 0.5,0.3 0.6,0.4 0.1,0.1 -0.3,-0.1 -0.2,-0.1 0,0 0.1,0.1 0.1,0.2 0,0 0.1,0.1 0.1,0.1 0,0.1 -0.3,-0.2 -0.3,-0.2 0,0.1 0.3,0.4 0.2,0.3 -0.1,0 -0.2,-0.1 -0.3,-0.1 0,0 -0.1,0 -0.1,0 0,0 0,0 0,0.1 0,0.2 -0.2,0.3 -0.3,0.4 v 0 c 0.1,0 0.2,0 0.5,0.2 -0.1,-0.1 -0.1,-0.1 -0.1,-0.2 l 0.1,0.1 c -0.1,0.1 -0.2,0.2 -0.4,0 0,0 0,0.1 0,0.1 -0.1,0 -0.1,-0.1 -0.1,-0.2 0,0 0,0 -0.1,0 0,0.1 0.2,0.2 0.2,0.2 z m 2.5,-1.6 c 0,0 0,0 0,0 0,0 0,0 0,0 z" id="path12" inkscape:connector-curvature="0" style="fill:#ffffff;fill-opacity:1"></path> <path class="st0" d="m 220.2,152.4 c 0,0 0,0 0,0 -0.1,0 -0.1,-0.1 -0.2,-0.1 0,0 0,0 0,0 -0.1,0 -0.1,-0.1 -0.2,-0.1 0,0 0,0 0,0 0,0 0,0 -0.1,0 -0.1,0 -0.2,0 -0.3,0 H 219 c 0,0 0,0 0,0 -1.5,-1 -2.7,-0.5 -5.7,-1 1.7,0.3 -1.8,0.6 -3.8,-0.1 -0.7,-0.3 -1.5,-0.4 -2.4,-0.5 h -0.3 c -0.1,0 -0.4,0 -0.6,0 -0.5,0.1 -1,0.3 -1.4,0.6 -0.4,0.3 -0.7,0.7 -0.9,1.2 -0.2,0.5 -0.3,1 -0.2,1.5 0,0.5 0.3,1 0.6,1.4 0.3,0.4 0.7,0.7 1.2,0.9 0.2,0.1 0.5,0.2 0.8,0.2 0.1,0 0.2,0 0.4,0 h 0.2 0.7 c 0.5,0 0.9,0 1.4,0 0.2,0 0.5,0 0.7,0 h 0.3 c 0,0 0,0 0,0 0,0 0.1,0 0.1,0 0,0 0,0.1 0,0.1 v 0 0 0.1 0.3 0.5 c 0,0.3 0,0.7 0,1 0,0.7 0,1.4 0,2 0,1.4 0,2.7 0,4.1 0,1.4 0.1,2.7 0.1,4.1 0,0.7 0,1.4 0,2.1 v 0.3 c 0,0.2 0,0.4 0.1,0.6 0.1,0.4 0.2,0.8 0.5,1.1 0.2,0.3 0.5,0.6 0.8,0.8 0.3,0.2 0.7,0.4 1.1,0.4 0.4,0.1 0.8,0 1.2,-0.1 0.4,-0.1 0.8,-0.3 1.1,-0.6 0.3,-0.2 0.5,-0.5 0.7,-0.9 0.2,-0.4 0.3,-0.7 0.3,-1.1 0,-0.1 0,-0.2 0,-0.3 v -0.1 -0.3 c 0,-0.2 0,-0.3 -0.1,-0.5 0,-0.3 -0.1,-0.7 -0.1,-1 0,-1 0.1,-2 0.1,-2.7 0,-1.2 -0.1,-2.3 -0.2,-3.3 0.1,1.1 0.1,1.9 0.2,3.2 0,0.8 -0.4,-0.6 -0.4,-1.1 -0.1,-0.2 0.2,-0.6 0.2,-0.8 0,-0.5 -0.1,-1 -0.2,-1.5 -0.1,-0.2 0.2,-0.2 0.2,-0.3 -0.1,-0.8 -0.4,-1.3 -0.3,-1.8 0,-0.4 0.1,-0.7 0.1,-1 0,-0.2 0,-0.4 0,-0.6 0,-0.1 0,-0.3 -0.1,-0.4 -0.1,-0.5 -0.2,-1 -0.2,-1.6 -0.1,-0.5 -0.1,-1 -0.2,-1.5 v 0 c 0,0.3 0,0.5 0,0.8 0,0.3 -0.1,0.6 -0.2,0.9 0.1,-0.3 0.1,-0.2 0.2,0.1 l -0.1,0.2 c -0.1,-0.5 -0.2,-1.1 0,-1.6 0,0 -0.1,-0.2 -0.1,-0.4 0,-0.2 0.1,-0.1 0.2,-0.1 0,-0.1 0,-0.2 0,-0.3 -0.1,0.1 -0.1,0.2 -0.2,0.5 0,0 0,0 0,0.1 v -1 h 5 c 0.4,0 0.7,-0.1 0.9,-0.4 0.3,-0.3 0.4,-0.6 0.4,-0.9 0,-0.4 -0.1,-0.7 -0.4,-0.9 -0.4,-0.1 -0.4,-0.2 -0.5,-0.2 z m -5.7,9.6 c 0,0 -0.1,0.1 -0.1,0.2 v 0 c 0.1,-0.1 0.1,-0.2 0.1,-0.2 z" id="path14" inkscape:connector-curvature="0" style="fill:#ffffff;fill-opacity:1"></path> <path class="st0" d="m 227.8,166.5 c 0,-0.6 0.1,-1.3 0.1,-1.8 0,-0.8 -0.1,-1.5 -0.2,-2.1 0.1,0.7 0.1,1.2 0.2,2.1 0,0.5 -0.4,-0.4 -0.4,-0.7 -0.1,-0.2 0.2,-0.4 0.2,-0.5 0,-0.3 -0.1,-0.6 -0.2,-1 -0.1,-0.2 0.2,-0.1 0.2,-0.2 -0.1,-0.5 -0.4,-0.9 -0.3,-1.2 0,-0.2 0.1,-0.4 0.1,-0.7 0,-0.1 0,-0.3 0,-0.4 0,-0.1 0,-0.2 -0.1,-0.3 -0.2,-0.6 -0.3,-1.4 -0.4,-2.1 v 0 c 0,0.4 0,0.8 -0.2,1.2 0.1,-0.2 0.1,-0.2 0.2,0 l -0.1,0.2 c -0.1,-0.4 -0.2,-0.7 0,-1 0,0 -0.1,-0.2 -0.1,-0.2 0,-0.1 0.1,-0.1 0.2,-0.1 0,-0.1 0,-0.2 0,-0.2 -0.1,0.1 -0.2,0.3 -0.2,0.5 v -4.4 c 0,-0.4 -0.1,-0.7 -0.4,-0.9 -0.2,-0.2 -0.4,-0.3 -0.7,-0.4 v 0 c 0,0 0,0 -0.1,0 -0.1,0 -0.1,0 -0.2,0 -0.1,0 -0.2,0 -0.3,0 0,0 0,0 0,0 -0.3,-0.2 -0.7,-0.2 -1,0 -0.3,0.1 -0.6,0.5 -0.7,0.9 0,0.1 -0.1,0.2 -0.1,0.3 v 0.2 0.1 c 0,0.2 0,0.3 -0.1,0.5 0,0.4 -0.1,0.8 -0.3,1.3 0.3,-1.4 0.6,1 0,2.3 -1,1.9 -0.2,4.5 -0.5,6.8 -0.1,0.6 0,1.2 0,1.9 -0.1,0.9 -0.1,1.8 -0.1,2.6 0,0.4 0,0.9 0,1.3 v 0.7 c 0,0.4 0.1,1 0.4,1.4 0.1,0.2 0.3,0.4 0.4,0.6 0.2,0.2 0.3,0.3 0.5,0.5 0.4,0.3 0.9,0.5 1.4,0.5 0.5,0 0.9,0 1.4,-0.2 0.5,-0.2 0.9,-0.5 1.2,-0.9 0.3,-0.4 0.5,-0.9 0.6,-1.4 0,-0.1 0,-0.2 0,-0.4 v -0.2 -0.1 -0.3 c 0,-0.5 0,-0.9 0,-1.4 0,-1.1 -0.3,-1.9 -0.4,-2.8 z m -1.1,-4.6 c 0,0 -0.1,0.1 -0.1,0.1 v 0 c 0,0 0.1,-0.1 0.1,-0.1 z" id="path16" inkscape:connector-curvature="0" style="fill:#ffffff;fill-opacity:1"></path> <path class="st0" d="m 248.8,169.1 c -0.4,-0.4 -0.9,-0.8 -1.5,-0.9 -0.1,0 -0.3,-0.1 -0.4,-0.1 -0.1,0 -0.1,0 -0.2,0 h -0.2 -0.4 c -0.5,0 -1.1,0 -1.6,0 -1.1,0 -2.2,0 -3.3,0 -1.1,0 -2.2,0 -3.3,0 0,0 -0.1,0 -0.2,0 0,-0.1 -0.1,0.1 -0.2,-1 0,-0.4 -0.1,-0.8 -0.1,-1.2 0,-0.2 0,-0.4 0,-0.6 v -0.2 c 0,-0.1 0,-0.3 0,-0.4 0.2,0 0.4,0 0.5,0.1 v 0 h 0.1 0.2 c 0.1,0 0.3,0 0.4,0 0.2,0 0.5,0 0.7,0 0.9,0 1.8,0 2.7,-0.1 0.4,0 0.8,0 1.2,-0.1 h 0.3 c 0.1,0 0.3,0 0.4,0 0.4,-0.1 0.7,-0.2 1,-0.4 -0.3,0.2 -0.7,0.4 -1.1,0.4 -0.1,0 -0.2,0 -0.3,0 h -0.2 -0.3 c -0.4,0 -0.8,0 -1.2,0 -0.8,0 -1.6,0 -2.6,0.1 -1.3,0 0.9,-0.4 1.8,-0.4 0.4,-0.1 0.9,0.2 1.3,0.2 0.4,0 0.8,0 1.2,-0.1 0.3,0 0.6,-0.1 0.9,-0.3 0.3,-0.2 0.5,-0.4 0.7,-0.7 0.1,-0.3 0.2,-0.4 0.3,-0.4 0.1,-0.1 0.2,-0.1 0.2,-0.3 0.1,-0.5 0,-0.9 -0.2,-1.4 -0.2,-0.4 -0.5,-0.7 -0.8,-0.8 -0.3,-0.2 -0.7,-0.3 -1,-0.3 -0.3,0 -0.5,0 -0.7,0 -0.6,0 -1.1,-0.1 -1.6,-0.1 -0.3,0 -0.6,0 -1,0 -0.2,0 -0.4,0 -0.6,0.1 -1.1,0.1 -2.3,0.2 -3.5,0.3 0,-0.3 -0.1,-0.6 -0.1,-0.9 v 0 c 0,0.3 0,0.6 0,0.9 0.5,0 1,0.1 1.6,0.2 -0.2,0 -0.3,-0.1 -0.3,-0.1 0,0 0.1,-0.1 0.4,-0.1 0.1,0 0.3,0.1 0.4,0.1 -0.4,0 -0.8,0.1 -1.2,0.1 -0.4,0 -0.8,0 -1.1,-0.1 0,-0.1 0,-0.2 0,-0.3 0,0 -0.1,-0.3 -0.1,-0.5 0,-0.3 0.1,-0.3 0.2,-0.4 0,-0.2 0,-0.3 0,-0.5 -0.1,0.2 -0.1,0.6 -0.2,1 0,0 0,0.1 0,0.1 v -5.5 h 9.8 c 0,0 0,0 0,0 0,0 0.1,0 0.1,0 h 0.5 c 0.2,0 0.4,-0.1 0.6,-0.2 0,0 0,0 0,0 0.3,0 0.6,-0.2 0.9,-0.5 0.2,-0.3 0.3,-0.7 0.3,-1.1 0,-0.4 -0.3,-0.8 -0.6,-1.1 -0.2,-0.1 -0.4,-0.3 -0.6,-0.4 -0.1,0 -0.2,-0.1 -0.4,-0.1 -0.1,0 -0.3,0 -0.3,0 -1.3,-0.1 -2.9,-0.1 -5.2,-0.3 2.6,0.3 -2.9,0.6 -5.9,-0.1 -0.1,0 -0.4,-0.1 -0.6,-0.1 -0.2,0 -0.5,0 -0.7,0 -0.5,0.1 -1,0.4 -1.3,0.8 -0.4,0.4 -0.6,0.9 -0.7,1.5 0,0.4 0,0.8 -0.1,1.2 -0.1,1.3 -0.1,2.7 -0.1,4.2 0,2.9 0.2,5.9 0.1,8.7 0,0.7 0,1.4 0,2.2 0,0.4 0,0.8 0,1.3 0,0.8 0.2,1.5 0.7,2.1 0.3,0.4 0.7,0.7 1.2,0.9 0.2,0.1 0.5,0.1 0.7,0.2 0.1,0 0.3,0 0.4,0 h 0.4 c 0.5,0 1.1,0 1.6,0 1.1,0 2.1,0 3.2,0 2.1,0 4.2,0 6.3,0 0.1,0 0.4,0 0.7,-0.1 0.3,-0.1 0.6,-0.2 0.9,-0.3 0.5,-0.3 0.9,-0.7 1.2,-1.2 0.3,-0.6 0.4,-1.2 0.3,-1.7 0.3,-0.2 0,-0.9 -0.4,-1.3 z m -3.8,-7 c 0,0 0,0 0,0 0,-0.1 0,-0.3 0,-0.4 0,0.1 0,0.3 0,0.4 z" id="path18" inkscape:connector-curvature="0" style="fill:#ffffff;fill-opacity:1"></path> <path class="st0" d="m 268.7,171.1 c 0,-0.1 0,-0.1 0,0 0,-0.1 0,-0.1 0,-0.1 0,-0.1 0,-0.2 0,-0.2 0,0 0,0 0,0 0,0 0,0 0,-0.1 0,-0.1 -0.1,-0.2 -0.1,-0.3 l -0.3,-0.4 c 0,0 0,0 0,0 0,-1 -0.3,-1.7 -0.8,-2.6 -0.2,-0.4 -0.5,-0.9 -0.8,-1.5 -0.2,-0.3 -0.3,-0.6 -0.5,-0.9 l -0.1,-0.1 c 0,0 0,-0.1 0,-0.1 0,0 0,-0.1 0,-0.1 0,-0.1 0,-0.2 0,-0.2 0,0.2 0,0.4 -0.1,0.3 -0.1,0 -0.1,-0.1 -0.2,-0.2 0,-0.1 -0.1,-0.1 -0.2,-0.2 0,0 -0.1,-0.1 -0.1,-0.1 0,0 -0.1,-0.1 0,-0.1 0.1,-0.1 0.3,-0.2 0.4,-0.3 0.2,-0.1 0.3,-0.1 0.6,-0.4 0.5,-0.4 1,-0.9 1.4,-1.3 1.5,-1.4 2,-4.2 0.9,-6.6 -0.5,-1.2 -1.3,-2.3 -2.4,-3.1 -1,-0.8 -2.2,-1.4 -3.5,-1.7 -0.3,-0.1 -0.6,-0.1 -1,-0.1 -0.2,0 -0.3,0 -0.5,0 -0.1,0 -0.3,0 -0.4,0 -0.5,0 -1.1,0 -1.7,0 -0.8,0 -1.5,-0.1 -2.3,-0.1 h -0.5 c -0.2,0 -0.4,0 -0.6,0.1 -0.4,0.1 -0.7,0.2 -1,0.4 -0.6,0.4 -1.1,1 -1.3,1.7 -0.1,0.3 -0.1,0.7 -0.1,1.1 v 0.7 1.1 c 0,0.8 0,1.5 0,2.3 0.1,3 0.1,6.1 0.1,9.4 0,0.9 0.1,1.7 0.1,2.5 0,0.4 0.1,0.8 0.1,1.1 v 0.3 c 0,0.1 0,0.3 0.1,0.5 0.1,0.3 0.3,0.7 0.5,1 0.2,0.2 0.3,0.4 0.5,0.5 0.2,0.2 0.4,0.3 0.7,0.4 0.5,0.2 1,0.2 1.5,0.1 1.1,-0.2 1.7,-1 2,-1.9 0.1,-0.3 0.1,-0.7 0.1,-0.8 0,-0.2 0,-0.3 0,-0.5 0,-0.3 0,-0.6 0,-0.9 0,-0.6 -0.1,-1.2 -0.2,-1.7 0,0.6 0.1,1.2 0.1,1.7 0,0.3 0,0.6 0,0.9 0,0.2 0,0.3 0,0.5 0,0.1 0,0.2 0,0.2 0,0.1 0,0.3 0,0.5 -0.1,0.4 -0.2,0.6 -0.2,0.5 0,-0.1 0,-0.3 0,-0.6 0,-0.4 -0.1,-0.5 -0.1,-0.8 0,-0.2 -0.1,-0.4 -0.1,-0.6 -0.1,-0.3 0.2,-0.7 0.2,-0.9 0,-0.6 -0.1,-1.1 -0.2,-1.7 -0.1,-0.3 0.2,-0.2 0.2,-0.4 0,-0.2 0,-0.4 -0.1,-0.6 0,-0.1 0,-0.1 -0.1,-0.2 0,-0.1 0,-0.1 -0.1,-0.2 -0.1,-0.2 -0.2,-0.5 -0.1,-0.6 0,-0.1 0,-0.2 0,-0.2 0.2,0 0.4,0.1 0.5,0.1 0.1,0 0.3,0 0.4,0 0.1,0 0.1,0 0.3,-0.1 0.3,0 0.6,-0.1 0.9,-0.1 0.2,0 0.5,-0.1 0.7,-0.1 l 0.4,0.5 c 0.2,0.2 0.3,0.4 0.5,0.7 v 0 c -0.2,-0.2 -0.3,-0.5 -0.4,-0.7 -0.1,-0.2 -0.2,-0.4 -0.3,-0.7 -0.1,0 -0.2,0 -0.3,-0.1 0.3,0.1 0.2,0.1 -0.1,0.2 -0.1,0 -0.1,-0.1 -0.2,-0.1 0.2,0 0.5,-0.1 0.8,-0.1 0.2,0.3 0.4,0.6 0.5,1 0,0 0.2,0.2 0.3,0.3 0.1,0.2 0,0.2 0,0.3 0.1,0.1 0.2,0.2 0.2,0.3 0,-0.2 -0.1,-0.5 -0.2,-0.7 0,0 0,-0.1 0,-0.1 l 3.8,6.1 c 0.3,0.4 0.7,0.7 1.2,0.7 0.2,0 0.4,0 0.5,-0.1 0.2,-0.1 0.3,-0.2 0.4,-0.3 0.1,-0.1 0.2,-0.3 0.3,-0.4 0,-0.1 0.1,-0.2 0.1,-0.4 0,0 0,0 0,0 -0.1,-0.5 -0.1,-0.6 -0.1,-0.6 z m -5.8,-9.5 c -0.1,0 -0.1,0 -0.2,0.1 -0.4,-0.4 -0.6,-0.4 -0.9,-0.5 -0.2,0 -0.7,-0.1 -1.2,-0.3 0.4,0.2 0.3,0.3 -0.1,0.4 -0.3,0 -1,-0.1 -1,-0.4 0,-0.4 0.1,-0.5 0,-0.5 0,-0.1 0,0 -0.1,-0.1 0,0 0,0 0,0 0,0 0,-0.1 0,-0.1 V 160 c 0,-0.2 0,-0.4 0.1,-0.7 0.1,-0.3 0,-0.7 0,-1.1 0,-0.3 0.1,-0.6 0.1,-0.8 0,-0.1 0,-0.3 0,-0.4 v -0.2 -0.1 c 0,0 0,0 0,0 0,0 0,0 -0.1,-0.1 0,0 0,-0.1 0,-0.1 0,0 0,0 0.1,0 h 0.4 c 0.2,0 0.5,0 0.7,0 0.1,0 0.3,0 0.4,0 0.1,0 0.3,-0.1 0.3,-0.1 0.2,-0.1 0.3,-0.1 0.5,-0.2 0.2,0 0.4,0.2 0.6,0.3 0.2,0.1 0.5,0.2 0.8,0.4 -0.2,-0.2 -0.4,-0.3 -0.7,-0.4 -0.2,-0.1 0.3,-0.2 0.5,-0.2 0.1,0 0,0.3 0.1,0.3 0.1,0.1 0.3,0.1 0.4,0.2 0.1,0 -0.1,0.2 -0.1,0.2 0.2,0.1 0.6,0.1 0.6,0.3 0,0.1 0,0.2 0,0.3 0,0.1 0,0.1 0,0.2 l 0.1,0.1 c 0.2,0.3 0.4,0.6 0.5,1 v 0 c 0,-0.2 0,-0.4 0.2,-0.7 -0.1,0.1 -0.1,0.1 -0.2,0 l 0.1,-0.1 c 0.1,0.2 0.2,0.4 0,0.6 0,0 0.1,0.1 0.1,0.1 0,0.1 -0.1,0 -0.2,0 0,0 0,0.1 0,0.1 0.1,0 0.2,-0.1 0.3,-0.2 0,0.4 -0.1,0.7 -0.3,1 -0.2,0.4 -0.4,0.8 -0.8,1.1 -0.2,0.4 -0.6,0.6 -1,0.8 z m -5,5.1 v 0 c 0,-0.1 0.1,-0.2 0.1,-0.2 0,0 0,0.1 -0.1,0.2 z" id="path20" inkscape:connector-curvature="0" style="fill:#ffffff;fill-opacity:1"></path> </g> <path class="st1" d="m 214.50714,3.4765948 c -2.4,-2.90000002 -5.3,-2.4 -6.8,-2 -3,-2.5 -6.8,-1.20000002 -8.3,-0.60000002 -4.3,-1.7 -7.6,0.80000002 -8.7,1.90000002 -1,0.1 -2,0.3 -2.8,0.8 -0.6,0.3 -1.1,0.7 -1.4,1.2 -0.2,0.3 -0.4,0.5 -0.6,0.9 l -0.1,0.2 c 0,0 -0.1,0.2 -0.1,0.2 0,0 0,0.1 0,0.1 l -0.1,0.4 c 0,0.1 -0.1,0.3 -0.1,0.4 v 0.3 c 0,0.1 0,0.2 0,0.4 v 0.2 c 0,0.2 0,0.5 0.1,0.7 0.1,0.7 0.4,1.4 0.6,1.9000002 0.7,1.2 1.8,2.2 3.1,2.7 0.6,0.2 1.2,0.3 1.9,0.3 1,2.2 0.6,6.9 0.6,6.9 0,0.2 0.1,0.4 0.2,0.5 0.2,0.1 2.1,1.5 5.5,2.2 0.3,-0.7 0.8,-1.3 1.3,-1.8 -1.8,-0.3 -3.3,-0.8 -4.3,-1.2 1.2,-0.3 3.1,-0.7 6,-1 4,-0.3 6.8,0.3 8.5,1 -0.6,0.2 -1.3,0.5 -2.3,0.8 0.5,0.4 0.9,0.9 1.3,1.4 1.1,-0.4 2.2,-0.8 3.3,-1.4 0.2,-0.1 0.3,-0.3 0.3,-0.5 0,0 0,0 0,-0.1 -0.3,-2.9 0.5,-5.8 1.8,-7.1 2.2,-1.8 4.1,-6.1000002 1.1,-9.7000002 z m -28.2,2.8 v 0 z m 25.4,6.3000002 c -1.6,2.2 -2,4.4 -2,5.5 -2.5,-0.9 -5.1,-1.3 -7.4,-1.3 -3.6,0 -6.7,0.8 -8,1.2 0,-1.8 -0.4,-3.6 -0.8,-4.8 0.1,0 0.1,0 0.2,0 l 1.6,-0.5 c 0.2,-0.1 0.4,-0.1 0.7,-0.2 l 0.3,-0.1 c 0.1,0 0.3,-0.1 0.4,-0.1 1,-0.2 2,-0.4 2.8,-0.5 0.9,-0.1 1.8,-0.2 2.6,-0.2 0.8,0 1.6,0 2.2,0 0.7,0 1.3,0 1.7,0 1,0 1.5,0.1 1.5,0.1 0.3,0 0.5,-0.2 0.6,-0.4 0,-0.3 -0.1,-0.5 -0.4,-0.6 0,0 -0.1,0 -0.2,0 0.4,-0.7000002 0.3,-1.4000002 0.3,-1.5000002 0,-0.3 -0.2,-0.5 -0.5,-0.5 -0.3,0 -0.5,0.1 -0.6,0.4 -0.2,0.6 -0.6,1.0000002 -1,1.2000002 -0.4,-0.1 -0.9,-0.2 -1.4,-0.2 0,0 0,0 -0.1,0 0.3,-1.0000002 -0.2,-1.9000002 -0.2,-2.0000002 -0.1,-0.2 -0.4,-0.3 -0.7,-0.2 -0.2,0.1 -0.4,0.4 -0.3,0.6 0.1,0.6 -0.2,1.1 -0.6,1.4 -0.2,0 -0.3,0 -0.5,0 -0.3,0 -0.6,0 -0.9,0 h -0.6 c -0.4,0 -0.9,0 -1.3,0 h -0.2 c -0.8,-0.8 -1.2,-2.1 -1.2,-2.1 -0.1,-0.3 -0.3,-0.4 -0.6,-0.4 -0.3,0 -0.5,0.2 -0.5,0.5 -0.1,0.9 0,1.6 0.2,2.2000002 -0.3,0 -0.6,0.1 -0.9,0.1 -0.2,0 -0.4,0.1 -0.6,0.1 l -0.3,0.1 c -0.2,0.1 -0.5,0.1 -0.8,0.2 -0.4,-0.3 -0.8,-0.7000002 -0.9,-1.5000002 0,-0.2 -0.2,-0.4 -0.5,-0.5 -0.2,0 -0.5,0.1 -0.6,0.3 0,0.1 -0.5,1.1 0.1,2.2000002 -0.8,0.2 -1.7,0.2 -2.3,-0.1 -0.7,-0.3 -1.4,-0.8 -1.8,-1.5000002 -0.4,-0.8 -0.6,-1.6 -0.5,-2.2 v -0.3 c 0,0 0,0 0,-0.1 v 0 l 0.1,-0.2 c 0.1,-0.1 0.1,-0.2 0.2,-0.4 0.2,-0.2 0.4,-0.5 0.7,-0.7 0.7,-0.5 1.5,-0.7 2.1,-0.8 0.7,-0.1 1.3,-0.1 2,0 0.5,0.1 1,0.3 1.4,0.5 0.4,0.2 0.6,0.4 0.8,0.5 l 0.3,0.3 c 0.2,0.2 0.5,0.2 0.7,0 0.2,-0.2 0.2,-0.5 0.1,-0.7 l -0.3,-0.4 c -0.2,-0.2 -0.4,-0.5 -0.9,-0.9 -0.5,-0.4 -1,-0.7 -1.6,-0.9 4.2,-2.20000002 8.6,0.8 8.8,0.9 0.2,0.2 0.5,0.1 0.7,-0.1 0.2,-0.2 0.2,-0.5 -0.1,-0.7 -0.4,-0.4 -0.9,-0.8 -1.3,-1.1 4.7,-1.50000002 7.1,2.6 7.2,2.8 0.1,0.2 0.4,0.3 0.7,0.2 0.3,-0.1 0.4,-0.4 0.3,-0.7 -0.3,-0.7 -0.6,-1.3 -1,-1.8 2.3,-0.4 3.8,0.7 4.8,3.2 1.2,2.3 0.4,3.8 -1.7,6.7000002 z" id="path24" inkscape:connector-curvature="0" style="fill:#ffffff;fill-opacity:1"></path> <g id="g36" transform="translate(-13.592858,-106.82341)" style="fill:#ffffff;fill-opacity:1"> <path class="st0" d="m 185.1,138 c -0.2,-0.2 -0.5,-0.4 -0.7,-0.5 -0.3,-0.1 -0.6,-0.2 -0.9,-0.3 -0.3,0 -0.6,0 -0.9,0.1 -0.3,0.1 -0.6,0.2 -0.8,0.4 l -0.1,0.1 c -0.4,0.3 -0.8,0.5 -1.2,0.7 -1.1,0.6 -2.3,0.8 -3.4,0.8 0.6,0 1.2,0 1.7,-0.1 0.5,-0.1 1.1,-0.3 1.7,-0.6 0.4,-0.2 0.3,-0.1 0,0.2 -0.3,0.2 -0.8,0.5 -1.1,0.6 -0.3,0.1 -0.7,-0.1 -1,0 -0.6,0 -1.1,0.2 -1.8,0.1 -0.3,0 -0.2,-0.2 -0.3,-0.2 -0.8,-0.1 -1.6,-0.1 -2,-0.4 -0.3,-0.3 -0.6,-0.5 -0.9,-0.8 -0.2,-0.2 -0.3,-0.3 -0.5,-0.5 -0.1,-0.1 -0.2,-0.2 -0.4,-0.3 -0.9,-0.8 -1.6,-2 -1.9,-3.3 v 0 c 0.1,0.8 0.3,1.5 0.5,2.3 -0.1,-0.3 0,-0.3 0.2,0 0,0.1 0,0.2 0,0.3 -0.4,-0.6 -0.7,-1.2 -0.7,-1.9 0,0 -0.1,-0.3 -0.2,-0.4 0,-0.2 0.1,-0.2 0.2,-0.3 0,-0.1 0,-0.3 -0.1,-0.5 -0.1,0.2 -0.1,0.5 -0.1,0.8 0,0 0,0.1 0,0.1 -0.1,-0.5 -0.1,-0.9 -0.1,-1.4 0,-2.1 0.7,-3.8 2.2,-5.3 1.3,-1.3 3,-2.1 4.8,-2.2 0,0 0,0 0,0 0,0 0,0 0,0 0.1,0 0.3,0 0.5,0 0.2,0 0.4,0 0.6,0 0.9,0.6 1.7,0.9 2.6,1.4 0.2,0.1 0.4,0.3 0.7,0.5 0.1,0.1 0.2,0.2 0.3,0.3 0.2,0.1 0.4,0.3 0.7,0.4 0.6,0.2 1.2,0.2 1.9,-0.1 0.3,-0.2 0.6,-0.4 0.8,-0.8 0.1,-0.2 0.2,-0.4 0.3,-0.7 0,0.1 -0.1,0.2 -0.1,0.3 -0.1,0.2 -0.2,0.3 -0.2,0.4 -0.1,0.1 -0.1,0.1 -0.1,-0.1 0.1,-0.2 0.2,-0.5 0.2,-1 0,-0.2 0,-0.4 -0.1,-0.7 -0.1,-0.3 -0.2,-0.5 -0.5,-0.8 v 0 0 c -0.9,-0.8 -2.2,-1.6 -3.2,-2.3 -0.9,-0.6 -2.1,-1 -3.3,-1.1 -1.2,-0.1 -2.6,0 -3.9,0.5 -1.3,0.4 -2.6,1.2 -3.6,2.1 -1.1,0.9 -2,1.9 -2.7,3 -0.8,1.1 -1.3,2.5 -1.6,4.1 -0.2,1 -0.3,2 -0.2,3 0,1 0.2,2 0.6,3 0.7,2 1.9,3.7 3.5,5 1.5,1.3 3.5,2.3 5.5,2.6 1,0.2 2.1,0.2 3.1,0.1 1.1,-0.1 2.1,-0.3 3.2,-0.7 1.3,-0.5 2.3,-1.2 3.2,-2 l 0.1,-0.1 c 0.2,-0.2 0.4,-0.5 0.5,-0.9 0.1,-0.3 0.2,-0.7 0.2,-1.1 0,-0.3 -0.1,-0.7 -0.2,-1 -0.6,-0.3 -0.8,-0.6 -1,-0.8 z" id="path26" inkscape:connector-curvature="0" style="fill:#ffffff;fill-opacity:1"></path> <path class="st0" d="m 203.8,141.5 v -0.3 c -0.2,-1.5 -0.3,-3.1 -0.4,-4.7 v 0 c 0,0.9 0,1.8 -0.2,2.8 0.1,-0.4 0.1,-0.4 0.2,0.1 0,0.1 -0.1,0.2 -0.1,0.4 -0.1,-0.8 -0.2,-1.6 0,-2.4 0,0 -0.1,-0.3 -0.1,-0.5 0,-0.3 0.1,-0.2 0.2,-0.3 0,-0.2 0,-0.4 0,-0.5 -0.1,0.2 -0.2,0.7 -0.2,1 v -12.9 c 0,-0.4 -0.1,-0.7 -0.4,-0.9 -0.1,-0.1 -0.3,-0.2 -0.4,-0.3 0,0 0,0 0,0 0,0 -0.1,0 -0.1,0 -0.1,0 -0.3,-0.1 -0.4,-0.1 -0.2,0 -0.4,0.1 -0.6,0.1 0,0 0,0 0,0 -0.3,0 -0.6,0.2 -0.9,0.4 -0.1,0.1 -0.2,0.3 -0.3,0.5 0,0.1 -0.1,0.2 -0.1,0.3 v 0.2 c -0.1,0.6 -0.1,1.1 -0.2,1.8 0,0.7 -0.1,1.4 -0.1,2.2 0,0.4 -0.1,0.9 -0.1,1.4 0,0.1 0,0.2 0,0.3 0,0.1 0,0.1 0,0.2 0,0.1 -0.1,0.2 -0.1,0.3 0.1,-0.2 0.2,-0.4 0.2,-0.3 0.1,0.1 0.1,0.4 0.1,0.8 -0.2,0 -0.4,0 -0.7,0 -0.3,0 -0.7,0 -1.1,-0.1 -0.9,-0.1 -1.8,-0.2 -2.6,-0.3 -0.6,-0.1 -1.3,-0.3 -1.9,-0.3 h -0.3 c 0,0 -0.1,0 -0.1,0 v 0 H 193 V 130 c 0,-0.1 0,-0.1 0,-0.1 v 0 -0.4 c 0,-0.2 0,-0.5 0,-0.7 0,-1 0,-2 -0.1,-2.9 v -1.5 -0.2 c 0,-0.1 0,-0.2 0,-0.4 0,-0.3 -0.1,-0.5 -0.2,-0.8 -0.1,-0.3 -0.3,-0.5 -0.4,-0.7 -0.2,-0.2 -0.3,-0.4 -0.6,-0.5 -0.4,-0.3 -1,-0.5 -1.5,-0.5 -0.5,0 -1,0.1 -1.5,0.3 -0.5,0.3 -0.8,0.6 -1.1,1 -0.3,0.4 -0.4,1 -0.4,1.5 -0.1,1.4 0,2.7 0,4.3 -0.2,4.1 -0.2,8 -0.1,12 v 0.8 0.4 0.3 c 0,0.1 0,0.3 0.1,0.4 0.1,0.6 0.4,1.1 0.8,1.5 0.3,0.4 0.9,0.7 1.5,0.8 0.6,0.1 1.1,0.1 1.6,-0.1 0.6,-0.2 1,-0.5 1.4,-0.9 0.4,-0.4 0.6,-1 0.7,-1.6 0,-0.1 0,-0.3 0,-0.4 v -0.2 -0.4 c 0,-1 0,-2.1 0,-3.1 0,-0.5 0,-1.1 0,-1.6 v -0.4 0 -0.1 c 0,0 0,0 0,-0.1 0,0 0.1,0 0.1,-0.1 -0.1,0 0.3,0 0.5,0 0.2,0 0.5,0 0.7,-0.1 0.9,-0.1 1.8,-0.2 2.7,-0.2 0.3,0 0.6,0 0.9,0 h 0.4 0.2 0.1 v 0 c 0.2,0 0.3,0 0.4,0.1 0,0.1 0,0.1 0,0.2 0,0.6 0,1.2 0.1,1.8 0,0.8 0.1,1.6 0.2,2.3 0,-0.8 -0.1,-1.5 -0.1,-2.3 0,-0.4 0,-0.7 0,-1.1 0,-0.1 0,-0.2 0,-0.3 0,-0.1 0,-0.1 0,-0.1 0,-0.1 0,-0.1 0,-0.2 0,-0.2 0.1,-0.2 0.2,-0.1 0,0.1 0.1,0.2 0.1,0.3 0,0.2 0.1,0.6 0.1,0.8 0.1,0.3 -0.2,0.9 -0.2,1.2 0,0.8 0.1,1.5 0.2,2.3 0.1,0.3 -0.2,0.3 -0.2,0.5 0,0.3 0,0.5 0.1,0.8 v 0.2 c 0,0.1 0,0.2 0,0.3 0,0.2 0.1,0.4 0.2,0.5 0.2,0.3 0.4,0.5 0.6,0.7 0.2,0.2 0.5,0.3 0.7,0.4 0.4,0.1 0.7,0.2 1.1,0.1 0.4,-0.1 0.7,-0.3 1,-0.5 0.3,-0.3 0.6,-0.8 0.6,-1.3 0,-0.1 0,-0.2 0,-0.2 z m -3.4,-0.4 v 0 c 0,0.1 0,0.1 -0.1,0.2 0.1,0 0.1,-0.1 0.1,-0.2 z" id="path28" inkscape:connector-curvature="0" style="fill:#ffffff;fill-opacity:1"></path> <path class="st0" d="m 226,135.9 c 0.1,-0.2 0.2,-0.2 0.1,0.1 l -0.2,0.2 c 0.1,-0.5 0.1,-1 0.4,-1.5 0,0 0,-0.2 0,-0.3 0.1,-0.2 0.1,-0.1 0.2,-0.2 0,-0.1 0,-0.2 0,-0.4 -0.1,0.1 -0.2,0.4 -0.3,0.6 0,0 0,0.1 0,0.1 0.1,-0.5 0.1,-1.1 0.1,-1.7 0,-1.4 -0.2,-2.7 -0.7,-3.9 -0.4,-0.9 -1,-1.8 -1.7,-2.7 0,0 -0.1,-0.1 -0.1,-0.1 -0.1,-0.1 -0.1,-0.2 -0.2,-0.2 0,0 0,0 0,0 0,0 -0.1,-0.1 -0.1,-0.1 -0.1,-0.1 -0.1,-0.1 -0.1,-0.2 -0.1,-0.1 -0.2,-0.2 -0.3,-0.3 0,0 0,0 0,0 -0.2,-0.9 -0.7,-1.4 -1.4,-1.9 -0.7,-0.5 -1.6,-0.9 -2.9,-1.5 0.3,0.1 0.4,0.2 0.3,0.3 -0.1,0 -0.4,0 -0.9,-0.1 -0.9,-0.1 -2.3,-0.3 -3.4,-0.5 -0.8,-0.2 -1.7,-0.1 -2.6,0.1 -0.9,0.3 -1.8,0.7 -2.6,1.3 -1.6,1.2 -2.9,2.8 -3.9,4.5 -0.5,0.9 -0.8,1.9 -1,3 -0.3,1.5 -0.4,3 -0.1,4.4 0.3,1.5 0.9,2.9 1.7,4.1 0.9,1.2 1.9,2.3 3.1,3.1 1.2,0.9 2.7,1.5 4.3,1.9 1.7,0.3 3.1,0.1 4.5,-0.3 1,-0.2 2,-0.4 2.8,-0.8 1.2,-0.5 2,-1.3 2.7,-2.1 -0.8,0.8 -1.5,1.4 -2.7,2 -0.4,0.2 -0.3,0 0,-0.2 0.3,-0.2 0.6,-0.6 0.9,-0.8 0.2,-0.2 0.7,-0.1 0.8,-0.3 0.4,-0.3 0.7,-0.7 1.1,-1.2 0.1,-0.2 0.3,0 0.4,-0.1 0.5,-0.6 0.6,-1.3 0.9,-1.6 0.2,-0.3 0.5,-0.5 0.7,-0.8 0.1,-0.2 0.2,-0.3 0.3,-0.5 0,-0.1 0.1,-0.3 0.1,-0.4 0.3,-1 0.4,-2.1 0.4,-3.1 v 0 c -0.1,1 -0.2,1.6 -0.6,2.1 z m -4.3,-7.9 c 0,0 0,-0.1 0,-0.2 v 0 c 0,0.1 0,0.1 0,0.2 z m 0,10 v 0 c 0,0 0,0 0,0 -0.1,0.1 -0.1,0.1 -0.2,0.2 -0.1,0.1 -0.2,0.1 -0.2,0.2 -0.7,0 -1.1,0.2 -1.6,0.4 -0.5,0.2 -1.1,0.5 -2.1,0.4 0.7,0 0.5,0.2 -0.1,0.4 -0.6,0.1 -1.5,0.1 -2.1,-0.4 -0.8,-0.6 -1.6,-0.9 -2.4,-1.5 -0.8,-0.5 -1.7,-1.3 -2,-2.3 -0.2,-0.5 -0.4,-0.9 -0.4,-1.5 0,-0.7 0,-1.5 0.1,-2.2 0.1,-0.7 0.4,-1.3 0.8,-2 0.4,-0.6 0.9,-1.2 1.5,-1.7 0.6,-0.5 1.3,-0.8 2.1,-0.9 0.8,-0.2 1.6,-0.4 2.4,-0.4 0.6,0 1.1,0.4 1.5,0.5 0.6,0.3 1.2,0.6 1.7,0.9 -0.5,-0.4 -1,-0.6 -1.6,-0.9 -0.4,-0.2 0.5,-0.2 0.8,-0.1 0.2,0 0.2,0.4 0.3,0.4 0.2,0.2 0.5,0.3 0.9,0.5 0.2,0.1 -0.1,0.2 0,0.3 0.4,0.3 0.9,0.3 1,0.6 0.1,0.2 0.2,0.4 0.2,0.6 0.1,0.1 0.1,0.2 0.2,0.3 0.1,0.1 0.1,0.1 0.2,0.2 0.4,0.5 0.8,1.2 0.9,1.9 v 0 c -0.1,-0.4 -0.1,-0.8 -0.1,-1.3 0,0.2 -0.1,0.2 -0.2,0 l 0.1,-0.2 c 0.2,0.3 0.4,0.7 0.2,1.1 0,0 0.1,0.2 0.1,0.2 0,0.1 -0.1,0.1 -0.2,0.2 0,0.1 0,0.2 0,0.2 0.1,-0.1 0.1,-0.3 0.2,-0.5 0,0 0,0 0,0 0.1,0.4 0.1,0.8 0.1,1.2 -0.1,2 -0.8,3.7 -2.1,5.2 z m 1.9,1.8 v 0 c 0.1,0 0.1,-0.1 0.2,-0.1 0,0 -0.1,0.1 -0.2,0.1 z" id="path30" inkscape:connector-curvature="0" style="fill:#ffffff;fill-opacity:1"></path> <path class="st0" d="m 246.9,138 c -0.2,-0.2 -0.5,-0.4 -0.7,-0.5 -0.3,-0.1 -0.6,-0.2 -0.9,-0.3 -0.3,0 -0.6,0 -0.9,0.1 -0.3,0.1 -0.6,0.2 -0.8,0.4 l -0.1,0.1 c -0.4,0.3 -0.8,0.5 -1.2,0.7 -1.1,0.6 -2.3,0.8 -3.4,0.8 0.6,0 1.2,0 1.7,-0.1 0.5,-0.1 1.1,-0.3 1.7,-0.6 0.4,-0.2 0.3,-0.1 0,0.2 -0.3,0.2 -0.8,0.5 -1.1,0.6 -0.3,0.1 -0.7,-0.1 -1,0 -0.6,0 -1.1,0.2 -1.8,0.1 -0.3,0 -0.2,-0.2 -0.3,-0.2 -0.8,-0.1 -1.6,-0.1 -2,-0.4 -0.3,-0.3 -0.6,-0.5 -0.9,-0.8 -0.2,-0.2 -0.3,-0.3 -0.5,-0.5 -0.1,-0.1 -0.2,-0.2 -0.4,-0.3 -0.9,-0.8 -1.6,-2 -1.9,-3.3 v 0 c 0.1,0.8 0.3,1.5 0.5,2.3 -0.1,-0.3 0,-0.3 0.2,0 0,0.1 0,0.2 0,0.3 -0.4,-0.6 -0.7,-1.2 -0.7,-1.9 0,0 -0.1,-0.3 -0.2,-0.4 0,-0.2 0.1,-0.2 0.2,-0.3 0,-0.1 0,-0.3 -0.1,-0.5 -0.1,0.2 -0.1,0.5 -0.1,0.8 0,0 0,0.1 0,0.1 -0.1,-0.5 -0.1,-0.9 -0.1,-1.4 0,-2.1 0.7,-3.8 2.2,-5.3 1.3,-1.3 3,-2.1 4.8,-2.2 0,0 0,0 0,0 0,0 0,0 0,0 0.1,0 0.3,0 0.5,0 0.2,0 0.4,0 0.6,0 0.9,0.6 1.7,0.9 2.6,1.4 0.2,0.1 0.4,0.3 0.7,0.5 0.1,0.1 0.2,0.2 0.3,0.3 0.2,0.1 0.4,0.3 0.7,0.4 0.6,0.2 1.2,0.2 1.9,-0.1 0.3,-0.2 0.6,-0.4 0.8,-0.8 0.1,-0.2 0.2,-0.4 0.3,-0.7 0,0.1 -0.1,0.2 -0.1,0.3 -0.1,0.2 -0.2,0.3 -0.2,0.4 -0.1,0.1 -0.1,0.1 -0.1,-0.1 0.1,-0.2 0.2,-0.5 0.2,-1 0,-0.2 0,-0.4 -0.1,-0.7 -0.1,-0.3 -0.2,-0.5 -0.5,-0.8 v 0 0 c -0.9,-0.8 -2.2,-1.6 -3.2,-2.3 -0.9,-0.6 -2.1,-1 -3.3,-1.1 -1.2,-0.1 -2.6,0 -3.9,0.5 -1.3,0.4 -2.6,1.2 -3.6,2.1 -1.1,0.9 -2,1.9 -2.7,3 -0.8,1.1 -1.3,2.5 -1.6,4.1 -0.2,1 -0.3,2 -0.2,3 0,1 0.2,2 0.6,3 0.7,2 1.9,3.7 3.5,5 1.5,1.3 3.5,2.3 5.5,2.6 1,0.2 2.1,0.2 3.1,0.1 1.1,-0.1 2.1,-0.3 3.2,-0.7 1.3,-0.5 2.3,-1.2 3.2,-2 l 0.1,-0.1 c 0.2,-0.2 0.4,-0.5 0.5,-0.9 0.1,-0.3 0.2,-0.7 0.2,-1.1 0,-0.3 -0.1,-0.7 -0.2,-1 -0.6,-0.3 -0.8,-0.6 -1,-0.8 z" id="path32" inkscape:connector-curvature="0" style="fill:#ffffff;fill-opacity:1"></path> <path class="st0" d="m 268.7,135.9 c 0.1,-0.2 0.2,-0.2 0.1,0.1 l -0.2,0.2 c 0.1,-0.5 0.1,-1 0.4,-1.5 0,0 0,-0.2 0,-0.3 0.1,-0.2 0.1,-0.1 0.2,-0.2 0,-0.1 0,-0.2 0,-0.4 -0.1,0.1 -0.2,0.4 -0.3,0.6 0,0 0,0.1 0,0.1 0.1,-0.5 0.1,-1.1 0.1,-1.7 0,-1.4 -0.2,-2.7 -0.7,-3.9 -0.4,-0.9 -1,-1.8 -1.7,-2.7 0,0 -0.1,-0.1 -0.1,-0.1 -0.1,-0.1 -0.1,-0.2 -0.2,-0.2 0,0 0,0 0,0 0,0 -0.1,-0.1 -0.1,-0.1 -0.1,-0.1 -0.1,-0.1 -0.1,-0.2 -0.1,-0.1 -0.2,-0.2 -0.3,-0.3 0,0 0,0 0,0 -0.2,-0.9 -0.7,-1.4 -1.4,-1.9 -0.7,-0.5 -1.6,-0.9 -2.9,-1.5 0.3,0.1 0.4,0.2 0.3,0.3 -0.1,0 -0.4,0 -0.9,-0.1 -0.9,-0.1 -2.3,-0.3 -3.4,-0.5 -0.8,-0.2 -1.7,-0.1 -2.6,0.1 -0.9,0.3 -1.8,0.7 -2.6,1.3 -1.6,1.2 -2.9,2.8 -3.9,4.5 -0.5,0.9 -0.8,1.9 -1,3 -0.3,1.5 -0.4,3 -0.1,4.4 0.3,1.5 0.9,2.9 1.7,4.1 0.9,1.2 1.9,2.3 3.1,3.1 1.2,0.9 2.7,1.5 4.3,1.9 1.7,0.3 3.1,0.1 4.5,-0.3 1,-0.2 2,-0.4 2.8,-0.8 1.2,-0.5 2,-1.3 2.7,-2.1 -0.8,0.8 -1.5,1.4 -2.7,2 -0.4,0.2 -0.3,0 0,-0.2 0.3,-0.2 0.6,-0.6 0.9,-0.8 0.2,-0.2 0.7,-0.1 0.8,-0.3 0.4,-0.3 0.7,-0.7 1.1,-1.2 0.1,-0.2 0.3,0 0.4,-0.1 0.5,-0.6 0.6,-1.3 0.9,-1.6 0.2,-0.3 0.5,-0.5 0.7,-0.8 0.1,-0.2 0.2,-0.3 0.3,-0.5 0,-0.1 0.1,-0.3 0.1,-0.4 0.3,-1 0.4,-2.1 0.4,-3.1 v 0 c -0.1,1 -0.2,1.6 -0.6,2.1 z m -4.3,-7.9 c 0,0 0,-0.1 0,-0.2 v 0 c 0,0.1 0,0.1 0,0.2 z m 0,10 v 0 c 0,0 0,0 0,0 -0.1,0.1 -0.1,0.1 -0.2,0.2 -0.1,0.1 -0.2,0.1 -0.2,0.2 -0.7,0 -1.1,0.2 -1.6,0.4 -0.5,0.2 -1.1,0.5 -2.1,0.4 0.7,0 0.5,0.2 -0.1,0.4 -0.6,0.1 -1.5,0.1 -2.1,-0.4 -0.8,-0.6 -1.6,-0.9 -2.4,-1.5 -0.8,-0.5 -1.7,-1.3 -2,-2.3 -0.2,-0.5 -0.4,-0.9 -0.4,-1.5 0,-0.7 0,-1.5 0.1,-2.2 0.1,-0.7 0.4,-1.3 0.8,-2 0.4,-0.6 0.9,-1.2 1.5,-1.7 0.6,-0.5 1.3,-0.8 2.1,-0.9 0.8,-0.2 1.6,-0.4 2.4,-0.4 0.6,0 1.1,0.4 1.5,0.5 0.6,0.3 1.2,0.6 1.7,0.9 -0.5,-0.4 -1,-0.6 -1.6,-0.9 -0.4,-0.2 0.5,-0.2 0.8,-0.1 0.2,0 0.2,0.4 0.3,0.4 0.2,0.2 0.5,0.3 0.9,0.5 0.2,0.1 -0.1,0.2 0,0.3 0.4,0.3 0.9,0.3 1,0.6 0.1,0.2 0.2,0.4 0.2,0.6 0.1,0.1 0.1,0.2 0.2,0.3 0.1,0.1 0.1,0.1 0.2,0.2 0.4,0.5 0.8,1.2 0.9,1.9 v 0 c -0.1,-0.4 -0.1,-0.8 -0.1,-1.3 0,0.2 -0.1,0.2 -0.2,0 l 0.1,-0.2 c 0.2,0.3 0.4,0.7 0.2,1.1 0,0 0.1,0.2 0.1,0.2 0,0.1 -0.1,0.1 -0.2,0.2 0,0.1 0,0.2 0,0.2 0.1,-0.1 0.1,-0.3 0.2,-0.5 0,0 0,0 0,0 0.1,0.4 0.1,0.8 0.1,1.2 -0.1,2 -0.8,3.7 -2.1,5.2 z m 2,1.8 v 0 c 0.1,0 0.1,-0.1 0.2,-0.1 -0.1,0 -0.2,0.1 -0.2,0.1 z" id="path34" inkscape:connector-curvature="0" style="fill:#ffffff;fill-opacity:1"></path> </g> <path class="st0" d="m 47.407142,33.276595 c -1.1,-0.9 -2.5,-1.4 -3.7,-1.2 -0.3,0 -0.7,0.1 -1.1,0.1 0.7,-0.9 1.4,-2.2 1.6,-3 0,-0.1 0.1,-0.1 0.2,-0.1 0,0 0.1,0 0.1,0 0.9,-0.5 1.1,-1.5 1,-2 0,-0.2 -0.2,-0.3 -0.3,-0.3 0,0 0,0 -0.1,0 -0.1,-0.1 -0.2,-0.1 -0.3,-0.1 -0.1,0 -0.1,-0.1 -0.2,-0.1 -0.1,0 -0.2,-0.1 -0.3,0 -0.3,0 -0.7,0.1 -1,0 0,0 -0.1,0 -0.1,0 0,0 0,0 -0.1,-0.1 -0.2,-0.2 -0.5,-0.4 -1.1,-0.5 -0.8,0 -1.1,0.7 -1.1,0.9 0,0.1 0,0.2 0.1,0.3 0,0 0,0 0.1,0.1 0,0.1 0,0.2 -0.1,0.2 -0.3,0.8 -0.6,1.9 -2.2,3.4 -0.1,-1.7 -0.9,-2.9 -2.4,-3.6 -1.2,-0.6 -3.9,-1 -5.8,0.2 -1.5,1.1 -3.7,1.7 -6.2,2.3 l -0.3,0.1 c -5.1,0.8 -16.3000005,7.6 -20.4000005,17.9 -1.5,3.8 -2,7.7 -2.3,10.9 -0.1,1.1 -0.2,2 -0.4,2.9 -1.69999999,4.8 -0.79999999,5.6 -0.49999999,5.8 l 0.1,0.1 c 0.2,0.3 0.69999999,0.9 1.59999999,1.1 v -0.1 c 0.9,0.4 3.4,0.5 4.6,0.5 0.3,0 0.7,0 1.2,0.1 1,0 2.0000005,0.1 2.7000005,0.2 1.3,0.3 3.2,0.5 5.4,0.5 4.1,0 9.2,-0.6 13.5,-2.4 6.5,-2.7 11.9,-7.3 14,-11.9 1.1,-2.4 1.9,-4.4 2.3,-6 0,-0.1 0,-0.2 0,-0.2 0,-0.1 0,-0.1 0,-0.2 0.3,-2.1 0.7,-2.9 1.2,-4.1 0.3,-0.6 0.6,-1.3 0.9,-2.2 0.6,-1.6 1.1,-3.2 1.1,-4.5 0.4,-2.1 -0.3,-3.8 -1.7,-5 z m -45.6000005,31.6 c 0.7,-1.6 1.2,-4.4 1.3,-7.4 0.4,-3.7 2,-12.9 9.2000005,-18.8 3.7,-4.1 8.8,-5.8 13.3,-7.3 2.1,-0.7 4.2,-1.4 6,-2.3 2.3,-1.6 4.7,-0.1 5.5,0.8 0.5,0.7 0.7,1.4 0.6,2 0,0 0,0 0,0 -0.2,0.6 -0.5,1 -0.5,1.1 0,0.1 -0.1,0.1 -0.1,0.2 v 0 c 0,0.1 0,0.2 0,0.4 -0.3,-0.3 -0.6,-0.7 -1.3,-1.2 -3.8,-2.2 -7.9,-1.3 -9.6,0 -0.4,0.3 -0.6,0.6 -0.7,0.9 -0.5,0 -1.4,0 -2.2,0.2 -1.3,0.4 -1.8,0.9 -2.8,2.1 -0.9,0.3 -4.3,1.5 -4.7,3.5 -2.3,0.6 -4,2.6 -4,3.9 -0.5,0.2 -1.7,0.6 -2.6000005,2.6 -0.4,0.9 -0.3,2 -0.2,2.5 0,0 0,0.1 0,0.1 -0.3,0.2 -0.8,0.7 -1,1.4 -0.2,0.9 -0.2,1.5 -0.1,1.8 -0.4,0.3 -1,1 -1.5,2.6 -0.4,1.6 -0.2,2.3 0,2.8 0,0.1 0.1,0.1 0.1,0.2 -0.4,0.6 -0.7,1.5 -1,2.9 0,0 0,0 0,0 -0.2,0.6 -0.3,2.3 0.2,3.2 0.2,0.3 0.5,0.5 0.7,0.6 0,0 1.4,0.4 3.1,0.4 0.8000005,0 1.8000005,-0.1 2.7000005,-0.4 0.2,0 0.5,0 0.8,0.1 0.7,0.1 1.6,0.2 2.5,0.1 1.5,-0.2 3,-0.7 3.7,-1.2 0.5,0.1 1.5,0.3 2.5,-0.2 0.1,0 0.2,0 0.4,0 0.4,0 0.9,0 1.2,-0.1 2.4,-0.4 3,-0.9 3.4,-1.5 0,0 0.1,-0.1 0.1,-0.1 2.2,-0.2 3.2,-1.1 3.5,-1.5 v 0 c 1.3,-0.3 3,-0.7 4.2,-2.6 1.3,-0.5 3.1,-2.1 3.6,-3.6 0.2,-0.5 0.3,-0.9 0.3,-1.2 0.6,-0.2 1,-0.4 1.6,-1.1 0.8,-1 1.1,-1.9 1.3,-2.6 0.2,-0.8 0.1,-1.6 0,-2 0,-0.1 0,-0.1 0,-0.2 0.4,-0.3 1.5,-1.3 1.8,-3.2 0.1,-1 0.1,-2 -0.1,-2.6 -0.1,-0.4 -0.3,-0.9 -0.4,-1.2 -0.8,-1.9 -2.8,-4 -5,-4.4 0,-0.1 -0.1,-0.1 -0.1,-0.2 -0.1,-0.2 -0.2,-0.4 -0.3,-0.6 0,0 0,0 0,0 0.3,0.2 0.5,0.1 2.1,-1.4 0.1,-0.1 0.2,-0.3 0.4,-0.5 0.4,-0.6 1.1,-1.6 2,-2.3 0.1,0 0.1,-0.1 0.1,-0.2 0.3,-0.9 0.4,-1.5 0.4,-1.9 0.4,0.3 1,0.2 1.6,0.1 0.3,0 0.8,-0.2 1,-0.1 -0.1,0.2 -0.2,0.3 -0.2,0.4 -0.1,-0.1 -0.2,-0.2 -0.4,-0.2 -0.2,0 -0.3,0.1 -0.4,0.3 -0.1,0.6 -2.8,4 -3.7,4.7 -0.2,0.1 -0.8,0.5 -0.7,0.9 0.1,0.5 0.7,0.4 0.9,0.3 0.1,0 0.3,0 0.4,0 0.2,0 0.4,0 0.7,-0.1 0.2,0 0.3,0 0.5,-0.1 0.8,-0.1 1.9,-0.3 3.5,0.6 0.6,0.5 2.2,1.8 2.1,3.8 -0.2,1.4 -0.7,2.3 -1.2,3.3 -0.5,1.1 -1.1,2.2 -1.4,3.9 -0.3,2.9 -2.6,7.2 -6.2,11.2 -3.6,4.2 -9.8,6.6 -15.5,8.4 -4.3,1.4 -8.7,1.5 -12.3,1.5 -1.2000005,0 -2.4000005,0 -3.5000005,0.1 -0.7,0.1 -1.4,0.3 -2,0.4 -1,0.2 -1.9,0.5 -2.7,0.3 -1,-0.3 -1.3,-0.5 -1.4,-0.6 0.1,-0.1 0,-0.6 0.5,-1.7 z m 33.1000005,-9.9 c 0,-1.1 -0.4,-2.2 -0.9,-3.3 -0.5,-1 -1.3,-1.8 -2.2,-2.3 0.2,-0.2 0.3,-0.4 0.5,-0.7 0.2,-0.3 0.6,-0.8 0.8,-1.4 0.8,0.4 2.3,1.5 3.4,3.4 0.5,0.7 0.6,1.5 0.4,2.1 -0.6,1.2 -1.4,1.8 -2,2.2 z m -5.2,-2.6 c -0.3,-0.3 -0.7,-0.7 -1.1,-0.9 0.2,-0.2 0.4,-0.4 0.5,-0.5 0.3,-0.1 1.1,-0.4 1.8,-0.8 0.7,0.4 2.5,1.6 2.8,4.1 0.1,0.7 0.1,1.3 0,1.7 -0.8,0.9 -1.6,1.4 -2.4,1.8 0.4,-1.6 -0.3,-3.8 -1.6,-5.4 z m -2.1,4 c -0.4,-1.6 -1,-2.5 -1.7,-3.4 0.6,-0.2 1.4,-0.5 1.8,-0.8 0.5,0.3 1.4,1.6 2,2.9 0.6,1.2 0.6,2.3 0.1,3 -0.5,0.8 -1.6,1.2 -2.3,1.4 0.3,-0.9 0.3,-1.8 0.1,-3.1 z m -15,2.2 c -0.2,-0.4 -0.7,-0.8 -1.1,-1.1 0.6,-0.5 0.9,-1.3 1.1,-1.8 0.7,0.3 1.9,0.7 2.7,0.7 0.4,0.3 0.8,0.8 1.2,1.4 0.2,0.3 0.4,0.5 0.5,0.7 1,1.3 1.2,2.4 1.4,3.2 -0.2,0.2 -1,0.6 -1.8,0.7 -1.5,0.3 -2.2,0.3 -3.1,0.3 0.1,-0.2 0.2,-0.4 0.2,-0.7 0.2,-1.6 -0.2,-2.2 -1.1,-3.4 z m 7.6,-21.3 c 0.2,-0.1 0.8,-0.3 1.3,-0.2 1.8,0.5 3.4,2.3 3.6,3 l -0.4,0.2 c -0.7,0.3 -1.3,0.8 -1.8,1.3 -0.2,-0.1 -0.4,-0.3 -0.6,-0.4 l -0.2,-0.1 c -0.8,-0.6 -2.3,-1.5 -4.3,-1.9 -0.2,0 -0.3,0 -0.5,0 0.7,-0.8 2.1,-1.5 2.9,-1.9 z m 2,14.4 c 0.1,1 -0.4,2 -0.8,2.5 -0.9,0.8 -1.5,0.6 -2.2,0.5 -0.5,-0.2 -0.9,-0.5 -1.4,-0.8 -0.1,-1.1 -1.5,-3.4 -3.1,-4.5 0,0 -0.1,-0.1 -0.1,-0.1 0.3,-0.5 1.8,-1.8 3.7,-1.4 0.9,0.3 2.1,1.1 2.8,1.7 0.6,0.5 1,1.3 1.1,2.1 z m 8.9,-3 -0.1,0.2 c -0.6,0.5 -1.2,0.8 -1.7,0.9 0,-0.4 -0.1,-0.9 -0.4,-1.3 -0.6,-1.2 -2.9,-4 -5.8,-4.6 0,-0.3 0.1,-0.7 0.3,-1.1 0.2,-0.3 0.9,-1.4 3.2,-1.6 1.5,-0.1 4.8,2.9 5.4,4.9 0.3,1.2 -0.2,1.9 -0.9,2.6 z m 0.4,-5.8 -0.4,-0.4 c -0.7,-0.9 -1.7,-1.7 -2.8,-2.2 0,-0.6 0.1,-1.2 1.3,-1.9 0,0 0,0 0,0 0.5,-0.3 1.6,-0.6 2.9,-0.2 0.8,0.4 1.7,1.3 2.4,2.5 0.2,0.3 0.3,0.6 0.5,0.9 0.5,0.8 0.9,1.5 0.9,2.2 0,0.2 0,0.6 -0.4,0.9 -0.5,0.6 -0.9,1 -1.6,1.2 -0.5,0.2 -0.9,0.2 -1.2,0.2 0,-0.2 -0.1,-0.3 -0.2,-0.6 l -0.1,-0.3 c -0.2,-1 -0.6,-1.5 -1.3,-2.3 z m 7,1.3 c -0.5,-0.1 -0.8,-0.2 -1.2,-0.3 0,-0.4 -0.1,-1 -0.2,-1.4 -0.1,-0.2 -0.1,-0.4 -0.2,-0.6 -0.4,-1.2 -0.6,-2.2 -2.1,-3.8 -0.1,-0.1 -0.3,-0.3 -0.6,-0.6 0,0 0,0 0,0 0.6,-0.6 1.8,-1.6 3.4,-1.3 0,0 0,0 0,0 0.4,0 0.5,0.2 0.9,0.3 0.1,0.1 0.2,0.1 0.3,0.2 1.4,0.8 3.6,2.9 2.4,7 -0.3,0.7 -0.8,1.2 -0.9,1.2 0,0 -0.2,-0.1 -0.3,-0.2 -0.3,0.1 -0.8,-0.2 -1.5,-0.5 z m -16.3,4.7 c -0.7,-0.7 -2.1,-1.8 -3.8,-2.1 0.2,-0.3 0.6,-0.7 1.1,-0.9 l 0.4,-0.2 c 1.5,-0.7 2.4,-1.1 5.1,0.4 2,1.3 3.5,3.4 3.1,4.4 -0.8,1 -1.8,1.2 -2.7,1.4 -1.4,0.2 -1.9,0.1 -2.2,0.1 0,-0.8 0.1,-1.9 -1,-3.1 z m 10.9,-11.9 c -0.6,-0.2 -1.3,-0.3 -1.9,-0.3 -0.1,0 -0.2,0 -0.2,0 0,0 -0.1,-0.1 -0.1,-0.1 -0.4,-0.4 -1.2,-1.2 -2.3,-1.9 -0.6,-0.5 -1.3,-0.8 -1.7,-0.9 0.5,-0.5 2.8,-1.5 5.4,-1 2.4,0.4 3.1,1.3 3.6,2.2 -1.3,0.3 -2.3,1 -2.8,2 z m -4.6,-1.1 c 0.5,0.3 0.9,0.7 1.2,1.1 -0.8,0.2 -1.3,0.6 -1.7,1 -0.5,0.5 -0.9,1.3 -1,1.9 0,0 -0.1,0 -0.1,0 -0.2,0 -0.4,0 -0.6,0 0,0 0,0 0,0 -0.1,-0.4 -0.4,-1.1 -1.5,-2.3 l -0.1,-0.1 c -0.6,-0.5 -1.4,-1.3 -2.5,-1.6 1.1,-1.3 3.6,-1.3 4.1,-1.1 0,0 0.1,0 0.1,0 0.1,0.1 0.8,0.4 2.1,1.1 z m -8.9,5.1 c 1.2,0.6 2.2,1.2 2.7,1.5 -0.1,0.3 -0.2,0.9 -0.2,1.3 -0.1,0 -0.2,0 -0.3,0 -2.1,0.4 -3.3,1.2 -3.8,1.9 -0.2,-0.6 -0.7,-1.4 -1.8,-1.9 -0.8,-0.4 -1.9,-0.8 -2.8,-0.9 0.6,-1.2 1.9,-2 3.4,-2.4 0.9,-0.1 1.2,0 2.8,0.5 z m -5.7,7.4 c -0.1,0.1 -0.1,0.2 -0.2,0.3 -1.2,-0.8 -2.2,-1 -2.8,-1 -0.2,0 -0.3,0 -0.4,0 -0.1,-1.2 0.2,-3.1 1.9,-3.5 1.3,0.1 3,0.5 3.8,1.2 0.5,0.4 0.8,1 1,1.4 -2,0.2 -3,1.2 -3.3,1.6 z m -2.1,0.7 c 0.7,0.1 1.5,0.6 2.5,1.4 1.3,1.2 2.5,3 2.4,3.4 0,0 0,0.1 0,0.1 0.1,0.4 -0.3,1.2 -1.1,1.4 -1,0 -2.5,-0.4 -2.9,-0.8 -0.4,-1.4 -2.2,-3.3 -3.6000005,-3.4 0,-0.9 0,-1.6 1.0000005,-2.1 0.6,-0.2 1,-0.2 1.7,0 z m -0.2,6.5 c -0.8,1.6 -1.4,1.6 -2.4000005,1.6 -0.1,0 -0.3,0 -0.4,0 -0.6,0 -0.9,-0.2 -1.2,-0.4 -0.2,-1 -0.2,-3.2 1.4,-4.5 0.3,0 0.9,0.2 2.0000005,1.3 1,1.1 0.9,1.6 0.6,2 z m -1.3,2.5 c 0.3,-0.1 1.1,0.5 2.2,2.1 0.6,0.9 0.3,1.9 -0.1,2.4 -1.7,0.6 -4.3000005,0.5 -5.4000005,0 -0.4,-0.6 -0.6,-1.9 0.4,-4.8 0.5,0.3 1.4,0.5 2.9000005,0.3 z m 7.2,-3.1 c 0.2,0.1 0.3,0.2 0.5,0.3 0.7,0.4 1.2,0.5 1.6,0.5 0.6,0.3 1.2,0.7 1.5,1 1,0.8 1.1,1.9 1.1,2.4 0,0.9 -0.3,1.7 -0.8,2.1 -0.7,0.4 -1.6,0.2 -2.1,0.1 0,-0.1 0,-0.2 0,-0.2 -0.2,-0.9 -0.3,-1.9 -1.8,-4 -0.1,-0.2 -0.7,-0.9 -1.2,-1.3 0.6,-0.2 1,-0.6 1.2,-0.9 z m 5.9,5.4 c 0.2,-1.1 0.3,-2.3 -0.7,-3.8 -0.4,-0.5 -0.9,-0.8 -1.4,-1.1 0,0 0,0 0,0 0.4,-0.2 0.9,-0.5 1.2,-0.9 0.4,-0.5 0.5,-1.1 0.6,-1.4 0,0 0,0 0,0 0.3,0.1 0.7,0.1 1.6,0 0.9,0.5 2.4,3.7 1.7,6.3 -0.1,0.1 -0.1,0.2 -0.2,0.3 -0.1,0.2 -0.2,0.4 -0.4,0.6 -0.8,0.7 -1.5,0.8 -2.4,1 h -0.2 c -0.1,0 -0.2,0 -0.3,0 0.2,-0.3 0.4,-0.6 0.5,-1 z m 11.4,-13.5 c 1.1,-0.4 1.8,-1 2.2,-1.9 0.5,0.1 1.5,0.4 2.8,1.3 0.1,0.1 0.2,0.5 0.1,1.2 -0.2,1.2 -0.7,2.3 -1.3,2.8 -0.2,0.2 -0.5,0.3 -0.7,0.4 -0.8,-1.3 -2.3,-2.8 -3.6,-3.7 0.2,0 0.4,-0.1 0.5,-0.1 z m -21.5,21.1 v 0 c 6.2,0.1 15.6,-1.6 23.5,-6.9 0.9,-0.7 1.8,-1.5 2.6,-2.3 -2.5,2.8 -10.8,8.9 -19.9,9.5 -2.6,0.5 -5.2,0.2 -7.5,-0.1 -0.5,-0.1 -1,-0.1 -1.5,-0.2 0.8,-0.1 1.7,-0.1 2.8,0 z" id="path38" inkscape:connector-curvature="0" style="fill:#ffffff;fill-opacity:1"></path> <g class="st2" id="g46" style="display:none" transform="translate(-13.592858,-106.82341)"> <path class="st3" d="m 195.8,259.7 c 1.3,2.3 0.9,7.9 0.9,7.9 0,0 8.2,5.8 19.9,0 l -0.9,-0.5 c 0.6,0.3 0.9,0.5 0.9,0.5 -0.3,-3.3 0.6,-6.5 2.1,-8 1.5,-1.5 4,-5.8 0.9,-9.6 -2.4,-3 -5.6,-2.3 -6.9,-1.8 -3.1,-2.9 -7.2,-1.3 -8.6,-0.6 -4.5,-1.9 -7.9,0.9 -9,2 -0.9,0 -1.9,0.2 -2.9,0.8 -0.5,0.3 -1,0.6 -1.4,1.1 -0.2,0.2 -0.4,0.5 -0.5,0.8 l -0.1,0.2 v 0.1 0 0 0 0.1 c 0,0.2 -0.1,0.3 -0.1,0.5 0,0.2 0,0.3 -0.1,0.5 0,0.2 0,0.3 0,0.5 0,0.3 0,0.6 0.1,0.9 0.1,0.6 0.3,1.2 0.6,1.8 0.6,1.1 1.7,2.1 3,2.6 0.7,0.2 1.4,0.3 2.1,0.2 z" id="path40" inkscape:connector-curvature="0" style="display:inline;fill:#fbb040"></path> <path class="st4" d="m 206.9,269.3 c -5.5,0 -9.4,-2.1 -9.4,-2.1 1,-0.5 3.3,-1.1 7.8,-1.5 5.4,-0.5 8.9,0.8 10.4,1.5 0.1,0 -3.3,2.1 -8.8,2.1 z" id="path42" inkscape:connector-curvature="0" style="display:inline;fill:none;stroke:#551520;stroke-width:1.12479997;stroke-linecap:round;stroke-linejoin:round;stroke-miterlimit:10"></path> <path class="st4" d="m 192,256.2 c -0.4,-0.8 -0.7,-1.8 -0.6,-2.7 l 0.1,-0.3 v 0 0 c 0,0 0,0 0,0 v 0 -0.1 l 0.1,-0.2 c 0.1,-0.1 0.2,-0.3 0.3,-0.5 0.2,-0.4 0.6,-0.7 0.9,-0.9 0.7,-0.5 1.6,-0.8 2.4,-0.9 0.8,-0.1 1.6,-0.1 2.3,0 0.7,0.1 1.2,0.4 1.7,0.6 0.4,0.2 0.7,0.5 1,0.7 0.2,0.2 0.3,0.3 0.3,0.3 0,0 -0.1,-0.1 -0.2,-0.3 -0.2,-0.2 -0.4,-0.5 -0.8,-0.9 -0.4,-0.3 -1,-0.7 -1.7,-0.9 -0.3,-0.1 -0.6,-0.2 -1,-0.3 5.1,-3.8 11,0.3 11,0.3 -0.8,-0.7 -1.5,-1.3 -2.3,-1.7 6.2,-2.8 9.3,2.8 9.3,2.8 -0.5,-1 -1,-1.8 -1.5,-2.5 4,-1.1 5.7,1.2 6.6,3.6 1,2.4 -0.1,4.3 -2.3,7.4 -2.2,3.1 -2.1,6.3 -2.1,6.3 -8.4,-3.5 -17.5,-0.1 -17.5,-0.1 0.3,-2.5 -0.5,-5.1 -1,-6.3 0.2,0 0.5,-0.1 0.7,-0.2 0.3,-0.1 0.5,-0.2 0.8,-0.3 0.3,-0.1 0.5,-0.2 0.8,-0.3 0.2,-0.1 0.5,-0.2 0.8,-0.2 0.3,-0.1 0.5,-0.2 0.8,-0.2 1,-0.2 2.1,-0.4 3,-0.5 1,-0.1 1.9,-0.2 2.8,-0.2 0.9,0 1.7,-0.1 2.4,0 0.7,0 1.3,0 1.9,0 1,0 1.6,0.1 1.6,0.1 0,0 -0.4,-0.1 -1,-0.3 0.9,-0.6 0.8,-1.8 0.8,-1.8 -0.3,0.9 -0.9,1.4 -1.5,1.7 -0.5,-0.1 -1,-0.2 -1.7,-0.3 -0.3,0 -0.6,-0.1 -0.9,-0.1 0.9,-1 0.2,-2.3 0.2,-2.3 0.2,1 -0.5,1.8 -1,2.2 -0.2,0 -0.5,0 -0.8,-0.1 -0.4,0 -0.9,0 -1.4,-0.1 -0.5,0 -1,0 -1.5,0 -0.1,0 -0.3,0 -0.5,0 -1.1,-0.9 -1.6,-2.7 -1.6,-2.7 -0.1,1.6 0.2,2.4 0.5,2.8 -0.6,0.1 -1.2,0.1 -1.8,0.2 -0.3,0 -0.6,0.1 -0.8,0.2 -0.3,0.1 -0.6,0.1 -0.9,0.2 0,0 -0.1,0 -0.1,0 -0.6,-0.3 -1.3,-0.9 -1.5,-2.1 0,0 -0.6,1.4 0.6,2.4 -0.2,0.1 -0.4,0.1 -0.6,0.2 -1,0.2 -2,0.3 -2.9,0 -0.9,-0.2 -1.7,-0.9 -2.2,-1.7 z" id="path44" inkscape:connector-curvature="0" style="display:inline;fill:none;stroke:#551520;stroke-width:1.12479997;stroke-linecap:round;stroke-linejoin:round;stroke-miterlimit:10"></path> </g> <rect y="-106.8234" class="st5" width="283.5" height="283.5" id="rect48" x="-13.592858" style="fill:none;stroke:#551520;stroke-width:0.49869999;stroke-miterlimit:10"></rect> </svg> 