<svg id="Layer_5" enable-background="new 0 0 64 64" height="512" viewBox="0 0 64 64" width="512" xmlns="http://www.w3.org/2000/svg"><g><g><g><path d="m2 46h60v16h-60z" fill="#cf9e76"/></g><g><path d="m13 46h14v12h-14z" fill="#e6e9ed"/></g><g><path d="m59 33c.83 0 1.58.34 2.12.88s.88 1.29.88 2.12-.34 1.58-.88 2.12-1.29.88-2.12.88h-1.88c-.27 0-.54-.02-.8-.07-1.06-.16-2.05-.66-2.82-1.43-.96-.96-1.5-2.26-1.5-3.62v-1.88l.68-1.37c.21-.41.32-.87.32-1.34v-.29c0-1.66-1.34-3-3-3l-.54-1.63c-.28-.82-1.04-1.37-1.9-1.37h-4.56-1c-1.66 0-3-1.34-3-3 0-.83.34-1.58.88-2.12s1.29-.88 2.12-.88h9c4.42 0 8 3.58 8 8z" fill="#656d78"/></g><g><path d="m59 42v4h-6v-4c0-1.66 1.34-3 3-3 .1 0 .21.01.31.02.7.07 1.34.39 1.81.86.54.54.88 1.29.88 2.12z" fill="#a0d468"/></g><g><path d="m47 35h-2.38c-.41 0-.81-.09-1.17-.28-.89-.44-1.45-1.35-1.45-2.34v-1.38l-2-1c0-3 3-7 3-7h4.56c.86 0 1.62.55 1.9 1.37l.54 1.63c1.66 0 3 1.34 3 3v.29c0 .47-.11.93-.32 1.34l-.68 1.37v1.88c0 1.36.54 2.66 1.5 3.62.77.77 1.76 1.27 2.82 1.43l-.01.09c-.1-.01-.21-.02-.31-.02h-9z" fill="#f0d0b4"/></g><g><path d="m47 39h9c-1.66 0-3 1.34-3 3v4h-4-10v-.32c0-2.75 1.87-5.15 4.54-5.82z" fill="#b4dd7f"/></g><g><path d="m53 4v6c0 1.1-.9 2-2 2h-11l-2.6 3.47c-.25.33-.65.53-1.07.53-.73 0-1.33-.6-1.33-1.33v-10.67c0-1.1.9-2 2-2h14c1.1 0 2 .9 2 2z" fill="#ffeaa7"/></g><g><path d="m49 46v12h-14v-12h4z" fill="#e6e9ed"/></g><g><path d="m29 44.27v1.73h-2-14-8v-1.73c0-1.47.48-2.91 1.36-4.09 1.05-1.4 2.6-2.34 4.33-2.63l3.31-.55v1c0 1.66 1.34 3 3 3 .83 0 1.58-.34 2.12-.88s.88-1.29.88-2.12v-1l3.31.55c1.73.29 3.28 1.23 4.33 2.63.88 1.18 1.36 2.62 1.36 4.09z" fill="#4fc1e9"/></g><g><path d="m29 4v10.67c0 .73-.6 1.33-1.33 1.33-.42 0-.82-.2-1.07-.53l-2.6-3.47h-13c-1.1 0-2-.9-2-2v-6c0-1.1.9-2 2-2h16c1.1 0 2 .9 2 2z" fill="#ffeaa7"/></g><g><path d="m27 23.75v.86c0 .9-.32 1.76-.9 2.44l-.16.19c-.28-.16-.6-.24-.94-.24h-2l-2.23-.45c-1.8-.36-3.47-1.25-4.77-2.55-1.32 1.32-2.92 2.31-4.68 2.89l-.32.11h-2c-.24 0-.46.04-.67.12l-.76-1.21c-.37-.59-.57-1.28-.57-1.98 0-.86.29-1.67.79-2.31.51-.64 1.21-1.12 2.05-1.33l1.16-.29c.62-.94 1.46-1.68 2.43-2.2.96-.52 2.05-.8 3.18-.8h1.95c1.58 0 3.1.55 4.31 1.56l2.78 2.32c.86.71 1.35 1.76 1.35 2.87z" fill="#b27946"/></g><g><path d="m26.41 27.59c.37.36.59.86.59 1.41 0 1.1-.9 2-2 2h-2v-4h2c.34 0 .66.08.94.24.17.09.33.21.47.35z" fill="#f0d0b4"/></g><g><path d="m23 27v4c0 2.22-1.21 4.16-3 5.2-.88.51-1.9.8-3 .8s-2.12-.29-3-.8c-1.79-1.04-3-2.98-3-5.2v-4l.32-.11c1.76-.58 3.36-1.57 4.68-2.89 1.3 1.3 2.97 2.19 4.77 2.55z" fill="#f0d0b4"/></g><g><path d="m20 37v1c0 .83-.34 1.58-.88 2.12s-1.29.88-2.12.88c-1.66 0-3-1.34-3-3v-1-.8c.88.51 1.9.8 3 .8s2.12-.29 3-.8z" fill="#f0d0b4"/></g><g><path d="m11 27v4h-2c-.55 0-1.05-.22-1.41-.59-.37-.36-.59-.86-.59-1.41 0-.86.56-1.61 1.33-1.88.21-.08.43-.12.67-.12z" fill="#f0d0b4"/></g></g><g><path d="m60 42c0-.749-.22-1.443-.579-2.043 2.006-.213 3.579-1.895 3.579-3.957 0-1.86-1.276-3.428-3-3.874v-7.126c0-4.962-4.037-9-9-9h-9c-2.206 0-4 1.794-4 4 0 1.928 1.371 3.541 3.189 3.917-.939 1.538-2.189 3.978-2.189 6.083v.618l2 1v.764c0 1.379.767 2.619 2 3.236.5.25 1.06.382 1.618.382h1.382v2.242l-2.697.652c-2.896.724-4.958 3.186-5.245 6.106h-8.058v-.729c0-1.678-.555-3.343-1.563-4.687-1.21-1.615-2.974-2.687-4.966-3.019l-1.862-.31c1.224-1.075 2.068-2.567 2.311-4.255h1.08c1.654 0 3-1.346 3-3 0-.729-.272-1.389-.706-1.91.455-.742.706-1.597.706-2.476v-.859c0-1.413-.623-2.742-1.708-3.646l-2.778-2.315c-1.388-1.157-3.147-1.794-4.953-1.794h-1.955c-2.46 0-4.752 1.159-6.209 3.12l-.801.2c-2.117.53-3.596 2.423-3.596 4.605 0 .891.249 1.761.722 2.516l.234.375c-.585.548-.956 1.321-.956 2.184 0 1.654 1.346 3 3 3h1.08c.243 1.687 1.087 3.179 2.311 4.255l-1.862.31c-1.992.332-3.756 1.404-4.966 3.019-1.008 1.344-1.563 3.008-1.563 4.687v.729h-3v18h62v-18h-3zm-6 3v-3c0-1.103.897-2 2-2s2 .897 2 2v3zm-14-25c0-1.103.897-2 2-2h9c3.859 0 7 3.14 7 7v7.126c-1.724.445-3 2.013-3 3.874h2c0-1.103.897-2 2-2s2 .897 2 2-.897 2-2 2h-1.879c-1.102 0-2.136-.429-2.914-1.207-.767-.768-1.207-1.83-1.207-2.914v-1.643l.578-1.156c.276-.552.422-1.171.422-1.788v-.292c0-1.952-1.404-3.581-3.256-3.931l-.34-1.018c-.409-1.227-1.552-2.051-2.845-2.051h-5.559c-1.103 0-2-.897-2-2zm10 16v-2h-5.382c-.25 0-.5-.059-.724-.171-.551-.276-.894-.83-.894-1.447v-2l-1.955-.978c.266-1.882 1.66-4.23 2.47-5.404h4.044c.431 0 .813.275.949.684l.771 2.316h.721c1.103 0 2 .897 2 2v.292c0 .309-.073.618-.211.894l-.789 1.578v2.115c0 1.541.572 2.99 1.605 4.121h-4.605v-2zm-6.213 4.834 3.336-.834h5.433c-.344.591-.556 1.268-.556 2v3h-11.942c.275-2 1.725-3.665 3.729-4.166zm-7.787 6.166h12v10h-12zm-22 0h12v10h-12zm1-9.295c.634.19 1.305.295 2 .295s1.366-.105 2-.295v.295c0 1.103-.897 2-2 2s-2-.897-2-2zm10-7.705h-1v-2h1c.552 0 1 .449 1 1s-.448 1-1 1zm-17-1c0-.551.448-1 1-1h1v2h-1c-.552 0-1-.449-1-1zm2.837-3h-1.837c-.063 0-.122.015-.184.019l-.399-.638c-.272-.437-.417-.94-.417-1.456 0-1.263.855-2.358 2.08-2.665l1.537-.384.215-.322c1.066-1.6 2.851-2.555 4.773-2.555h1.955c1.34 0 2.644.472 3.673 1.33l2.778 2.315c.629.524.989 1.294.989 2.111v.859c0 .513-.149 1.012-.417 1.445-.189-.037-.383-.059-.583-.059h-1.901l-2.129-.426c-1.621-.324-3.095-1.113-4.263-2.281l-.707-.708-.707.708c-1.199 1.199-2.684 2.116-4.293 2.653zm1.163 5v-3.286c1.461-.537 2.826-1.341 4.006-2.357 1.316 1.092 2.879 1.839 4.571 2.178l1.423.285v3.18c0 2.757-2.243 5-5 5s-5-2.243-5-5zm-6 13.271c0-1.249.413-2.487 1.162-3.487.9-1.201 2.213-1.999 3.694-2.246l2.161-.36c.096 2.121 1.838 3.822 3.983 3.822s3.887-1.701 3.982-3.823l2.161.36c1.481.247 2.794 1.044 3.694 2.246.749 1 1.162 2.239 1.162 3.487v.73h-21.999zm55 16.729h-58v-14h9v12h16v-12h6v12h16v-12h11z"/><path d="m38 49h8v2h-8z"/><path d="m38 53h8v2h-8z"/><path d="m16 49h8v2h-8z"/><path d="m16 53h8v2h-8z"/><path d="m36.333 17c.73 0 1.429-.349 1.867-.933l2.3-3.067h10.5c1.654 0 3-1.346 3-3v-6c0-1.654-1.346-3-3-3h-14c-1.654 0-3 1.346-3 3v10.667c0 1.286 1.047 2.333 2.333 2.333zm-.333-13c0-.551.448-1 1-1h14c.552 0 1 .449 1 1v6c0 .551-.448 1-1 1h-11.5l-2.899 3.866c-.173.232-.601.09-.601-.199z"/><path d="m11 13h12.5l2.3 3.067c.438.584 1.137.933 1.867.933 1.286 0 2.333-1.047 2.333-2.333v-10.667c0-1.654-1.346-3-3-3h-16c-1.654 0-3 1.346-3 3v6c0 1.654 1.346 3 3 3zm-1-9c0-.551.448-1 1-1h16c.552 0 1 .449 1 1v10.667c0 .289-.428.431-.601.2l-2.899-3.867h-13.5c-.552 0-1-.449-1-1z"/><path d="m24 5h2v2h-2z"/><path d="m12 5h2v2h-2z"/><path d="m16 5h2v2h-2z"/><path d="m20 5h2v2h-2z"/><path d="m38 5h12v2h-12z"/></g></g></svg>