<svg id="Layer_1" enable-background="new 0 0 512 512" height="512" viewBox="0 0 512 512" width="512" xmlns="http://www.w3.org/2000/svg"><g><path d="m119.851 470.706c28.024 18.767 60.135 31.897 94.717 37.788h82.864c34.583-5.891 66.694-19.021 94.718-37.788l83.97-96.035c15.928-32.5 24.882-69.038 24.882-107.673 0-135.311-109.691-245.002-245.002-245.002s-245.002 109.691-245.002 245.002c0 38.634 8.955 75.172 24.882 107.672z" fill="#f964b2"/><path d="m60.447 414.599h391.105c9.902-13.098 18.52-27.219 25.663-42.182v-190.23c0-16.905-13.754-30.659-30.658-30.659h-381.114c-16.905 0-30.659 13.753-30.659 30.659v190.23c7.144 14.962 15.762 29.084 25.663 42.182z" fill="#2a428c"/><path d="m197.86 363.645c-15.664-15.664 0-27.53 0-27.53l24.975-70.769c-14.826-14.826-.097-27.035-.097-27.035-19.512-26.438 1.306-48.59 1.306-48.59l-6.248-13.906c-14.929-5.443-23.48-14.563-28.256-24.288h-124.097c-16.905 0-30.659 13.753-30.659 30.659v190.23c7.144 14.963 15.761 29.084 25.663 42.182h135.956c.886-1.165 1.456-1.796 1.456-1.796-23.417-23.417.001-49.157.001-49.157z" fill="#1c2e7a"/><path d="m446.557 171.282h-381.113c-5.912 0-10.905 4.994-10.905 10.905v224.243c1.917 2.764 3.884 5.489 5.909 8.169h391.105c2.026-2.679 3.992-5.405 5.909-8.168v-224.244c0-5.912-4.994-10.905-10.905-10.905z" fill="#4fabf7"/><path d="m197.86 363.645c-15.664-15.664 0-27.53 0-27.53l24.975-70.769c-14.826-14.826-.097-27.035-.097-27.035-19.512-26.438 1.306-48.59 1.306-48.59l-6.248-13.906c-3.597-1.312-6.82-2.839-9.713-4.535h-142.639c-5.912 0-10.906 4.994-10.906 10.905v224.243c1.917 2.764 3.884 5.489 5.909 8.169h135.956c.886-1.165 1.456-1.796 1.456-1.796-23.417-23.416.001-49.156.001-49.156z" fill="#1886ea"/><path d="m256 512c16.047 0 31.727-1.56 46.913-4.506-.003-.026-.008-.051-.012-.077l-4.979-37.152h-83.845l-4.979 37.152c-.003.026-.008.051-.012.076 15.187 2.947 30.867 4.507 46.914 4.507z" fill="#d3dcfb"/><path d="m244.301 509.536c.906-10.412 9.622-18.403 20.073-18.403h36.346l-2.797-20.867h-83.845l-4.979 37.152c-.003.026-.008.051-.012.076 11.414 2.214 23.107 3.644 35.025 4.219z" fill="#bec8f7"/><path d="m418.824 111.584c-10.342 0-18.879-7.628-20.353-17.56-1.474 9.932-10.012 17.56-20.353 17.56-10.341 0-18.879-7.628-20.353-17.56-1.474 9.932-10.012 17.56-20.353 17.56-10.342 0-18.879-7.628-20.353-17.56-1.474 9.932-10.011 17.56-20.353 17.56-10.341 0-18.879-7.628-20.353-17.56-1.474 9.932-10.012 17.56-20.353 17.56-10.341 0-18.878-7.628-20.353-17.56-1.474 9.932-10.011 17.56-20.353 17.56-10.342 0-18.879-7.628-20.353-17.56-1.474 9.932-10.011 17.56-20.353 17.56-10.342 0-18.879-7.628-20.353-17.56-1.474 9.932-10.011 17.56-20.353 17.56s-18.879-7.628-20.353-17.56c-1.474 9.932-10.011 17.56-20.353 17.56-4.523 0-8.692-1.475-12.09-3.946v306.96h348.505v-306.076c-3.135 1.93-6.815 3.062-10.767 3.062z" fill="#ffdd40"/><path d="m197.86 363.645c-15.664-15.664 0-27.53 0-27.53l24.975-70.769c-14.826-14.826-.097-27.035-.097-27.035-19.512-26.438 1.306-48.59 1.306-48.59l-6.248-13.906c-44.621-16.267-32.311-65.373-32.311-65.373l-1.02-1.405c-2.933 1.612-6.291 2.546-9.876 2.546-10.342 0-18.879-7.628-20.353-17.56-1.474 9.932-10.012 17.56-20.353 17.56-10.342 0-18.879-7.628-20.353-17.56-1.474 9.932-10.011 17.56-20.353 17.56-4.523 0-8.692-1.475-12.09-3.946v306.96h115.318c.886-1.165 1.456-1.796 1.456-1.796-23.419-23.416-.001-49.156-.001-49.156z" fill="#ffb332"/><path d="m415.793 0h-320.909c-7.621 0-13.799 6.178-13.799 13.799v29.315h348.505v-29.315c.001-7.621-6.177-13.799-13.797-13.799z" fill="#3c58a0"/><path d="m94.884 0c-7.621 0-13.798 6.178-13.798 13.799v29.315h94.206v-.954c-9.291-2.256-8.503-12.1-8.503-12.1v-17.006c-6.328-6.329 0-13.054 0-13.054z" fill="#1c2e7a"/><path d="m125.342 21.557c0 4.696-3.807 8.503-8.503 8.503s-8.503-3.807-8.503-8.503 3.807-8.503 8.503-8.503 8.503 3.807 8.503 8.503z" fill="#ff4155"/><path d="m150.317 21.557c0 4.696-3.807 8.503-8.503 8.503s-8.503-3.807-8.503-8.503 3.807-8.503 8.503-8.503 8.503 3.807 8.503 8.503z" fill="#ffdd40"/><path d="m175.292 21.557c0 4.696-3.807 8.503-8.503 8.503s-8.503-3.807-8.503-8.503 3.807-8.503 8.503-8.503 8.503 3.807 8.503 8.503z" fill="#56e28f"/><g><path d="m353.14 28.231h-153.135c-3.687 0-6.675-2.988-6.675-6.675s2.988-6.675 6.675-6.675h153.135c3.687 0 6.675 2.988 6.675 6.675s-2.988 6.675-6.675 6.675z" fill="#1c2e7a"/></g><g><path d="m396.899 28.231h-15.479c-3.687 0-6.675-2.988-6.675-6.675s2.988-6.675 6.675-6.675h15.479c3.687 0 6.675 2.988 6.675 6.675s-2.988 6.675-6.675 6.675z" fill="#1c2e7a"/></g><path d="m113.778 81.891v-39.731h-34.559c-3.67 0-6.645 2.976-6.645 6.645v33.086z" fill="#7255ce"/><path d="m72.574 79.984v12.997c0 11.379 9.224 20.603 20.602 20.603s20.602-9.224 20.602-20.603v-12.997z" fill="#4fabf7"/><path d="m113.28 42.16h41.205v39.731h-41.205z" fill="#4fabf7"/><path d="m113.28 79.984v12.997c0 11.379 9.224 20.603 20.602 20.603s20.602-9.224 20.602-20.603v-12.997z" fill="#7255ce"/><path d="m153.986 42.16h41.205v39.731h-41.205z" fill="#816ae2"/><path d="m153.986 81.891h21.306v-39.731h-21.306z" fill="#7255ce"/><path d="m153.986 79.984v12.997c0 11.379 9.224 20.603 20.602 20.603 11.378 0 20.602-9.224 20.602-20.603v-12.997z" fill="#73c3f9"/><path d="m153.986 79.984v12.997c0 11.379 9.224 20.603 20.602 20.603 4.006 0 7.733-1.162 10.896-3.14-4.187-1.08-6.696-4.172-8.172-7.145-1.387-2.794-2.02-5.901-2.02-9.02v-14.295z" fill="#4fabf7"/><path d="m194.692 42.16h41.205v39.731h-41.205z" fill="#73c3f9"/><path d="m194.692 79.984v12.997c0 11.379 9.224 20.603 20.602 20.603 11.378 0 20.602-9.224 20.602-20.603v-12.997z" fill="#816ae2"/><path d="m235.398 42.16h41.205v39.731h-41.205z" fill="#816ae2"/><path d="m235.398 79.984v12.997c0 11.379 9.224 20.603 20.602 20.603 11.378 0 20.602-9.224 20.602-20.603v-12.997z" fill="#73c3f9"/><path d="m276.104 42.16h41.205v39.731h-41.205z" fill="#73c3f9"/><path d="m276.104 79.984v12.997c0 11.379 9.224 20.603 20.602 20.603 11.378 0 20.602-9.224 20.602-20.603v-12.997z" fill="#816ae2"/><path d="m316.81 42.16h41.205v39.731h-41.205z" fill="#816ae2"/><path d="m316.81 79.984v12.997c0 11.379 9.224 20.603 20.602 20.603 11.378 0 20.602-9.224 20.602-20.603v-12.997z" fill="#73c3f9"/><path d="m357.516 42.16h41.205v39.731h-41.205z" fill="#73c3f9"/><path d="m357.516 79.984v12.997c0 11.379 9.224 20.603 20.602 20.603 11.378 0 20.602-9.224 20.602-20.603v-12.997z" fill="#816ae2"/><path d="m439.427 81.891v-33.085c0-3.67-2.975-6.645-6.645-6.645h-34.559v39.731h41.204z" fill="#816ae2"/><path d="m398.222 79.984v12.997c0 11.379 9.224 20.603 20.602 20.603 11.378 0 20.602-9.224 20.602-20.603v-12.997z" fill="#73c3f9"/><path d="m59.1 412.803c17.255 23.263 38.536 43.354 62.811 59.259h268.18c24.274-15.905 45.556-35.996 62.811-59.259z" fill="#e9efff"/><path d="m59.1 412.803c17.255 23.263 38.537 43.354 62.811 59.259h75.95c-26.223-30.355 0-59.259 0-59.259z" fill="#d3dcfb"/><ellipse cx="256" cy="442.432" fill="#bec8f7" rx="13.217" ry="13.217" transform="matrix(.23 -.973 .973 .23 -233.413 589.935)"/><g><path d="m384.91 254.746c-1.464 0-2.942-.428-4.24-1.319l-113.762-78.167c-6.525-4.483-15.291-4.483-21.816 0l-113.762 78.166c-3.412 2.346-8.084 1.48-10.429-1.934-2.346-3.414-1.479-8.083 1.935-10.429l113.762-78.167c11.605-7.974 27.199-7.974 38.805 0l113.762 78.167c3.414 2.346 4.28 7.015 1.935 10.429-1.455 2.116-3.802 3.254-6.19 3.254z" fill="#e9efff"/></g><path d="m390.918 363.645h-269.835c-6.6 0-12-5.4-12-12v-101.333c0-6.6 5.4-12 12-12h269.835c6.6 0 12 5.4 12 12v101.333c0 6.6-5.4 12-12 12z" fill="#ff4155"/><path d="m197.86 336.115 24.975-70.769c-14.826-14.826-.097-27.035-.097-27.035h-101.655c-6.6 0-12 5.4-12 12v101.333c0 6.6 5.4 12 12 12h76.777c-15.664-15.663 0-27.529 0-27.529z" fill="#e80054"/><g><g><g><path d="m200.528 336.608c-.888 0-1.79-.159-2.668-.493-3.871-1.474-5.815-5.807-4.34-9.678l21.125-55.468c.021-.057.044-.113.068-.17 1.352-3.309 4.538-5.45 8.113-5.453h.009c3.571 0 6.757 2.134 8.115 5.438.027.068.055.136.08.204l20.933 55.47c1.463 3.876-.493 8.203-4.368 9.665-3.873 1.463-8.203-.493-9.665-4.369l-15.123-40.072-15.27 40.093c-1.139 2.993-3.988 4.833-7.009 4.833z" fill="#e9efff"/></g><g><path d="m238.465 322.792h-31.349c-4.143 0-7.5-3.358-7.5-7.5s3.357-7.5 7.5-7.5h31.349c4.143 0 7.5 3.358 7.5 7.5s-3.357 7.5-7.5 7.5z" fill="#e9efff"/></g></g><g><g><path d="m272.275 336.61c-6.275 0-6.665-.067-7.2-.159-3.602-.616-6.235-3.739-6.235-7.393v-56.213c0-4.142 3.357-7.5 7.5-7.5 4.142 0 7.5 3.358 7.5 7.5v48.758c3.803-.006 8.448-.024 12.158-.045h.043c4.123 0 7.476 3.33 7.499 7.458.023 4.142-3.316 7.519-7.458 7.542-6.41.037-10.789.052-13.807.052z" fill="#e9efff"/></g></g><g><g><path d="m332.387 336.35h-23.489c-4.143 0-7.5-3.358-7.5-7.5v-55.747c0-4.142 3.357-7.5 7.5-7.5h23.489c4.143 0 7.5 3.358 7.5 7.5s-3.357 7.5-7.5 7.5h-15.989v40.747h15.989c4.143 0 7.5 3.358 7.5 7.5s-3.357 7.5-7.5 7.5z" fill="#e9efff"/></g><g><path d="m330.656 308.476h-21.758c-4.143 0-7.5-3.358-7.5-7.5s3.357-7.5 7.5-7.5h21.758c4.143 0 7.5 3.358 7.5 7.5s-3.357 7.5-7.5 7.5z" fill="#e9efff"/></g></g><g><g><path d="m166.38 336.606c-9.769 0-18.94-3.938-25.163-10.803-2.781-3.069-2.548-7.812.521-10.594 3.067-2.78 7.811-2.55 10.594.521 3.334 3.68 8.586 5.876 14.048 5.876 5.191 0 8.84-3.056 9.367-6.011.704-3.942-5.239-6.461-7.078-7.139-8.739-3.224-16.501-6.678-16.827-6.824-.361-.161-.709-.351-1.04-.567-6.087-3.968-9.223-10.926-8.184-18.159 1.104-7.697 6.725-13.965 14.668-16.358 15.607-4.703 28.45 5.887 28.989 6.34 3.171 2.665 3.58 7.397.915 10.567-2.653 3.156-7.354 3.577-10.525.95-.199-.159-7.363-5.809-15.053-3.495-3.354 1.01-4.017 3.222-4.146 4.127-.09.624-.136 2.111 1.162 3.193 2.037.891 8.402 3.633 15.232 6.152 14.465 5.336 18.087 15.818 16.653 23.849-1.901 10.648-12.05 18.375-24.133 18.375z" fill="#e9efff"/></g></g><g><path d="m365.226 336.35c-4.143 0-7.5-3.358-7.5-7.5v-1.343c0-4.142 3.357-7.5 7.5-7.5s7.5 3.358 7.5 7.5v1.343c0 4.142-3.357 7.5-7.5 7.5z" fill="#e9efff"/></g><g><path d="m365.226 311.453c-4.143 0-7.5-3.358-7.5-7.5v-30.85c0-4.142 3.357-7.5 7.5-7.5s7.5 3.358 7.5 7.5v30.85c0 4.142-3.357 7.5-7.5 7.5z" fill="#e9efff"/></g></g><ellipse cx="256" cy="162.665" fill="#ff4155" rx="18.555" ry="18.555" transform="matrix(.23 -.973 .973 .23 38.87 374.445)"/><path d="m268.028 159.512c0 5.124-4.154 9.278-9.278 9.278s-9.278-4.154-9.278-9.278 4.154-9.278 9.278-9.278c5.124.001 9.278 4.155 9.278 9.278z" fill="#ff7186"/></g></svg>