<?xml version="1.0" encoding="UTF-8"?> <svg xmlns="http://www.w3.org/2000/svg" xmlns:cc="http://creativecommons.org/ns#" xmlns:dc="http://purl.org/dc/elements/1.1/" xmlns:rdf="http://www.w3.org/1999/02/22-rdf-syntax-ns#" viewBox="0 0 1011 941"><path d="m333.95 677.82c-7.4282-1.7932-10.943-6.2546-10.943-13.892 0-6.6987 2.2376-10.832 7.275-13.437 7.4921-3.8749 17.528-2.3194 22.861 3.5432 3.532 3.8831 4.1511 12.552 1.2327 17.262-3.6151 5.8332-12.083 8.5378-20.426 6.5237zm14.767-6.6331c3.6792-4.3363 3.3964-11.435-0.61749-15.504-2.6134-2.6494-3.8446-3.0883-8.6633-3.0883-4.8718 0-6.0116 0.41753-8.591 3.147-2.4044 2.5442-2.974 4.0937-2.974 8.0893 0 4.2599 0.47593 5.3733 3.4474 8.0649 3.1377 2.8422 3.9648 3.0792 9.2085 2.6383 4.6369-0.38983 6.2352-1.043 8.19-3.3469zm76.942 6.8139-12.506-0.57823v-28.943l12.768-0.31968 12.768-0.31967 3.8e-4 2.6413 3.7e-4 2.6413-10.424-0.33429-10.424-0.33431v8.7659l7.2974-0.35083c7.1814-0.34525 7.2974-0.30885 7.2974 2.2905 0 2.6015-0.11104 2.636-7.3616 2.2879l-7.3616-0.35338 0.32476 4.5795 0.32476 4.5795h10.683c10.385 0 10.683 0.0665 10.682 2.3772-7.5e-4 1.3074-0.35309 2.2808-0.78297 2.163-0.42989-0.11779-6.4092-0.47436-13.287-0.7924zm235.29 0.0201c-5.0814-1.2834-8.6349-4.065-10.274-8.0422-4.5994-11.16 2.9225-21.605 15.562-21.609 10.224-3e-3 16.3 5.643 16.307 15.155 0 5.8158-2.1344 10.211-6.1297 12.597-3.4537 2.0625-11.1 3.0013-15.465 1.8989zm13.8-6.4264c3.3759-3.2152 4.21-8.151 2.201-13.025-1.8324-4.4461-4.8381-5.975-11.746-5.975-3.8074 0-5.2816 0.58756-7.7483 3.0883-4.9303 4.9983-3.751 14.149 2.2792 17.685 3.7181 2.1802 11.875 1.2168 15.014-1.7733zm72.436 6.3769c-6.1512-1.5416-7.3202-4.0805-7.3202-15.899 0-5.699-0.28461-11.114-0.63259-12.033-0.48574-1.2833 0.0584-1.6717 2.3448-1.6734l2.9774-2e-3 -0.31567 10.832c-0.40477 13.887 0.28972 15.058 8.9298 15.058 9.3468 0 9.8116-0.71233 9.4248-14.447l-0.32234-11.443 3.1264-5e-5 3.1264-5e-5 -0.57047 11.888c-0.61101 12.733-1.0266 14.439-3.9715 16.304-2.6483 1.6767-12.457 2.5034-16.797 1.4158zm87.515 0.041c-1.433-0.40971-4.1295-1.126-5.9924-1.5918s-3.387-1.4098-3.387-2.0977c0-1.7739 3.0518-5.6984 3.0933-3.9779 0.0479 1.9889 6.5316 4.4363 11.753 4.4363 5.1091 0 9.1236-2.3344 9.1236-5.3054 0-2.9245-3.1655-4.2034-10.405-4.2034-3.7253 0-7.6744-0.68216-9.505-1.6419-2.8119-1.4742-3.0994-2.084-2.8141-5.9694 0.47136-6.4207 4.0944-8.801 13.158-8.645 3.8282 0.0659 8.4346 0.30361 10.237 0.52826 3.215 0.40082 3.2486 0.46286 1.7945 3.3188-1.4513 2.8502-1.5377 2.8733-4.1809 1.1175-3.7293-2.4772-12.14-2.3877-14.916 0.15884-4.7516 4.3594-1.0734 6.9068 9.9726 6.9068 5.7808 0 7.1218 0.37349 9.3115 2.5933 7.7841 7.8915-4.3974 18.045-17.243 14.373zm89.94 0.20614-12.712-0.33189-0.31504-14.704-0.31514-14.704 12.768-0.31896 12.768-0.31894 4.2e-4 2.6413 4.2e-4 2.6413-9.9027-0.33663-9.9028-0.33663v8.7706l7.2974-0.35083c7.1813-0.34525 7.2973-0.30884 7.2973 2.2905 0 2.5993-0.11599 2.6357-7.2973 2.2905l-7.2974-0.35082v9.8744l10.944-0.36031c10.76-0.35424 10.944-0.32036 10.943 2.0169-6.2e-4 1.3074-0.35287 2.2744-0.78276 2.1487-0.42988-0.12564-6.5019-0.3778-13.493-0.56034zm-855.84-14.087c3.4083-7.6004 5.9301-14.256 5.604-14.791-0.32607-0.53486 1.3384-0.97249 3.6988-0.97249s4.0335 0.42341 3.718 0.94089c-0.31548 0.51749 2.4588 7.1736 6.165 14.791l6.7386 13.85h-2.8907c-2.3577 0-3.1339-0.68186-4.2097-3.6978l-1.319-3.6978h-16.121l-1.319 3.6978c-1.0026 2.8108-1.9119 3.6978-3.7906 3.6978-2.4109 0-2.3193-0.33973 3.7253-13.819zm14.218 0.87643c-3.2142-8.1913-4.2179-10.301-4.9003-10.301-0.7121 0-5.2259 9.5229-5.2259 11.025 0 0.3281 2.395 0.59654 5.3222 0.59654 3.8394 0 5.1779-0.36795 4.804-1.3207zm68.903-0.3134c0.25225-9.6498-0.0161-13.702-0.98552-14.886-1.1897-1.4533 0.0365-1.5891 11.472-1.2699 12.084 0.33723 12.919 0.50132 14.846 2.9169 3.1241 3.9156 2.272 9.4685-1.8874 12.3l-3.3041 2.2493 2.0508 3.0673c1.128 1.687 2.7441 4.3748 3.5914 5.9728 1.5237 2.8735 1.506 2.9054-1.6126 2.9054-1.7343 0-3.1532-0.46829-3.1532-1.0407 0-0.57235-1.4471-3.425-3.2158-6.3391-3.1681-5.2198-3.2932-5.2985-8.4298-5.2985h-5.2139l0.3531 6.3411c0.34274 6.155 0.27666 6.341-2.2523 6.3406l-2.6054-4.5e-4zm19.966-3.9548c2.9857-1.5314 3.8723-4.3883 2.052-6.6119-0.90332-1.1035-3.5601-1.534-9.4654-1.534h-8.2096v4.05c0 2.2275 0.31264 4.367 0.69477 4.7544 1.2027 1.2193 12.214 0.73363 14.928-0.65841zm65.459 2.4176-0.31547-14.793 9.9004 0.0249c12.193 0.0306 17.515 2.0559 20.14 7.664 3.4655 7.4038 1.3383 17.247-4.3743 20.242-2.2773 1.1939-6.2044 1.6549-14.096 1.6549h-10.939zm22.247 10.482c3.1317-1.6992 5.32-7.8706 4.5113-12.723-1.0527-6.3168-4.3461-8.3223-13.667-8.3223h-7.6756v22.187h7.3636c4.05 0 8.3104-0.5137 9.4676-1.1416zm302.59-10.48v-14.791l3.6475 0.0834c2.0061 0.0459 3.0613 0.32322 2.3448 0.61631-0.81713 0.33426-1.3027 2.666-1.3027 6.2557v5.7228h19.986l-0.3531-6.3411-0.3531-6.3411 3.1264 2.1e-4 3.1264 2.1e-4 -0.31546 14.793-0.31547 14.793h-2.5504c-2.4224 5e-5 -2.5504-0.3181-2.5504-6.3391v-6.3392h-19.986l0.3531 6.3411c0.34276 6.1553 0.27678 6.341-2.2523 6.3391l-2.6054-2e-3v-14.791zm-443.96-151.7c-41.258-7.3623-70.307-31.157-78.713-64.476-3.9065-15.485-2.5493-37.365 3.3235-53.575l2.2288-6.1522-5.6268-4.8382c-17.878-15.373-43.152-45.458-41.065-48.882 1.0379-1.7025 3.5682 0.57255 15.916 14.311 9.7413 10.838 30.894 30.964 33.596 31.965 0.48254 0.17888 2.8637-2.6401 5.2914-6.2644 14.703-21.95 41.923-38.598 75.267-46.035 13.197-2.9434 46.372-2.6411 61.169 0.55741 22.551 4.8747 40.489 11.973 81.288 32.163 34.138 16.895 46.162 21.429 65.134 24.563 25.171 4.1584 63.302-1.5449 88.876-13.293 5.888-2.7049 6.4829-3.262 5.9183-5.5425-0.34522-1.3945-0.7116-7.833-0.81417-14.308-0.10255-6.4749-0.37412-11.775-0.60346-11.779-0.22933-3e-3 -4.1725 2.4358-8.7625 5.4209-35.007 22.766-70.529 27.804-107.53 15.25-16.281-5.5232-37.601-17.063-45.602-24.683-6.501-6.1915-1.8751-5.9356 12.535 0.69337 20.166 9.2771 34.958 13.12 58.221 15.126 12.718 1.0966 16.681 1.0291 28.881-0.49184 21.538-2.685 47.143-9.7431 59.238-16.329 3.7867-2.0619 5.0468-3.414 5.5559-5.9616 0.36213-1.8122 3.9599-15.656 7.995-30.764 7.4752-27.989 9.9488-34.41 18.314-47.544 12.709-19.952 19.082-31.33 18.532-33.087-0.32022-1.0228-2.579-3.5518-5.0195-5.62-5.5678-4.7183-9.8867-12.659-11.226-20.639-0.56852-3.3873-1.264-7.5309-1.5454-9.208l-0.51175-3.0494 4.9525 0.67422c6.5755 0.89516 16.172 5.7753 23.015 11.704 5.9885 5.1884 7.5297 5.7029 9.5801 3.1983 1.0982-1.3414 0.89866-2.0804-1.1751-4.3525-6.5057-7.1281-16.395-11.278-33.555-14.081-20.433-3.3373-31.119-7.4631-44.742-17.275-8.2979-5.9768-15-8.375-19.637-7.0267-2.2927 0.6666-7.4957 5.2335-15.989 14.034-12.358 12.806-12.875 13.197-28.034 21.256-15.542 8.2623-21.141 10.188-10.91 3.7531 16.822-10.581 22.067-14.504 27.942-20.904 14.204-15.473 16.262-17.406 21.267-19.978l5.1952-2.6689-2.4166-1.9838c-1.3291-1.0911-3.0321-1.9838-3.7844-1.9838-2.3024 0-7.6137 5.1853-13.952 13.621-6.6728 8.8809-18.028 20.179-25.564 25.435-7.8036 5.4431-6.6254 2.9395 1.4024-2.98 4.0091-2.9562 10.246-9.0318 13.861-13.502 3.6143-4.4697 9.5469-11.647 13.184-15.949 6.2644-7.4112 6.5207-7.925 4.8732-9.7706-2.401-2.6897-30.296-22.516-35.651-25.338-4.2583-2.2447-6.8016-2.6391-39.926-6.1918-12.014-1.2886-14.921-0.23915-19.958 7.2059-10.157 15.014-25.039 21.163-36.859 15.232-6.4651-3.2444-5.9291-4.7674 1.4044-3.9903 9.5934 1.0165 13.28-1.3004 25.868-16.258 11.261-13.381 12.87-15.795 12.87-19.323 0-1.26-1.9238-6.4022-4.2752-11.427-7.2296-15.45-10.425-26.028-11.058-36.606-0.31304-5.2298-0.34345-9.271-0.0676-8.9805 0.27588 0.29054 1.7569 3.3809 3.2912 6.8674l2.7897 6.3391-2.6275-3.1696c-2.3471-2.8313-2.1758-2.0522 1.6048 7.2994 2.3278 5.7579 5.9032 15.029 7.9455 20.602 4.0431 11.034 11.613 22.633 16.77 25.697 3.7516 2.2291 15.713 3.3779 22.103 2.1228l4.6897-0.9211-6.774-1.1749c-3.7257-0.64619-8.805-1.4952-11.287-1.8868-5.1695-0.81538-10.119-4.7431-14.953-11.866-3.3379-4.9184-11.676-23.444-10.905-24.227 0.51779-0.52493 5.397 8.0565 9.6001 16.885 6.541 13.738 22.157 22.173 34.708 18.746 5.9353-1.6203 8.4687-4.3799 8.4687-9.2251 0-7.5046-6.412-43.059-9.5725-53.079-1.7527-5.5569-5.2694-14.313-7.8147-19.458-2.5454-5.1451-4.3755-9.6106-4.067-9.9234 0.89286-0.90517 3.7377 1.9402 3.7377 3.7384 0 0.89876 1.3702 4.0955 3.045 7.1039 2.8866 5.1854 5.6958 13.606 19.369 58.064 3.2121 10.444 6.0485 19.2 6.303 19.458 1.3138 1.332 1.2597-1.077-0.12897-5.7431-0.85657-2.8783-3.4742-13.791-5.8168-24.251-4.8277-21.555-8.3164-32.075-14.493-43.7-3.225-6.0702-3.6295-7.2846-1.6324-4.9005 6.9273 8.2697 12.845 23.487 17.871 45.959 7.7425 34.614 15.902 47.509 41.028 64.843 3.092 2.1331 5.8552 3.6418 6.1403 3.3527s-1.8892-4.0565-4.832-8.372c-10.536-15.452-16.283-31.68-15.589-44.026l0.32176-5.7281 4.6897 11.044c4.5037 10.606 16.578 30.675 20.379 33.874 1.7267 1.4528 1.7847 0.9233 1.0747-9.8216-1.1862-17.953 0.32786-15.844 9.9356 13.838 2.5105 7.756 5.268 14.44 6.1278 14.854 0.85977 0.41372 8.4644 0.4863 16.899 0.1613 11.862-0.45706 15.7-0.96054 16.944-2.2228 4.3898-4.4543 6.2515-37.238 3.1414-55.319-0.86617-5.0355-2.9534-13.501-4.6382-18.813-1.6848-5.3115-2.7992-10.091-2.4763-10.62 1.1202-1.8375 7.5769 5.9259 11.131 13.383 4.8419 10.161 5.6498 14.171 8.5261 42.327 1.3673 13.384 3.1865 26.666 4.0428 29.515 3.0725 10.225 11.504 19.647 17.581 19.647 3.6287 0 6.5076-3.2846 9.2011-10.498 1.7878-4.7877 2.0965-7.3973 1.664-14.066-0.29205-4.5034-0.13297-8.1881 0.35351-8.1881 1.4743 0 4.0063 4.3552 5.8077 9.9894 2.1515 6.7296 2.7864 7.408 4.7641 5.091 2.9664-3.4754 3.9789-8.999 3.9789-21.707 0-11.386 0.16382-12.512 1.6394-11.271 0.90167 0.75863 2.5943 3.2769 3.7614 5.5962 1.8243 3.6252 2.0553 5.6364 1.6464 14.334-0.61172 13.012-3.2149 20.364-14.497 40.947-1.3317 2.4293-2.1352 4.7068-1.7857 5.0612 0.72039 0.73033 43.56-18.148 50.389-22.205 2.4506-1.4559 5.8006-4.6204 7.4446-7.0321 2.9348-4.3055 2.9882-4.6422 2.9419-18.569l-0.0471-14.184 2.4845 6.71c3.3671 9.0936 2.9744 19.252-1.048 27.112-3.5907 7.0164-2.0693 7.111 2.3396 0.14562 2.7172-4.2928 3.4777-6.7492 3.8876-12.556 0.43866-6.2154 0.12869-8.0629-2.2285-13.283-1.9984-4.4253-2.2718-5.6712-1.0122-4.6121 4.9901 4.1955 5.7198 14.022 2.3035 31.019-2.3566 11.724-1.9584 14.278 2.226 14.278 2.4556 0 3.4847-1.501 6.1576-8.9804l2.2654-6.3391-0.43811 5.0378c-0.26679 3.0677-1.5062 6.6741-3.1694 9.2219-3.2147 4.9248-3.2821 5.2859-0.98635 5.2859 1.4334 0 1.2939 0.49549-0.78161 2.7757l-2.5265 2.7757 3.6475-1.864c13.096-6.6922 22.199-20.015 19.814-28.996-2.0197-7.604-3.6589-6.9952-3.6744 1.3645-0.0113 6.0941-0.51643 8.4622-2.5942 12.161-2.3009 4.0966-7.7611 8.4896-8.996 7.2376-0.25735-0.26091 0.0172-3.5052 0.61005-7.2094 1.356-8.472 1.3677-10.729 0.0516-9.9046-0.61333 0.38429-1.0422-0.76381-1.0422-2.7903 0-2.7521 0.26148-3.1791 1.3027-2.1272 0.74368 0.75128 1.5263 5.2291 1.8238 10.435l0.52107 9.1189 3.066-4.4982c4.0782-5.9831 4.7012-14.02 1.7489-22.561-1.9981-5.7802-2.0073-6.0314-0.18431-5.0423 5.852 3.1751 10.062 12.707 9.1675 20.754-0.73944 6.6508-11.963 23.419-17.682 26.417-1.7257 0.90468-11.209 4.637-21.075 8.2941-16.32 6.0498-25.459 10.468-27.05 13.078-0.98142 1.6099 1.4922 3.0221 16.148 9.2188 19.083 8.0689 27.039 10.621 37.425 12.006 27.353 3.648 28.054 3.956 29.213 12.839 0.86626 6.6413 0.46343 7.6205-6.8079 16.549-6.1702 7.576-11.253 10.829-16.921 10.829-2.2724 0-5.5707 0.50856-7.3295 1.1301-3.4907 1.2336-24.034 23.002-26.771 28.366-0.8958 1.7562-2.4544 3.6411-3.4636 4.1886-2.0975 1.138-5.9574 11.096-4.9448 12.757 0.40914 0.67115 5.878 1.1013 14.002 1.1013 7.332 0 14.691 0.44039 16.352 0.97865 1.6618 0.53825 10.604 3.4147 19.872 6.3921 15.861 5.0956 17.1 5.6881 21.104 10.091 3.8345 4.2174 5.245 6.8381 3.6803 6.8381-2.0501 0-6.828-3.6339-7.979-6.0686-1.1732-2.4815-2.2171-3.0129-7.1446-3.6369-3.4449-0.43625-9.3201-2.4899-14.577-5.0954-8.7409-4.332-8.8808-4.3616-18.707-3.9638-10.688 0.43278-16.319 2.4716-22.239 8.0516-7.917 7.4628-7.9218 13.644-0.0237 29.835 3.2316 6.625 7.4064 15.449 9.2772 19.61 3.1021 6.8986 3.8464 7.767 8.4539 9.8644 35.558 16.186 76.83 21.022 107.58 12.604 12.86-3.5201 26.749-9.222 48.061-19.731 44.3-21.844 52.699-25.463 71.387-30.759 42.291-11.984 84.309-7.3203 118.47 13.149 9.6046 5.7551 29.006 24.398 32.619 31.344 1.1334 2.1791 2.4881 3.962 3.0104 3.962 2.7976 0 24.559-20.426 40.5-38.014 6.6797-7.3701 9.3853-9.7051 10.241-8.8377 0.8555 0.86732 0.4504 2.3226-1.5332 5.5082-4.6344 7.4425-20.574 25.544-32.879 37.338l-11.804 11.313 2.6828 8.2324c4.097 12.572 5.2568 21.343 4.6381 35.079-0.99973 22.196-7.1078 36.204-22.613 51.864-10.497 10.601-16.649 14.841-29.925 20.624-18.715 8.1518-34.451 10.538-63.903 9.6896-25.467-0.73341-41.995-3.2782-59.402-9.146-12.938-4.3613-29.259-11.85-31.325-14.373-2.7593-3.3707 0.5415-2.6953 11.782 2.4108 15.277 6.9393 29.459 11.483 44.439 14.236 10.044 1.8461 16.528 2.2428 38.154 2.334 24.164 0.10196 26.772-0.0722 35.954-2.401 27.406-6.9507 46.37-19.646 58.588-39.222 12.468-19.976 14.747-45.773 5.8892-66.648-1.2126-2.8577-2.6849-5.1957-3.2717-5.1957-0.58693 0-2.9912 1.5709-5.343 3.4909-14.853 12.126-35.736 25.463-55.821 35.65-62.359 31.629-128.86 41.547-204.58 30.513-44.919-6.5453-84.465-22.449-115.55-46.469l-7.9683-6.1572-1.1829 4.7627c-1.7751 7.1467-2.5591 23.7-1.279 27.003 0.77518 2.0001 4.4323 4.8411 12.417 9.6461 24.989 15.038 43.447 23.884 66.718 31.975 8.7239 3.033 11.671 4.5033 11.427 5.7005-0.41623 2.0409-4.7358 1.7849-19.535-1.1577-21.902-4.355-44.569-13.075-62.236-23.942-7.7377-4.7596-8.6257-5.0762-9.189-3.2768-0.5615 1.7935-1.7725 1.992-12.154 1.992-10.731 0-12.333-0.28571-23.118-4.1252-6.3732-2.2689-12.408-4.4592-13.411-4.8674-1.4577-0.59323-1.8238-0.18939-1.8238 2.0122 0 1.9277-0.54736 2.7474-1.8238 2.7312-2.8029-0.0356-10.403-3.815-15.904-7.909-5.3569-3.9866-6.3962-4.4129-5.775-2.3689 1.2159 4.0013 1.5484 7.1315 0.75742 7.1315-0.49492 0-3.5794-2.3772-6.8545-5.2826-6.3307-5.6162-8.9598-6.5646-8.9598-3.2319 0 3.3645-1.919 3.5446-4.563 0.42839l-2.4825-2.9258-7.3952 6.1337c-16.197 13.434-41.195 26.303-64.046 32.971-14.199 4.1432-34.345 8.0596-36.715 7.1374-2.7993-1.089-1.0193-2.9412 4.8149-5.0099 26.55-9.4144 43.365-17.143 64.532-29.66 13.011-7.6939 32.307-20.414 32.307-21.298 0-1.109-14.818-22.58-15.583-22.58-0.43518 0-2.8709 1.6098-5.4127 3.5774-15.51 12.006-40.668 25.761-59.77 32.68-32.639 11.821-63.507 17.199-105.26 18.339-49.268 1.345-89.785-5.8142-132.87-23.478-26.015-10.665-56.62-28.658-78.9-46.386l-6.0094-4.7816-2.3807 4.749c-4.4731 8.923-5.7672 16.711-5.1758 31.149 0.58765 14.346 2.4794 21.898 8.2524 32.94 8.4216 16.108 24.494 29.959 43.908 37.84 16.457 6.6804 24.475 7.8856 52.291 7.8589 21.246-0.0204 27.001-0.38154 38.225-2.399 16.652-2.9931 30.674-7.4076 44.519-14.016 5.9596-2.8445 11.509-5.1718 12.332-5.1718 6.9526 0-14.964 11.726-32.439 17.356-13.256 4.2706-24.408 6.4553-40.752 7.9838-15.923 1.4891-43.155 1.1798-53.15-0.60356zm180.81-63.878c51.881-3.7291 93.502-16.523 129.59-39.835 6.0539-3.9104 7.0463-4.9643 6.5231-6.9275-0.33935-1.2735-1.154-6.4936-1.8103-11.6-0.65631-5.1066-1.4894-9.1479-1.8512-8.9804-0.36183 0.16742-5.6139 2.7984-11.671 5.8466-27.626 13.902-64.884 21.624-96.293 19.957-26.356-1.3987-43.259-7.0294-90.146-30.03-20.455-10.034-31.448-14.701-44.85-19.04-18.037-5.8402-26.555-7.0666-48.422-6.9719-17.797 0.077-20.811 0.35955-29.778 2.792-13.373 3.6274-24.023 8.2432-33.357 14.458-8.4433 5.6214-20.244 17.383-19.184 19.121 1.0364 1.7002 17.608 12.749 29.691 19.796 39.265 22.9 90.019 37.433 144.58 41.4 16.907 1.2293 49.974 1.2365 66.974 0.0146zm-53.156-15.287c-1.5041-4.6203-6.4575-10.585-10.589-12.751-2.6049-1.3656-3.0653-1.3701-3.5706-0.0351-0.31908 0.84299-2.4226 2.8272-4.6745 4.4092-5.3244 3.7407-14.005 4.1669-18.322 0.89963-4.5506-3.4444-6.7999-7.2414-7.3799-12.458-0.3576-3.2164-1.0391-4.875-2.0032-4.875-3.2192 0-8.9239 3.3068-14.017 8.1248-4.9738 4.7055-5.4577 4.9347-6.5355 3.0962-5.1043-8.7073-16.291-18.532-27.739-24.36-16.136-8.2157-30.053-12.064-47.418-13.111-9.1921-0.55432-11.464-1.0053-11.464-2.2761 0-1.1723 2.17-1.9106 8.3372-2.8367 12.475-1.8733 22.383-1.6305 38.559 0.94516 11.153 1.7759 19.294 2.3345 34.56 2.3715l19.969 0.0484 0.64061 4.0589c0.80361 5.0917 3.7867 11.066 7.0818 14.183l2.5306 2.3936 1.9999-2.2753c7.112-8.0912 21.779-6.04 26.428 3.6961 1.1808 2.4729 2.1469 5.0592 2.1469 5.7474s0.82069 1.2466 1.8238 1.2409c2.9051-0.0165 12.026-4.7513 14.583-7.5702l2.3378-2.5775 5.221 4.9693c9.5677 9.1065 26.926 16.098 47.175 19.001 9.6708 1.3863 33.409 1.745 36.982 0.55888 4.3769-1.4528 2.4791 1.5358-2.3506 3.7016-9.1597 4.1076-18.911 5.1712-47.412 5.1712-25.167 0-37.231 1.0119-43.926 3.6846-1.3064 0.5215-2.0212-0.24096-2.9762-3.1745zm541.92 13.806c46.312-5.432 84.362-16.777 120.62-35.964 12.703-6.7218 34.473-20.48 36.688-23.186 0.86269-1.0538 0.0229-2.6362-3.5175-6.6283-26.199-29.542-76.2-38.95-125.3-23.576-11.753 3.6802-24.798 9.2724-49.337 21.15-50.334 24.364-68.979 29.555-101.15 28.163-31.998-1.384-60.509-8.7693-86.343-22.366-4.8676-2.5618-8.9091-4.5564-8.9812-4.4324s-1.0944 4.029-2.2719 8.6776c-1.1774 4.6487-2.466 9.4495-2.8636 10.668-0.6215 1.9058 0.56615 3.0678 8.4761 8.2935 12.195 8.0568 37.796 20.655 51.406 25.297 22.416 7.6452 49.949 13.105 77.64 15.395 16.63 1.3754 68.213 0.46916 84.935-1.4922zm-38.038-11.948c-3.9064-1.1963-13.689-1.7906-39.081-2.3744-34.695-0.79765-40.843-1.538-49.212-5.9259-3.952-2.0718-3.6822-3.7953 0.492-3.1426 9.7255 1.5209 13.839 1.626 25.524 0.65182 28.514-2.3772 47.704-9.1463 58.993-20.809l4.2626-4.4037 4.055 3.714c6.3117 5.7809 14.246 8.5507 14.246 4.9732 0-3.0492 4.285-9.5302 7.6538-11.576 2.2471-1.3647 5.2948-2.0038 9.6228-2.0179 5.4096-0.0176 6.9157 0.42921 10.32 3.0616l3.986 3.0822 3.4123-3.7748c3.2617-3.6082 5.6298-9.4872 5.6439-14.011 0.0104-2.0414 0.72179-2.1149 21.109-2.1684 15.135-0.0396 23.755-0.55685 30.482-1.8289 14.697-2.7792 26.401-3.3344 38.469-1.8249 5.9678 0.74642 11.478 1.7675 12.244 2.269 2.5904 1.6946-1.3551 2.9918-9.1516 3.0088-29.051 0.0634-63.403 15.904-75.486 34.809l-3.2784 5.1292-3.6116-4.0527c-3.4213-3.8391-12.727-9.4563-15.666-9.4563-0.759 0-1.3586 1.1807-1.3586 2.6752 0 6.8516-5.6837 14.316-12.394 16.278-5.4258 1.5861-12.759-0.42046-17.078-4.6731l-3.6006-3.5451-3.2859 2.0258c-3.1202 1.9236-8.7783 9.6963-10.076 13.841-0.6849 2.1876-0.31765 2.1843-7.2357 0.0657zm-273.56 0.40376c0-0.57799-0.88437-2.0324-1.9653-3.232-1.6162-1.7937-7.8301-20.601-7.0634-21.378 0.12616-0.12789 2.2092 2.6923 4.629 6.267 3.3421 4.9372 4.3997 5.9309 4.3997 4.134 0-4.455-3.0747-9.8217-9.5346-16.642l-6.463-6.8234 4.4823 1.6033c2.4653 0.8818 4.7292 1.6033 5.031 1.6033 0.30177 0-2.064-2.7768-5.2572-6.1708-11.34-12.053-17.203-23.997-18.964-38.637-0.51502-4.2813-1.0436-5.7759-1.6815-4.7544-0.51168 0.81945-0.93753 2.6547-0.9463 4.0784-0.0104 1.6893-0.37051 2.229-1.0366 1.5537-1.7655-1.7898-3.4014-17.504-2.7825-26.727 0.32664-4.8678 0.32518-8.578-3e-3 -8.2451-1.2667 1.2842-3.4067 14.421-4.0904 25.11-0.76366 11.939 0.29039 30.656 1.605 28.499 1.2766-2.094 2.1232 1.4342 2.1232 8.848 0 8.7027 1.149 19.614 2.0655 19.614 0.39953 0 1.3244-1.3074 2.0553-2.9054 1.2929-2.8267 1.3519-2.844 2.1786-0.63638 1.2558 3.3535 2.6648 3.8138 6.1241 2.0002 1.7079-0.89538 3.4139-1.628 3.7911-1.628 0.62747 0 0.15564 2.955-1.2231 7.6598-0.3932 1.3418 0.0492 1.8489 1.6127 1.8489 1.2204 0 2.1545 0.68713 2.1545 1.5848 0 0.87382 0.92349 1.5848 2.0585 1.5848 1.779 0 1.9205 0.3679 1.0422 2.7101-1.3443 3.5845-1.3322 3.629 0.98271 3.629 5.6151 0 6.6122 2.5529 3.2078 8.2136-2.7189 4.5209-2.6247 5.3337 0.54697 4.719 2.4699-0.47867 2.5636-0.33915 1.5632 2.3283-1.6857 4.4949-1.3701 4.7179 4.1466 2.9294 2.8659-0.92912 5.2107-2.1622 5.2107-2.7402zm7.2226-3.2622c8.234-4.3167 10.992-12.381 7.6016-22.225l-2.1836-6.3392 3.0309 3.6978c1.667 2.0338 3.0436 4.0825 3.059 4.5526 0.0154 0.47011 0.497 0.56091 1.0702 0.20177 0.57318-0.35913 1.0422-2.9357 1.0422-5.7258s0.31302-7.388 0.6956-10.218l0.69561-5.145 1.2329 3.6768 1.2329 3.6768 4.2964-8.6364c4.4348-8.9146 6.4134-11.382 6.4684-8.0662 0.0288 1.7358 0.1454 1.7172 1.27-0.20178 1.657-2.8276 1.6486-19.98-0.0126-25.521-0.72396-2.4146-2.1357-5.4161-3.1372-6.6699-1.7634-2.2078-1.809-2.016-1.4466 6.0764 0.49179 10.979-1.292 14.487-13.982 27.5-6.6138 6.7817-10.325 11.509-11.515 14.667-1.68 4.4597-1.6599 5.0833 0.46702 14.47 2.4602 10.858 2.0305 14.895-2.0545 19.303-2.6403 2.8492-2.0123 3.1172 2.1687 0.9253zm73.072-49.071c0.86788-25.869 0.3688-31.406-3.8173-42.356-2.9104-7.6128-10.437-21.13-11.766-21.13-0.46809 0-0.62696 1.1886-0.35304 2.6413 0.29073 1.5418 0.0137 2.6413-0.66558 2.6413-0.64001 0-1.1636 1.443-1.1636 3.2067 0 2.8685-0.21764 3.0887-2.0633 2.0873-1.8996-1.0307-2.0116-0.85744-1.4119 2.1828 0.42938 2.1765 0.1921 3.5901-0.69598 4.1466-0.7411 0.46434-1.3954 2.1479-1.454 3.7412-0.0887 2.4104-1.5356 4.1077-4.568 5.3584-0.16106 0.0664 0.85554 3.7869 2.2591 8.2678 1.5531 4.9582 2.0756 7.9487 1.335 7.6404-6.1827-2.5737-6.2322-3.0787 0.74618 7.6166 5.1361 7.8718 12.106 22.787 12.106 25.906 0 3.1626 1.9506 1.705 2.3334-1.7437l0.38121-3.4337 1.902 4.2261c1.0461 2.3244 2.4163 6.9481 3.0448 10.275 1.9331 10.232 2.99 4.3935 3.8512-21.274zm-22.607 8.6214c-0.43103-3.1516-0.29358-3.6378 0.67203-2.3772 0.9521 1.243 1.0955 0.40408 0.66494-3.8897-0.55732-5.5577-3.4894-12.682-6.1355-14.909-1.2023-1.0116-1.3758-0.67629-0.99864 1.9293 0.25112 1.7345-0.12051 3.8586-0.82583 4.7201-1.039 1.2692-0.64388 3.1724 2.0818 10.027 3.6158 9.0938 5.4132 10.874 4.5412 4.4988zm-17.668-45.937c0.54171-2.7254 0.90051-3.1208 1.6978-1.8709 0.89863 1.4087 1.125 1.4087 2.0372 0 0.56441-0.87163 1.0334-2.1791 1.0422-2.9054 8e-3 -0.72636 0.63823-1.3207 1.3988-1.3207 0.89628 0 1.93-2.881 2.9379-8.188l1.5551-8.1881 1.6667 3.6978 1.6667 3.6978 0.085-6.5701c0.0676-5.2261 0.38844-6.4521 1.5683-5.9931 1.8827 0.73242 4.0522-3.2242 3.222-5.876-0.93164-2.9758 0.44438-7.403 2.1007-6.7587 2.4485 0.95255 3.0133-6.4796 1.1467-15.091-0.93492-4.3134-1.6998-8.8708-1.6998-10.127 0-2.1593 0.0762-2.1794 1.385-0.3647 1.267 1.7566 1.9765 1.1434 8.3244-7.1937 7.2441-9.5142 7.2068-10.376-0.33005-7.6187-2.0061 0.734-3.6475 2.0053-3.6475 2.8251 0 1.8422-1.5146 3.0378-3.8754 3.0591-1.108 0.01-1.5781-0.54642-1.2327-1.459 0.3071-0.81134-0.45616-2.1956-1.6962-3.0761l-2.2545-1.6009 2.5932-3.8689c1.6569-2.4719 2.78-3.364 3.1104-2.4707 0.2982 0.80633 1.2383-0.2893 2.2207-2.588 0.93697-2.1925 2.6307-4.9262 3.7638-6.075 2.1454-2.175 6.8417-2.8446 7.4447-1.0615 0.42062 1.2438 9.0035-1.5867 11.372-3.7503 0.90491-0.82665 2.8596-1.503 4.3439-1.503 3.4418 0 5.9955-0.9901 5.9955-2.3245 0-0.67144-5.1806-0.77128-14.571-0.28081-12.914 0.67454-14.887 0.55108-17.351-1.0857l-2.7802-1.8468 0.65182 3.5613 0.65182 3.5613-4.4298-5.0768c-2.9983-3.4362-4.9629-4.8694-6.0793-4.4351-1.1663 0.45372-2.0488-0.33576-3.0129-2.6955l-1.3635-3.3371-1.8231 2.4503-1.8231 2.4503-0.7376-3.986c-0.51768-2.7975-1.1656-3.8096-2.1731-3.3944-0.78953 0.3254-2.1073 0.86787-2.9283 1.2055-0.95781 0.39389-2.0782-0.53389-3.1264-2.5888-2.0268-3.9735-2.036-4.4544-0.0704-3.6897 2.0606 0.80164 1.9864-0.56229-0.16152-2.9684-2.4354-2.7282-7.6546-2.6048-7.6546 0.18094 0 1.7106-0.69477 2.113-3.6475 2.113-2.7255 0-3.6475 0.45003-3.6475 1.7802 0 0.97914-1.5758 4.9015-3.5017 8.7163-4.0345 7.9914-5.1904 12.062-4.2648 15.018 0.59234 1.892 0.9902 1.7069 4.1673-1.9388 3.9341-4.5143 4.4247-3.5008 1.8554 3.8331-1.0134 2.8926-1.4206 5.8286-0.97211 7.0092 0.64615 1.7009 1.328 1.0376 4.1893-4.0757l3.4176-6.1073 0.95086 3.3612 0.95087 3.3612 2.9041-5.4094c1.5972-2.9752 3.3517-5.6898 3.8987-6.0326 1.6903-1.0591 1.1081 7.0298-1.0589 14.712-1.1294 4.0038-1.7774 7.7325-1.44 8.286 0.33744 0.55351 2.9633-1.2975 5.8352-4.1134l5.2216-5.1198-2.7396 4.8472c-4.0312 7.1325-3.63 15.118 0.51057 10.163 1.7874-2.1387 1.7718-1.9137-0.18889 2.7109-2.5066 5.9124-5.1173 17.685-5.0905 22.955l0.0189 3.6978 1.4894-2.6413 1.4894-2.6413 0.0512 3.1696c0.0281 1.7433 0.3443 4.2795 0.70258 5.6361 0.84426 3.1966 2.3946 0.97835 2.4623-3.523 0.0383-2.5541 0.24337-2.8296 1.0556-1.4189 0.58191 1.0106 1.8178 1.536 2.9238 1.2427 1.5018-0.39814 2.3262 0.58153 3.8147 4.5328 1.3487 3.5803 1.5492 5.1589 0.69201 5.4486-0.66377 0.22431-1.2069 1.6077-1.2069 3.0741 0 1.9608-0.42249 2.502-1.5966 2.0452-1.0612-0.41285-1.9262 0.25779-2.5796 2-0.54064 1.4416-1.698 2.6211-2.572 2.6211-1.2922 0-1.5966 1.628-1.6298 8.7163-0.0395 8.4395-0.0875 8.6073-1.5129 5.2826-0.80967-1.8885-1.7292-3.4337-2.0435-3.4337s-0.57138 4.7824-0.57138 10.628c0 10.344 1.1122 13.027 2.502 6.0346zm12.889-50.207c-2.0919-4.9321-1.5095-14.946 1.2137-20.866l2.4298-5.2826 1.3099 6.8674c1.4036 7.3587 1.2069 9.2549-0.53661 5.1719-0.86063-2.0155-0.95418-1.4816-0.45962 2.623 0.34151 2.8345 0.85695 5.9248 1.1454 6.8674 0.31344 1.0242-0.41118 0.65104-1.8008-0.92747l-2.3253-2.6413 0.62575 5.5468c0.69859 6.1923 0.231 6.9632-1.6021 2.6413zm-3.9268-20.995c0-2.4478 3.4007-10.965 4.3781-10.965 0.59223 0 0.73118 0.81169 0.31652 1.8489-0.40654 1.0169-1.2242 3.2752-1.817 5.0185-1.1758 3.4577-2.8776 5.8809-2.8776 4.0973zm0-11.985c0-1.7431 3.4659-8.488 4.3616-8.488 1.4384 0 0.93909 2.4788-1.2237 6.075-2.0877 3.4713-3.1379 4.2789-3.1379 2.413zm-17.68 56.752c0.0346-7.1762 0.13096-7.493 1.5263-5.0185 1.338 2.3728 1.4797 1.0305 1.3942-13.207l-0.0952-15.848-1.7549 10.565c-1.0213 6.1488-2.0047 9.682-2.3524 8.4522-0.32862-1.1622-0.65189 3.4733-0.71838 10.301-0.0745 7.6534 0.27876 12.414 0.92126 12.414 0.59553 0 1.058-3.2826 1.0791-7.6598zm-4.7734-14.527c0.94306-7.0552 0.99451-9.4505 0.17317-8.0628-0.64267 1.0858-1.9291 2.9643-2.8588 4.1743-1.5999 2.0824-1.645 1.9202-0.84373-3.0307 1.1586-7.1585 1.18-11.692 0.0494-10.461-0.84827 0.924-4.2963 18.162-4.2914 21.455 1e-3 0.80521 0.65195 1.1809 1.4845 0.857 1.0784-0.41954 1.6792 0.62929 2.2045 3.8489 0.9176 5.6236 1.9425 7.2939 2.3915 3.8974 0.19206-1.4527 0.95293-7.158 1.6908-12.678zm-8.2112-9.5496c3.0123-17.434 2.8547-20.742-0.62748-13.166-1.9689 4.2839-2.5147 7.5796-2.8866 17.433-0.25223 6.6825-0.1522 11.856 0.2223 11.496 0.3745-0.3595 1.8558-7.453 3.2917-15.763zm51.801 2.154c0.81167 0 0.7858-0.38477-0.0852-1.2678-2.0582-2.0866-1.4449-3.6898 2.2591-5.9054 2.5341-1.5158 3.6964-3.1083 4.1814-5.7291 0.75144-4.0608 9.5306-17.294 14.005-21.112 1.6002-1.3651 3.2105-3.277 3.5783-4.2488 0.36783-0.97175 2.4877-2.3193 4.7108-2.9946 4.9-1.4883 7.4542-4.7276 4.3721-5.5447-3.1694-0.84025-23.449 14.229-22.505 16.723 0.26696 0.70528-1.6317 3.5544-4.2192 6.3314-3.9399 4.2284-4.6083 5.5373-4.112 8.0529 0.4855 2.461 0.0796 3.3347-2.246 4.8346-3.8944 2.5116-4.3675 3.382-4.3859 8.0676-0.0128 3.2854 0.30349 3.9507 1.6325 3.4337 0.90665-0.35272 2.1729-0.6413 2.8138-0.6413zm53.185-51.696c1.4018-0.54031 4.5979-2.9116 7.1023-5.2694l4.5536-4.2871-5.7318 2e-3c-8.925 4e-3 -13.164 3.4646-11.058 9.0285 0.66789 1.7645 1.6566 1.8657 5.1336 0.52555zm-27.555-9.1866c3.6429-0.73864 3.8746-1.2487 1.845-4.0626-1.2701-1.7609-2.0717-1.8494-7.9927-0.88273-3.9741 0.64884-8.1826 0.70967-10.624 0.15356-2.787-0.63483-5.5571-0.4733-8.9173 0.52001l-4.8744 1.4409 3.6226 1.1485c1.9925 0.63167 4.5606 1.362 5.707 1.623 3.285 0.74792 17.64 0.78803 21.234 0.0594zm42.522-11.562c0.19401-8.7795-0.33445-9.919-4.6137-9.9486-2.7143-0.0187-2.8767 0.76686-0.74847 3.6195 1.7326 2.3222 2.0078 5.4491 0.55951 6.3565-0.53382 0.33448-2.6687-0.21283-4.7443-1.2162-3.59-1.7355-3.7412-2.0193-3.1064-5.8284 0.66246-3.9752 0.642-4.004-2.84-4.004-3.791 0-8.5489 2.7-7.5744 4.2984 0.33001 0.54133 1.7987 0.98423 3.2637 0.98423 2.5528 0 2.5972 0.10291 1.0667 2.471-1.5554 2.4065-1.4565 2.5569 3.7882 5.7642 6.4942 3.9715 12.304 6.5798 13.722 6.1614 0.57318-0.16905 1.1252-4.0651 1.2267-8.6579zm-71.045 1.2192c2.3846-2.4174 2.5492-2.4451 3.1493-0.52826 0.87339 2.7898 1.6801 2.5289 4.4206-1.4294l2.3646-3.4154-3.5686-0.32194c-2.6676-0.24066-3.7143-0.91026-4.1455-2.652-0.31726-1.2815-2.069-3.2236-3.8927-4.3158l-3.3159-1.9858 2.4793-1.8959 2.4793-1.8959-2.5933-0.98625c-1.4263-0.54243-5.59-2.088-9.2527-3.4347l-6.6594-2.4484-2.9883 3.3907c-4.1805 4.7434-3.6567 10.407 1.6558 17.904 2.1474 3.0302 4.212 5.5076 4.5881 5.5055 0.37612-2e-3 2.2609-0.97866 4.1884-2.17 3.5459-2.1916 5.7279-2.0089 3.4605 0.2898-2.0167 2.0446-1.4254 2.9407 1.9406 2.9407 1.9658 0 4.1315-0.97085 5.6899-2.5508zm-18.705-10.363c-3.1005-4.4876-1.3772-8.2171 3.7969-8.2171 3.2481 0 3.8386 1.4858 1.1882 2.9895-1.5539 0.88162-1.508 1.1018 0.45109 2.1648 1.8366 0.99648 2.2854 0.84981 2.8422-0.92894 0.69908-2.233 2.0903-2.755 3.0681-1.1511 1.025 1.6813-0.61911 4.349-3.6639 5.9453-4.0518 2.1241-5.7857 1.943-7.6825-0.80242zm-31.455 3.1405c0.81406-1.3074 1.8046-6.0815 2.2013-10.609l0.72118-8.2318-2.5155 0.64004c-2.0988 0.53404-2.9797-0.0712-5.3185-3.654-2.9043-4.4493-4.2002-5.171-5.489-3.0569-0.50325 0.8255-1.0222 0.5027-1.5596-0.97014-0.98026-2.6865-14.179-10.832-17.552-10.832-2.2931 0-2.3893 0.27472-1.7574 5.0185 1.0857 8.1509 4.6828 14.127 10.334 17.169 3.554 1.9129 4.9083 3.2782 4.9104 4.9506 2e-3 1.5518 1.9688 3.8749 5.9954 7.0817 3.2958 2.6248 6.5678 4.7948 7.271 4.8222s1.9447-1.0199 2.7588-2.3273zm-8.4666-8.136c-1.8628-2.2748-3.387-4.6434-3.387-5.2636s-0.93793-1.1276-2.0843-1.1276c-1.4116 0-2.0843-0.70435-2.0843-2.1825 0-2.829-1.6801-6.0818-5.012-9.7034-1.4702-1.598-2.32-2.9054-1.8884-2.9054 1.968 0 5.7184 2.7466 10.027 7.3435 2.5793 2.7519 5.6276 5.5448 6.774 6.2063 1.6898 0.97519 1.8111 1.385 0.64082 2.1652-1.1655 0.77699-1.0331 1.185 0.68761 2.1186 1.4409 0.7818 1.9534 1.8451 1.5825 3.2831-0.30793 1.1937-0.038 2.1269 0.61507 2.1269 0.64004 0 1.1637 0.47544 1.1637 1.0565 0 2.4456-3.8909 0.72122-7.0345-3.1176zm88.052 7.7788c2.5314-1.504 4.3733-2.9668 4.0932-3.2508-0.7456-0.75588-13.202 2.946-13.202 3.9234 0 0.83225 1.7801 1.8226 3.556 1.9785 0.52282 0.0459 3.0217-1.1471 5.5531-2.651zm-72.612-1.5288c1.1087-0.60153 2.03-2.1467 2.0475-3.4337 0.031-2.2816 0.0608-2.2873 1.1958-0.22697 0.64028 1.1622 1.2893 2.2704 1.4423 2.4628s1.1856-0.14265 2.2948-0.74445c1.5292-0.82967 2.9157-0.60567 5.7358 0.92664l3.7191 2.0208-0.90432-3.1966c-1.1652-4.119 0.1694-7.6172 4.401-11.536l3.3368-3.0897-2.2199-2.4024c-3.0762-3.329-4.6798-7.972-3.4949-10.119 0.58515-1.06 0.58328-2.4504-5e-3 -3.5643-0.81333-1.5407-0.35126-1.9353 2.9543-2.523 2.1551-0.38318 5.0908-1.4346 6.5238-2.3365 3.9494-2.4857 11.571-8.9319 11.111-9.3979-0.63143-0.64013-17.493 5.7635-21.197 8.0501-2.0554 1.2689-3.4392 3.0647-3.6475 4.7334l-0.3352 2.6888-4.5758-3.6835c-3.002-2.4166-3.9542-3.6835-2.7683-3.6835 0.99409 0 2.0527-0.95088 2.3525-2.113 0.33884-1.3136 1.4215-2.113 2.8616-2.113 1.4475 0 2.7533-0.97177 3.4808-2.5905 1.4564-3.2406 3.7384-4.4173 20.407-10.524 12.376-4.5335 23.205-9.8009 22.214-10.805-0.9944-1.0081-23.434 7.8297-38.075 14.996l-15.988 7.8253 0.71383-5.2618c0.46459-3.4246 0.33248-5.2618-0.37838-5.2618-1.126 0-8.4827 9.1948-8.4827 10.602 0 0.43425 1.8759 3.0909 4.1686 5.9037 4.7253 5.7971 5.3403 7.759 1.6675 5.3193-1.3756-0.91375-6.3558-4.1424-11.067-7.1748-7.3383-4.7232-8.3242-5.6928-6.8783-6.7647 0.9283-0.68816 1.6878-1.7141 1.6878-2.2799 0-0.56578-5.9793-2.1248-13.287-3.4646-24.532-4.4973-34.904-8.3921-47.265-17.747-2.7494-2.0809-4.7602-4.1752-4.4684-4.6539 0.8123-1.3325 28.777-1.0413 32.819 0.34173 1.9484 0.66665 6.7217 3.8223 10.607 7.0126s7.2496 5.6133 7.4753 5.3845-2.5824-4.4783-6.2401-9.4434l-6.6504-9.0275-9.0235-0.2864c-4.9629-0.15753-13.149 0.28509-18.191 0.9836-5.0419 0.69851-10.372 0.96352-11.844 0.58892-3.4738-0.8839-4.7596-3.6255-9.4716-20.196-4.6863-16.48-6.1133-19.379-5.2006-10.565 1.1657 11.257 7.5187 28.506 14.265 38.731 7.7679 11.773 12.89 16.037 19.152 15.941 3.8167-0.0585 4.5937 0.26364 4.5937 1.9047 0 2.496 11.331 6.2841 16.455 5.5013 2.19-0.33457 4.0719 0.0456 5.2107 1.0527 0.98045 0.86703 4.362 2.1769 7.5145 2.9108 7.1866 1.673 11.429 3.8239 19.307 9.7893 3.4243 2.593 7.7502 5.5025 9.613 6.4656 1.8628 0.96313 3.387 2.2144 3.387 2.7805s0.70345 1.0294 1.5632 1.0294c0.85978 0 1.5632 0.72537 1.5632 1.6119 0 1.4449 0.31862 1.4449 3.0747 0 4.433-2.324 4.9295-1.9922 1.6416 1.0969-2.387 2.2427-2.7846 3.3241-2.3108 6.2844 0.55203 3.4487 0.48017 3.54-2.0266 2.5738-3.4905-1.3454-3.4994-1.3419-3.5471 1.3754-0.038 2.1654-0.1909 2.0977-1.7162-0.75992-1.5297-2.8658-1.7381-2.9571-2.4103-1.0565-1.0332 2.9215-2.2286 14.231-1.5041 14.231 0.32927 0 1.5058-0.49216 2.6145-1.0937zm66.108-4.0897 5.2107-0.77217-3.6475-0.69925c-2.0061-0.38459-4.8199-0.83875-6.2529-1.0093-1.433-0.17051-2.513-0.81739-2.4001-1.4375 0.11291-0.62013-3.8733-3.4286-8.8583-6.241-20.782-11.725-21.579-12.29-19.496-13.835 2.043-1.5145 2.2719-1.2959-3.182-3.0393-0.8961-0.28643-1.3374-0.99958-0.98065-1.5848 0.94943-1.5574-0.31409-1.3047-3.7427 0.7486-3.8552 2.3087-3.8231 3.3614 0.1269 4.1623 2.3015 0.46664 3.0081 1.1041 2.6152 2.3592-0.39433 1.2596 1.6454 3.068 7.6224 6.758 4.4884 2.771 9.1432 5.23 10.344 5.4644 4.2285 0.82556 6.6056 2.7506 6.281 5.0864-0.60003 4.3177 5.0558 5.7141 16.359 4.039zm-75.836-53.657c0.20388-0.62011-1.7786-2.4044-4.4054-3.9651-15.736-9.3492-19.167-17.781-21.369-52.518-1.0272-16.205-2.8925-27.446-6.1444-37.028-2.284-6.73-6.3078-14.985-6.9749-14.308-0.25811 0.26167 0.71193 5.4187 2.1556 11.46 1.4437 6.0413 2.6256 11.988 2.6263 13.214 7.4e-4 1.2264 1.2347 4.0723 2.7422 6.3244 2.731 4.0798 2.7414 4.1751 2.8869 26.296 0.13203 20.078 0.3539 22.662 2.3194 27.01 2.6743 5.9161 7.0982 11.103 16.375 19.198 6.7701 5.908 8.9493 6.8691 9.7883 4.3173zm14.901-15.739c1.4115-4.336 0.59595-11.874-1.6034-14.819-1.3198-1.7672-1.4911-0.76443-1.5205 8.9002-0.034 11.168 0.86221 12.866 3.1239 5.9187zm-101.28-2.7572c-4.82-5.8489-15.012-13.901-20.624-16.293-2.9517-1.2582-2.2654-0.19018 5.2162 8.118 8.3154 9.234 13.987 13.523 18.013 13.62 1.5172 0.0369 0.96972-1.1074-2.6054-5.4457zm115.28-10.564c2.5878-6.9705 1.9208-18.094-1.384-23.081-1.3311-2.0086-2.094-2.7011-1.6954-1.5389 0.39865 1.1622 1.1919 5.4411 1.7628 9.5087 0.99971 7.1232 0.0744 14.44-2.806 22.187l-0.78563 2.113 1.5328-2.113c0.84305-1.1622 2.362-4.3464 3.3754-7.0761zm-129.83-26.385c-4.1805-6.5833-8.6656-14.584-9.9668-17.78s-2.372-5.0977-2.3794-4.2261c-0.0254 2.9976 3.0252 11.73 6.2223 17.811 3.218 6.1208 12.326 17.584 13.237 16.66 0.26845-0.27215-2.9323-5.8811-7.1128-12.464zm243.81 262.68c-17.395-2.747-33.591-9.702-53.622-23.026-11.461-7.6238-13.774-9.7495-12.268-11.276 0.59117-0.59932 4.3858 0.65078 9.8041 3.2299 4.8618 2.3142 13.998 5.8629 20.303 7.886 46.466 14.91 85.365 12.774 129-7.081 5.0316-2.2898 10.19-3.9964 11.464-3.7925 2.1736 0.34807 2.0699 0.61262-1.6939 4.3215-4.5926 4.5256-19.989 13.969-31.276 19.184-23.152 10.696-47.818 14.327-71.706 10.554z" fill="#fff" stroke-width="1.0493"></path></svg> 