<?xml version="1.0" encoding="UTF-8"?> <svg xmlns="http://www.w3.org/2000/svg" xmlns:cc="http://creativecommons.org/ns#" xmlns:dc="http://purl.org/dc/elements/1.1/" xmlns:rdf="http://www.w3.org/1999/02/22-rdf-syntax-ns#" viewBox="0 0 895 579"> <metadata></metadata> <g transform="translate(1.1101,3.6299)"> <path d="m0 289.5v-289.5h895v579h-895z" fill="none"></path> <path d="m111.36 557.87c-2.5391-8.0926-5.2637-16.694-6.0546-19.113-1.9162-5.8626-1.8773-6.0327 1.3794-6.0327 2.7427 0 2.9188 0.33598 6.64 12.668 6.0474 20.04 5.0553 19.809 10.682 2.4839l4.921-15.152h6.4954l4.9719 15.531 4.9719 15.531 4.594-15.283c4.5886-15.265 4.5976-15.284 7.7206-15.592l3.1266-0.30917-1.3157 4.2834c-0.72362 2.3558-3.5019 11.325-6.1739 19.932l-4.8582 15.648h-6.2481l-5.0344-15.648-5.0344-15.648-5.0263 15.4c-4.955 15.181-5.0696 15.404-8.0837 15.707l-3.0574 0.30729zm70.507 13.899c0-0.38353 3.6727-9.3254 8.1616-19.871l8.1616-19.173 3.5884 9e-3 3.5884 9e-3 8 18.941c4.4 10.417 8.1607 19.387 8.3571 19.934 0.20548 0.57094-1.056 0.85668-2.9711 0.67297-2.9972-0.28752-3.5293-0.83806-5.3502-5.5354l-2.022-5.2161h-19.282l-2.2323 5.4639c-1.9803 4.8477-2.5578 5.4645-5.1161 5.4645-1.5861 0-2.8839-0.3138-2.8839-0.69733zm25.53-19.422c-0.75218-1.776-2.3395-5.4645-3.5274-8.1968l-2.1598-4.9677-1.5068 3.4774c-0.82875 1.9126-2.3619 5.6011-3.407 8.1968l-1.9002 4.7193h13.869zm40.47 0.24838v-19.871h26.2l3.4 3.3781c2.8917 2.873 3.4 4.0687 3.4 7.9978 0 4.4438-2.2089 10.482-3.8346 10.482-0.43076 0-1.6111 0.60144-2.6229 1.3365-1.7387 1.2632-1.5845 1.7285 2.8089 8.4762 2.5567 3.9268 4.6486 7.3492 4.6486 7.6054 0 0.25623-1.4625 0.45276-3.25 0.43685-2.9624-0.0263-3.6483-0.68334-7.75-7.4227l-4.5-7.3938-6.75-0.0289-6.75-0.029v7.4516c0 7.286-0.0556 7.4516-2.5 7.4516h-2.5zm25.715-3.4332c2.8124-3.2485 2.4853-6.9114-0.86882-9.7313-1.6312-1.3714-3.946-1.7387-10.957-1.7387h-8.8892v15.147l9.1423-0.43428c8.5397-0.40565 9.3025-0.61936 11.573-3.2419zm43.829 22.125c-1.9475-5.7543-11.544-37.158-11.544-37.776 0-0.43304 1.2733-0.78736 2.8296-0.78736 2.7589 0 2.9229 0.31279 6.5616 12.516 6.0391 20.252 5.0581 20.012 10.737 2.6359l4.9516-15.152h6.4378l4.92 15.456 4.92 15.456 4.6959-15.207c4.6655-15.108 4.716-15.209 7.7919-15.516l3.096-0.30916-1.3281 4.2834c-0.73045 2.3558-3.5262 11.325-6.2127 19.932l-4.8846 15.648h-6.1506l-5.0551-15.609-5.0551-15.609-5.0667 15.36c-4.9937 15.139-5.111 15.365-8.1344 15.672-1.8782 0.19093-3.2389-0.19432-3.5094-0.99355zm71.456-18.693v-19.871h6v39.742h-6zm43.5 18.022c-6.1693-3.7861-9.5-9.9663-9.5-17.627 0-14.005 9.0334-22.467 22.319-20.909 5.9001 0.69201 10.908 3.636 13.631 8.0132 2.6572 4.2717 2.6038 4.552-0.86618 4.552-1.9696 0-3.5163-0.81793-4.7636-2.5191-2.5452-3.4714-8.9196-5.5338-13.755-4.4501-7.9725 1.7865-12.816 10.586-10.509 19.095 2.9537 10.898 16.566 14.453 23.838 6.2243 1.9688-2.2279 3.9406-3.4466 5.5764-3.4466 1.3918 0 2.5306 0.38097 2.5306 0.84662 0 1.8216-4.7195 7.6664-7.9217 9.8104-4.473 2.995-15.993 3.2248-20.578 0.41058zm56.5-18.022v-19.871h2.5c2.493 0 2.5 0.0265 2.5 9.538v9.5379l10.367-9.5379c9.3935-8.6425 10.731-9.538 14.242-9.538h3.8756l-8.1473 8.0947-8.1473 8.0947 8.4049 11.118c4.6227 6.1147 8.4049 11.414 8.4049 11.777 0 0.36264-1.4625 0.64283-3.25 0.62358-2.9453-0.0317-3.9433-0.96881-10.646-9.9961l-7.3957-9.9603-3.8543 3.7393c-3.6659 3.5566-3.8543 4.0451-3.8543 9.9961 0 6.0112-0.098 6.2564-2.5 6.2564h-2.5zm62.5 18.041c-4.0011-2.4305-5.3642-4.2019-6.1191-7.952-0.59637-2.9626-0.46565-3.1343 2.3856-3.1343 2.3778 0 3.1485 0.52215 3.6395 2.4658 0.81211 3.2148 5.3609 5.4826 10.997 5.4826 5.7486 0 9.4861-1.7 10.232-4.6542 1.0366-4.1034-0.80098-5.2743-14.492-9.2356-11.264-3.259-14.632-8.2536-10.682-15.843 4.4754-8.5986 25.299-7.6298 29.076 1.3528 1.904 4.5275 1.9022 4.5347-1.1437 4.5347-1.568 0-3.3667-0.96072-4.5156-2.4119-5.1109-6.4555-18.878-5.1208-18.878 1.8301 0 2.7849 2.1155 3.9532 11.916 6.5808 12.814 3.4354 16.99 8.4087 13.676 16.288-1.9913 4.7351-6.3338 6.5263-15.811 6.5215-5.3006-3e-3 -8.0984-0.49959-10.282-1.826zm55.5-18.041v-19.871h2.5c2.4706 0 2.5 0.0994 2.5 8.4452v8.4452h22v-16.89h6v39.742h-6v-17.884h-22v8.9419c0 8.8756-0.0185 8.9419-2.5 8.9419h-2.5zm63 0v-19.871h6v39.742h-6zm36 0v-19.871h12.453c7.2808 0 13.505 0.47626 14.986 1.1466 7.9167 3.5838 8.3078 17.228 0.60716 21.184-1.9358 0.99454-2.8444 2.0519-2.4046 2.7982 0.38876 0.65979 2.3501 3.6586 4.3586 6.6641 5.6098 8.3947 5.5183 7.9484 1.6301 7.9484-3.2584 0-3.7956-0.49043-8.1625-7.4516l-4.6745-7.4516h-12.793v14.903h-6zm22.872-1.0981c5.658-1.9597 6.9895-8.232 2.4932-11.746-2.1887-1.7105-4.0514-2.0592-11-2.0592h-8.3651v14.903h6.8508c3.7679 0 8.2774-0.49412 10.021-1.0981zm39.128 1.0981v-19.871h30v4.9677h-24v11.923h22v4.9677h-22v12.916h24v4.9677h-30zm-760-62.593c0-0.66087 147.83-0.99355 441.5-0.99355s441.5 0.33268 441.5 0.99355-147.83 0.99354-441.5 0.99354-441.5-0.33267-441.5-0.99354zm200-35.767c-7.1379-1.2042-11.624-3.5091-17.408-8.9442-7.822-7.3501-10.007-12.855-10.054-25.333-0.0329-8.6618 0.29384-10.636 2.5487-15.4 3.4711-7.3338 10.782-14.322 17.812-17.024 8.6914-3.3416 20.677-3.1034 28.849 0.57319 14.32 6.4424 22.12 21.871 19.271 38.123-2.6925 15.362-12.863 25.493-28.049 27.942-7.098 1.1442-6.5884 1.1416-12.97 0.0651zm18.32-10.379c4.8438-2.3294 9.1471-6.5938 11.951-11.843 1.725-3.2296 2.1978-5.8069 2.2114-12.056 0.0151-6.9381-0.35272-8.6119-2.894-13.168-5.1863-9.2998-13.894-13.806-24.97-12.923-15.367 1.2255-24.435 12.06-23.408 27.964 0.73529 11.383 6.4622 19.38 16.537 23.091 4.9848 1.836 15.694 1.2822 20.572-1.0639zm281.68 10.3c-18.458-3.6631-23.861-25.359-8.649-34.729 2.5764-1.5869 2.666-1.8144 0.93062-2.3617-3.5663-1.1246-6.6586-6.6094-7.0934-12.581-0.60108-8.2563 3.0004-14.089 10.812-17.511 4.2988-1.8832 17.124-2.1632 22.072-0.48176 4.1121 1.3974 9.3329 6.3894 10.842 10.367l1.0366 2.7323h-5.0066c-3.4575 0-5.1793-0.447-5.5646-1.4446-0.30689-0.79457-2.5697-2.4122-5.0286-3.5948-10.829-5.2085-23.588 2.7456-20.297 12.653 1.9013 5.7238 5.6846 7.2814 17.696 7.2858 9.5846 3e-3 10.25-0.12528 10.25-1.9834 0-1.656 0.66667-1.9871 4-1.9871s4 0.33118 4 1.9871c0 1.6086 0.66667 1.9871 3.5 1.9871 3.4167 0 3.5 0.0946 3.5 3.9742 0 3.8587-0.0989 3.9742-3.4063 3.9742h-3.4063l-0.3437 9.7634c-0.30321 8.6131-0.65995 10.238-3.0277 13.789-4.565 6.8472-15.962 10.317-26.816 8.1626zm16.458-9.8316c4.3552-2.6742 5.5419-5.7748 5.5419-14.479v-7.4049h-10.114c-8.6212 0-10.702 0.32835-14.098 2.2248-4.1344 2.3087-6.7881 6.0999-6.7881 9.6978 0 2.5232 2.2905 7.12 4.4246 8.8797 5.1641 4.2581 15.034 4.7656 21.034 1.0815zm84.318 9.877c-11.689-1.8029-19.3-8.1493-21.108-17.603l-0.61782-3.229h4.456c3.9139 0 4.532 0.30086 5.0807 2.4731 0.83922 3.3221 6.4902 8.1013 11.257 9.5202 4.9031 1.4595 17.713 0.80776 21.656-1.1018 1.65-0.79907 3.7977-3.0736 4.7727-5.0546 3.6666-7.4497-0.84002-11.251-18.735-15.804-17.138-4.3604-23.396-7.9265-25.611-14.595-2.8252-8.5051 2.4761-18.239 11.876-21.805 7.0418-2.6719 21.138-2.4078 27.685 0.51888 8.1558 3.6462 12.512 8.8689 12.512 15 0 2.862-0.2172 3.03-3.9176 3.03-3.5167 0-4.1052-0.37472-5.75-3.6617-3.2484-6.4914-6.0895-7.7641-17.332-7.7641-10.824 0-14.544 1.5135-16.394 6.6684-2.4292 6.7717 1.9028 9.9732 19.729 14.581 19.97 5.1625 25.669 9.6263 25.661 20.099-4e-3 5.6586-2.2007 10.49-6.3248 13.911-5.0876 4.2199-18.388 6.4369-28.895 4.8163zm-503.78-34.245v-34.277h9v29.806h38v-29.806h9v68.555h-9v-29.806h-38v29.806h-9zm178 4.471v-29.806h-24v-8.9419h56v8.9419h-23v59.613h-9zm49-4.471v-34.277h51v8.9419h-42v20.864h37v8.9419h-37v20.864h42v8.9419h-51zm70 0v-34.277h9v59.613h37v8.9419h-46zm261-0.0898v-34.367l19.75 0.35555c18.001 0.32406 20.115 0.54808 23.874 2.5302 8.384 4.4207 12.034 11.852 11.068 22.535-0.69325 7.6678-4.3882 13.105-11.199 16.477-4.4999 2.2286-6.4511 2.5093-19.743 2.8406l-14.75 0.36752v23.629h-9zm34.114 1.5596c3.7785-0.71141 6.2821-1.9035 8.3865-3.9933 2.71-2.6911 3-3.5954 3-9.3529 0-5.672-0.31768-6.7032-2.8856-9.3662-3.6747-3.8108-9.4838-5.0865-23.164-5.0865h-10.451v28.813h9.8635c5.4249 0 12.287-0.45637 15.25-1.0141zm26.915 32.063c0.0159-0.40984 6.4457-15.723 14.288-34.029l14.259-33.284h10.886l14.251 33.284c7.8381 18.306 14.259 33.62 14.269 34.029 0.01 0.40984-2.1199 0.74144-4.7324 0.7369l-4.75-8e-3 -4.0241-9.6788-4.0242-9.6788h-32.784l-4.0841 9.6756-4.0841 9.6756-4.75 0.0115c-2.6125 6e-3 -4.737-0.32378-4.721-0.73361zm42.319-37.755c-2.4908-5.8744-5.3252-12.668-6.2988-15.096-2.0014-4.9927-2.1411-4.8859-5.9144 4.5192-1.0734 2.6754-3.5506 8.553-5.505 13.061l-3.5534 8.1968h25.8zm-744.35-102.98v-34.38h17.318c20.508 0 25.84 1.1314 30.573 6.487 3.7803 4.2778 4.4661 6.8068 3.9115 14.424-0.3676 5.0492-0.91766 6.4338-3.6814 9.2669l-3.2493 3.3308 3.6098 2.1161c8.4315 4.9426 9.9596 19.389 2.7743 26.227-5.6267 5.3546-9.0374 6.0703-31.006 6.5056l-20.25 0.40117zm44.084 21.492c3.9465-4.392 3.9787-9.2648 0.0868-13.132-3.975-3.9494-8.7901-4.9731-23.421-4.9795l-12.75-6e-3v21.992l16.584-0.31525 16.584-0.31525zm-5.956-27.622c5.8123-2.9862 7.1078-11.11 2.5646-16.081-2.9728-3.2527-7.7255-4.2093-20.943-4.2155l-11.75-6e-3v21.858h13.55c10.344 0 14.266-0.36825 16.579-1.5563zm36.872 5.9553v-34.349l20.75 0.32033c19.238 0.29698 21.055 0.48251 24.942 2.5467 7.9106 4.2011 11.996 12.874 10.652 22.615-0.88384 6.4068-3.9342 10.485-10.065 13.457l-5.2202 2.5301 8.0948 12.374c4.4521 6.8052 8.3118 12.932 8.5772 13.615 0.34661 0.89228-0.93098 1.2419-4.5378 1.2419h-5.0203l-8.2114-12.916-8.2114-12.916h-22.751v25.832h-9zm42.088-2.6901c6.0267-4.0352 7.5728-10.417 3.9529-16.315-3.4479-5.6182-6.8458-6.6734-22.79-7.077l-14.25-0.36076v26.019h14.852c13.804 0 15.091-0.15983 18.235-2.2653zm26.913 36.294c5.5e-4 -0.40984 6.4243-15.723 14.275-34.029l14.274-33.284h10.913l14.251 33.284c7.8381 18.306 14.259 33.62 14.269 34.029 0.01 0.40984-2.1199 0.74144-4.7324 0.7369l-4.75-8e-3 -4.0241-9.6788-4.0242-9.6788h-32.917l-4.0171 9.6651-4.0171 9.6651-4.75 0.022c-2.6125 0.0121-4.7496-0.31335-4.749-0.72319zm42.333-37.755c-2.498-5.8744-5.2672-12.58-6.1538-14.903-0.88656-2.3224-1.8678-4.2226-2.1805-4.2226s-1.294 1.9002-2.1805 4.2226c-0.88657 2.3224-3.6558 9.0289-6.1538 14.903l-4.5419 10.681h25.752zm41.666 4.2226v-34.277h9.5942l19.953 27.016 19.953 27.016 0.26607-27.016 0.26607-27.016h8.9679v68.555h-9.6248l-20.438-27.808-20.438-27.808-0.26557 27.808-0.26558 27.808h-7.9688zm83 0.0158v-34.451l18.25 0.33797c16.597 0.30734 18.723 0.54968 23.477 2.6753 6.1084 2.7315 12.555 9.2752 15.612 15.847 1.8002 3.8701 2.1609 6.4698 2.1609 15.575 0 9.9394-0.25161 11.438-2.7798 16.553-3.2082 6.4908-8.9829 12.075-15.598 15.082-4.046 1.8396-6.8981 2.1472-22.872 2.4667l-18.25 0.36509zm40.661 21.748c5.7549-4.6097 9.2034-10.114 10.398-16.598 2.0902-11.346-2.8008-22.97-11.894-28.264-4.2649-2.4833-5.6345-2.7186-17.892-3.0745l-13.273-0.38532v52.041l14.411-0.32169 14.411-0.32168 3.8392-3.0752zm55.581 10.447c-6.4858-2.5313-14.005-9.6388-17.257-16.314-3.5261-7.2358-4.0346-21.57-1.0448-29.456 2.9548-7.7941 8.771-14.002 16.796-17.927 6.0192-2.9441 7.4719-3.2429 15.765-3.2429 8.2956 0 9.7442 0.29826 15.775 3.2482 7.2329 3.5377 12.22 8.5391 15.9 15.945 1.9406 3.9052 2.2916 6.1937 2.3066 15.038 0.0157 9.2293-0.28764 11.079-2.6303 16.044-3.2261 6.8368-8.857 12.613-15.429 15.826-6.975 3.4108-22.484 3.8409-30.181 0.837zm26.258-8.6221c8.7888-4.4932 13.803-13.29 13.735-24.096-0.0519-8.2434-2.8451-14.501-8.7954-19.705-12.627-11.043-33.96-6.7099-40.476 8.2211-6.5986 15.121-0.13673 31.459 14.594 36.899 5.361 1.9801 15.771 1.3244 20.942-1.3191zm42.5-23.588v-34.277h9.5157l19.992 27.062 19.992 27.062 0.26607-27.062 0.26607-27.062h8.9679v68.555h-9.6381l-20.431-27.696-20.431-27.696-0.26557 27.696-0.26558 27.696h-7.9688zm113 0v-34.277h8v29.806h39v-29.806h8v68.555h-8v-29.806h-39v29.806h-8zm71.03 33.532c0.0165-0.40983 6.4366-15.723 14.267-34.029l14.237-33.284 5.483-0.25722 5.483-0.25723 14 32.937c7.7 18.115 14.146 33.544 14.323 34.286 0.23881 0.99633-0.93752 1.3432-4.5 1.327l-4.8233-0.022-4.0171-9.6651-4.0171-9.6651h-32.917l-4.0242 9.6788-4.0241 9.6788-4.75 8e-3c-2.6125 5e-3 -4.7365-0.32706-4.7201-0.7369zm42.783-36.761c-2.2496-5.3279-5.1199-12.146-6.3784-15.152l-2.2882-5.4645-2.0084 4.471c-1.1046 2.459-4.0347 9.2772-6.5113 15.152l-4.5029 10.681h25.779zm41.187 3.229v-34.277h8v59.613h37v8.9419h-45zm62 0v-34.277h9v59.613h37v8.9419h-46zm-399.89-117.82c-8.3249-1.2698-17.249-4.2784-24.107-8.1267-5.9682-3.3492-16.425-13.253-17.48-16.554-0.68111-2.1322-2.9636-2.7562-3.9981-1.0932-0.90909 1.4615-21.423 15.365-26.522 17.975-3.118 1.5963-6.2888 2.3229-10.325 2.3658-5.453 0.058-6.0372-0.16827-9.1544-3.5456-9.2052-9.9732-6.129-31.836 7.7353-54.976 6.4738-10.805 15.103-21.1 19.728-23.536 4.2303-2.2283 10.087-2.3636 14.055-0.3246 3.799 1.9518 5.7223 5.9078 10.998 22.621l4.3246 13.7 2.3501-2.7711c1.2926-1.5241 13.811-17.884 27.82-36.354 39.064-51.507 62.102-77.493 72.921-82.247 8.7009-3.824 19.117-3.3263 23.6 1.1277 4.1095 4.083 1.3525 10.945-4.8962 12.187-3.461 0.68774-7.3941 3.8085-25.045 19.872-17.979 16.362-33.888 33.486-44.907 48.336-10.422 14.046-22.375 27.966-35.931 41.845-5.6507 5.7856-10.274 10.854-10.274 11.264 0 1.655 10.588 15.819 13.44 17.98 18.02 13.651 45.627 15.07 67.296 3.4572 14.099-7.5557 24.708-16.913 32.334-28.521 6.0654-9.2312 8.3636-16.47 7.6637-24.139-0.68407-7.4953-3.465-12.557-10.315-18.778-7.903-7.1763-13.189-9.5849-24.126-10.994-11.336-1.4597-19.16-3.4516-21.09-5.3689-2.0333-2.0202-0.8363-5.9467 2.4689-8.0984 3.5525-2.3127 11.529-2.2436 17.329 0.1499 3.7105 1.5314 6.8684 1.8332 18 1.7203 25.671-0.26029 43.559-7.8984 51.211-21.867 5.0118-9.1489 5.9665-23.716 2.1718-33.139-2.3333-5.794-10.932-13.124-19.603-16.71-11.052-4.5714-18.847-5.6466-40.78-5.6253-23.15 0.022506-38.486 2.3036-57.229 8.5126-31.622 10.475-53.541 25.868-62.531 43.912-5.9008 11.844-5.6177 20.051 0.93535 27.114 5.9764 6.4418 4.1177 9.1835-3.9572 5.8373-13.592-5.6325-17.178-23.096-8.4324-41.068 5.5926-11.492 24.563-27.419 43.326-36.373 11.088-5.2914 29.584-10.895 46.389-14.056 14.048-2.6418 16.65-2.8215 41-2.8306 21.236-0.00796 27.649 0.32231 35 1.8025 16.036 3.2289 30.909 10.594 37.989 18.813 5.9287 6.8817 7.7475 13.337 7.351 26.093-0.31105 10.005-0.62284 11.52-3.6145 17.558-4.2227 8.5222-11.855 15.503-22.581 20.655-8.5306 4.0972-22.509 7.9476-28.895 7.9594-2.0625 0.0039-3.75 0.34305-3.75 0.75382 0 0.41077 2.0825 1.8445 4.6278 3.1861 16.326 8.6051 24.395 29.252 18.412 47.115-6.2969 18.8-24.277 35.785-48.063 45.402-15.149 6.125-24.238 7.9849-40.977 8.3846-8.525 0.20355-18.377-0.0687-21.893-0.60517zm-74.817-15.939c4.5628-2.301 16.91-12.227 23.005-18.493l3.7951-3.9017-4.6672-12.829c-5.1011-14.021-7.5257-19.297-9.6873-21.079-1.9983-1.6478-4.3648 1.1724-11.092 13.218-7.519 13.465-10.824 23.636-11.003 33.865-0.20143 11.513 1.6296 13.263 9.6493 9.2182z" fill="#fff" stroke-width=".99677"></path> </g> </svg> 