<?xml version="1.0" encoding="UTF-8"?>
<svg width="307.2" height="136.32" version="1.1" viewBox="0 0 307.20001 136.32001" xmlns="http://www.w3.org/2000/svg" xmlns:cc="http://creativecommons.org/ns#" xmlns:dc="http://purl.org/dc/elements/1.1/" xmlns:rdf="http://www.w3.org/1999/02/22-rdf-syntax-ns#">
<metadata>
<rdf:RDF>
<cc:Work rdf:about="">
<dc:format>image/svg+xml</dc:format>
<dc:type rdf:resource="http://purl.org/dc/dcmitype/StillImage"/>
<dc:title/>
</cc:Work>
</rdf:RDF>
</metadata>
<g transform="translate(.85886 -.013513)" stroke-width=".32">
<path d="m0 68.16v-68.16h307.2v136.32h-307.2z" fill="none"/>
<path d="m99.363 82.458v-43.36h6.08l8e-3 5.04 8e-3 5.04 1.6722-1.8109c9.898-10.719 25.567-10.98 35.785-0.59678 3.8384 3.9008 6.6061 9.3439 7.835 15.409 0.79628 3.9298 0.49517 10.63-0.65157 14.499-2.9512 9.9559-9.8974 17.083-19.074 19.57-2.8062 0.76059-8.6767 0.76059-11.483 0-4.5366-1.2296-8.6893-3.6932-12.076-7.1641l-2.0231-2.073v38.808h-6.08zm30.742 7.0092c3.1549-0.92723 6.0766-2.6923 8.4581-5.1096 2.6795-2.7198 4.0528-4.9347 5.392-8.696 0.95144-2.6723 0.9977-3.0284 0.98762-7.6036-9e-3 -4.2877-0.0983-5.0618-0.83262-7.2533-2.3474-7.0057-7.5703-12.363-13.867-14.223-2.7966-0.82626-7.3682-0.77281-10.24 0.11973-7.0044 2.177-12.558 8.6266-14.104 16.38-0.77205 3.8708-0.51006 8.9022 0.64239 12.337 2.2888 6.8208 7.2706 11.929 13.613 13.959 2.3339 0.747 7.5546 0.79411 9.951 0.0898zm-88.404 7.069c-5.2626-0.99687-9.7935-3.5565-13.698-7.7385-5.2975-5.6737-7.9916-12.665-7.9916-20.74 0-15.53 10.692-28.055 24.644-28.868 11.922-0.69484 22.568 7.635 26.274 20.557 0.71471 2.4921 0.7339 2.9478 0.8382 19.91l0.10674 17.36h-6.1107l-6.4e-4 -5.04-6.4e-4 -5.04-1.6794 1.8057c-2.204 2.3699-4.0311 3.7734-6.9593 5.346-4.5879 2.464-10.434 3.3914-15.422 2.4465zm10.147-7.4598c5.0723-1.7658 9.0914-5.4159 11.516-10.458 1.7148-3.5664 2.3987-6.5774 2.3987-10.56 0-4.0184-0.68506-6.9946-2.4625-10.698-1.2062-2.5134-1.8843-3.4511-4.053-5.6045-4.1358-4.1067-7.9048-5.7333-13.324-5.7504-3.8526-0.0122-6.871 0.9081-10.132 3.0889-5.7883 3.8714-9.2869 10.24-9.6327 17.536-0.5075 10.707 5.3211 19.767 14.635 22.748 1.2126 0.38811 2.8259 0.57027 5.129 0.57913 2.8721 0.011 3.7325-0.11674 5.9253-0.88015zm30.875-35.578v-43.52h6.08v87.04h-6.08zm79.04 14.56v-28.96h6.08v57.92h-6.08zm16.64-14.56v-43.52h6.08v19.52c0 10.736 0.0502 19.52 0.11163 19.52 0.0614 0 1.2494-1.1203 2.64-2.4895 5.3519-5.2696 11.7-7.7605 18.682-7.3308 6.4847 0.3991 11.863 3.0241 16.666 8.1347 9.3826 9.9835 10.602 26.221 2.8401 37.825-4.304 6.4345-10.454 10.439-17.723 11.538-7.3935 1.1187-15.928-2.0255-21.223-7.8189-0.89445-0.97867-1.7089-1.7794-1.8098-1.7794-0.10096 0-0.18356 2.232-0.18356 4.96v4.96h-6.08zm30.867 35.99c3.1533-0.82135 5.5505-2.3025 8.5091-5.2575 4.6304-4.6248 6.5198-9.313 6.5175-16.173-2e-3 -4.5274-0.51657-6.8284-2.364-10.56-2.243-4.5307-5.2585-7.6274-9.4539-9.7083-2.0231-1.0035-6.0088-1.9755-8.062-1.9661-3.5746 0.0164-8.7444 1.9576-11.837 4.4447-3.2913 2.647-6.2498 7.5232-7.3338 12.088-0.74961 3.1564-0.67672 8.5566 0.15813 11.714 1.9585 7.4067 7.7123 13.61 14.301 15.418 2.1864 0.59998 7.2622 0.60017 9.565 3.2e-4zm53.773 7.0782c-6.7924-1.322-12.708-5.3046-16.626-11.194-6.5544-9.8507-6.9818-22.611-1.1068-33.045 1.6916-3.0043 6.5469-8.0367 9.3238-9.6637 10.319-6.0462 22.483-4.1905 30.666 4.6781 9.9987 10.837 10.517 28.133 1.1997 40.034-3.0443 3.8887-8.785 7.6427-13.514 8.8374-2.79 0.70482-7.3085 0.86501-9.9419 0.35246zm8.7976-7.0635c9.703-2.582 16.403-13.376 15.052-24.249-0.69721-5.6106-2.638-9.6263-6.5465-13.546-2.9576-2.9658-5.9213-4.6315-9.6229-5.4086-2.8664-0.6018-4.1038-0.59774-7.1106 0.0233-7.4019 1.5289-13.204 7.2881-15.513 15.4-0.55846 1.9613-0.7094 3.3181-0.70481 6.3357 7e-3 4.5336 0.51497 6.7508 2.4565 10.72 2.4741 5.058 7.9816 9.6899 12.889 10.84 1.9993 0.46846 7.1532 0.40334 9.101-0.11497zm-110.08-73.765v-5.76h6.08v11.52h-6.08z"/>
</g>
</svg>
