<?xml version="1.0" encoding="UTF-8" standalone="no"?>
<svg
   xmlns:dc="http://purl.org/dc/elements/1.1/"
   xmlns:cc="http://creativecommons.org/ns#"
   xmlns:rdf="http://www.w3.org/1999/02/22-rdf-syntax-ns#"
   xmlns:svg="http://www.w3.org/2000/svg"
   xmlns="http://www.w3.org/2000/svg"
   id="svg4540"
   viewBox="0 0 304 304"
   version="1.1">
  <defs
     id="defs4544" />
  <metadata
     id="metadata4532">
    <rdf:RDF>
      <cc:Work
         rdf:about="">
        <dc:format>image/svg+xml</dc:format>
        <dc:type
           rdf:resource="http://purl.org/dc/dcmitype/StillImage" />
        <dc:title></dc:title>
      </cc:Work>
    </rdf:RDF>
  </metadata>
  <g
     id="g4538"
     stroke-width=".32"
     transform="translate(.37624 -.37624)">
    <path
       id="path4534"
       fill="none"
       d="m0 152v-152h304v304h-304z" />
    <path
       style="fill:#ffffff;fill-opacity:1"
       id="path4536"
       fill="#8300e9"
       d="m37.346 272.62-7.5197-7.4819 0.0545-1.4398c0.0316-0.8363 0.37933-2.0259 0.8295-2.8381 0.99543-1.7959 4.0665-9.029 11.531-27.158 3.2972-8.008 6.2114-15.064 6.4759-15.68 0.59604-1.388 0.51325-1.1897 3.407-8.16 2.0716-4.9901 6.787-16.42 15.313-37.12 1.2324-2.992 2.4266-5.872 2.6538-6.4 1.0045-2.334 3.3621-8.1552 3.3621-8.3014 0-0.0886 0.3427-0.92106 0.76155-1.8499 0.41886-0.92881 1.4444-3.3448 2.279-5.3688s1.701-4.112 1.9253-4.64c1.2904-3.0371 18.724-45.318 21.173-51.351 0.96264-2.3712 2.0111-4.8912 2.3299-5.6 0.31879-0.70884 0.90101-2.0808 1.2938-3.0488 0.39282-0.968 0.8997-2.192 1.1264-2.72s3.6708-8.88 7.6536-18.56c3.9828-9.68 8.4601-20.498 9.9496-24.041s2.7081-6.5263 2.7081-6.6305 0.34469-0.94972 0.76598-1.8789c0.42129-0.92922 1.2972-2.98 1.9466-4.5574 2.4346-5.9142 1.7153-5.6603 15.707-5.5441l11.073 0.09198 1.2388 1.44c0.68135 0.792 1.5907 2.376 2.0208 3.52s2.0367 5.104 3.5703 8.8c4.1656 10.039 5.7231 13.802 14.966 36.16 19.155 46.333 22.501 54.417 25.502 61.6 1.7278 4.136 4.3252 10.4 5.7721 13.92 6.1675 15.005 8.7669 21.03 9.1331 21.17 0.21451 0.0823 3.3947-1.3561 7.067-3.1964 6.1482-3.081 6.6137-3.373 5.877-3.6858-0.44-0.18685-1.8955-0.78304-3.2345-1.3249-1.339-0.54183-2.7332-1.3042-3.0984-1.6942-0.36513-0.39-1.8684-2.5091-3.3405-4.7091s-4.0462-6.016-5.7202-8.48c-7.9884-11.758-11.551-17.162-11.408-17.305 0.0857-0.0857 5.3232 1.5654 11.639 3.669 6.3157 2.1037 19.041 6.3131 28.278 9.3543 19.553 6.4378 19.047 6.1822 19.043 9.6167-2e-3 1.1135-0.0376 6.1667-0.08 11.229l-0.0771 9.2047-1.04 1.0951c-0.76061 0.80094-5.5532 3.3469-17.84 9.4772-9.24 4.6102-16.892 8.5255-17.004 8.7008-0.11221 0.1753 0.0514 0.91242 0.36353 1.6381 0.31215 0.72563 3.0252 7.2953 6.0289 14.599s5.9783 14.504 6.6102 16 5.6188 13.563 11.082 26.815c10.54 25.567 10.125 24.335 8.6337 25.585-0.36042 0.30233-3.062 0.4-11.064 0.4-11.418 0-11.369 7e-3 -12.65-1.7439-0.52922-0.72342-3.487-7.691-10.874-25.616-2.6837-6.512-7.0299-17.024-9.6581-23.36-2.6282-6.336-5.8876-14.218-7.2431-17.515-1.3555-3.2974-2.6117-5.9974-2.7915-6-0.17986-3e-3 -4.6439 2.167-9.92 4.8214-147.08 73.995-146.23 73.574-147.72 73.574-1.3246 0-1.4459-0.10237-8.8627-7.4819zm157.33-92.87c0.10571-0.48403-0.62455-2.542-2.0326-5.7281-0.3889-0.88-0.81771-1.96-0.95292-2.4s-0.49977-1.376-0.81013-2.08c-0.95772-2.1724-4.338-10.343-16.217-39.2-3.0791-7.48-5.8647-14.188-6.1902-14.906-0.32546-0.71818-0.89124-2.0862-1.2573-3.04s-0.79714-2.0222-0.958-2.3742c-0.37376-0.81789-3.8452-9.2013-9.6066-23.2-2.4991-6.072-4.7396-11.472-4.979-12-0.23936-0.528-0.74098-1.752-1.1147-2.72s-0.87994-2.192-1.1249-2.72c-0.24497-0.528-1.5883-3.696-2.9852-7.04-3.5918-8.5982-3.6865-8.8035-4.0146-8.6981-0.16231 0.05214-3.079 6.8545-6.4816 15.116s-6.3868 15.454-6.6316 15.982c-0.24479 0.528-0.76528 1.752-1.1566 2.72s-0.89779 2.192-1.1254 2.72-2.9616 7.152-6.0755 14.72c-3.1139 7.568-6.2322 15.128-6.9295 16.8s-1.3878 3.328-1.5344 3.68-0.56889 1.3224-0.93843 2.1565c-0.36954 0.83409-0.67189 1.598-0.67189 1.6976 0 0.0996-0.27323 0.78514-0.60718 1.5235-0.33395 0.73834-3.378 8.0384-6.7645 16.222s-10.186 24.6-15.109 36.48-9.5662 23.112-10.317 24.96c-0.75091 1.848-3.8468 9.336-6.8798 16.64-5.9571 14.346-8.3222 20.245-8.3222 20.756 0 0.50807 131.66-65.497 131.79-66.068z" />
  </g>
</svg>
