<?xml version="1.0" encoding="UTF-8" standalone="no"?>
<svg
   xmlns:dc="http://purl.org/dc/elements/1.1/"
   xmlns:cc="http://creativecommons.org/ns#"
   xmlns:rdf="http://www.w3.org/1999/02/22-rdf-syntax-ns#"
   xmlns:svg="http://www.w3.org/2000/svg"
   xmlns="http://www.w3.org/2000/svg"
   xmlns:sodipodi="http://sodipodi.sourceforge.net/DTD/sodipodi-0.dtd"
   xmlns:inkscape="http://www.inkscape.org/namespaces/inkscape"
   viewBox="0 0 512 512"
   xml:space="preserve"
   version="1.1"
   id="svg4554"
   sodipodi:docname="js-white-yellow.svg"
   inkscape:version="0.92.5 (2060ec1f9f, 2020-04-08)"><metadata
   id="metadata4560"><rdf:RDF><cc:Work
       rdf:about=""><dc:format>image/svg+xml</dc:format><dc:type
         rdf:resource="http://purl.org/dc/dcmitype/StillImage" /><dc:title></dc:title></cc:Work></rdf:RDF></metadata><defs
   id="defs4558" /><sodipodi:namedview
   pagecolor="#ffffff"
   bordercolor="#666666"
   borderopacity="1"
   objecttolerance="10"
   gridtolerance="10"
   guidetolerance="10"
   inkscape:pageopacity="0"
   inkscape:pageshadow="2"
   inkscape:window-width="1920"
   inkscape:window-height="1001"
   id="namedview4556"
   showgrid="false"
   inkscape:zoom="1.6113281"
   inkscape:cx="256"
   inkscape:cy="256"
   inkscape:window-x="-9"
   inkscape:window-y="-9"
   inkscape:window-maximized="1"
   inkscape:current-layer="g4552" /> <g
   transform="translate(1 1)"
   id="g4552"> <polygon
   points="7.501 502.5 502.5 502.5 502.5 7.501 7.501 7.501"
   fill="#FFE100"
   id="polygon4540" /> <polygon
   points="476.9 502.5 502.5 502.5 502.5 7.501 476.9 7.501"
   fill="#FFA800"
   id="polygon4542" /> <polygon
   points="7.501 502.5 33.104 502.5 33.104 7.501 7.501 7.501"
   fill="#fff"
   id="polygon4544" /> <path
   d="m502.5 511h-495c-4.695 0-8.501-3.806-8.501-8.501v-495c0-4.695 3.806-8.501 8.501-8.501h495c4.695 0 8.501 3.806 8.501 8.501v495c0 4.695-3.806 8.501-8.501 8.501zm-486.5-17.002h478v-478h-478v478z"
   id="path4546"
   style="fill:#ffffff;fill-opacity:1" /> <path
   d="m391.55 468.33c-42.334 0-76.777-34.442-76.777-76.777 0-4.695 3.807-8.501 8.501-8.501 4.695 0 8.501 3.806 8.501 8.501 0 32.959 26.815 59.775 59.775 59.775s59.775-26.815 59.775-59.775-26.815-59.775-59.775-59.775c-42.334 0-76.777-34.442-76.777-76.777s34.442-76.776 76.777-76.776 76.777 34.442 76.777 76.777c0 4.695-3.806 8.501-8.501 8.501s-8.501-3.806-8.501-8.501c0-32.96-26.815-59.775-59.775-59.775s-59.775 26.815-59.775 59.775c0 32.959 26.815 59.775 59.775 59.775 42.334 0 76.777 34.442 76.777 76.777s-34.443 76.776-76.777 76.776z"
   id="path4548"
   style="fill:#ffffff;fill-opacity:1" /> <path
   d="m212.33 468.33c-42.334 0-76.777-34.442-76.777-76.777 0-4.695 3.806-8.501 8.501-8.501s8.501 3.806 8.501 8.501c0 32.959 26.814 59.775 59.775 59.775s59.775-26.815 59.775-59.775v-204.83c0-4.695 3.806-8.501 8.501-8.501s8.501 3.806 8.501 8.501v204.83c-2e-3 42.335-34.443 76.778-76.777 76.778z"
   id="path4550"
   style="fill:#ffffff;fill-opacity:1" /> </g> </svg>