<?xml version="1.0" encoding="UTF-8"?> <svg xmlns="http://www.w3.org/2000/svg" viewBox="0 0 512 512" xml:space="preserve"> <g transform="translate(1 1)"> <polygon points="7.501 502.5 502.5 502.5 502.5 7.501 7.501 7.501" fill="#FFE100"></polygon> <polygon points="476.9 502.5 502.5 502.5 502.5 7.501 476.9 7.501" fill="#FFA800"></polygon> <polygon points="7.501 502.5 33.104 502.5 33.104 7.501 7.501 7.501" fill="#fff"></polygon> <path d="m502.5 511h-495c-4.695 0-8.501-3.806-8.501-8.501v-495c0-4.695 3.806-8.501 8.501-8.501h495c4.695 0 8.501 3.806 8.501 8.501v495c0 4.695-3.806 8.501-8.501 8.501zm-486.5-17.002h478v-478h-478v478z"></path> <path d="m391.55 468.33c-42.334 0-76.777-34.442-76.777-76.777 0-4.695 3.807-8.501 8.501-8.501 4.695 0 8.501 3.806 8.501 8.501 0 32.959 26.815 59.775 59.775 59.775s59.775-26.815 59.775-59.775-26.815-59.775-59.775-59.775c-42.334 0-76.777-34.442-76.777-76.777s34.442-76.776 76.777-76.776 76.777 34.442 76.777 76.777c0 4.695-3.806 8.501-8.501 8.501s-8.501-3.806-8.501-8.501c0-32.96-26.815-59.775-59.775-59.775s-59.775 26.815-59.775 59.775c0 32.959 26.815 59.775 59.775 59.775 42.334 0 76.777 34.442 76.777 76.777s-34.443 76.776-76.777 76.776z"></path> <path d="m212.33 468.33c-42.334 0-76.777-34.442-76.777-76.777 0-4.695 3.806-8.501 8.501-8.501s8.501 3.806 8.501 8.501c0 32.959 26.814 59.775 59.775 59.775s59.775-26.815 59.775-59.775v-204.83c0-4.695 3.806-8.501 8.501-8.501s8.501 3.806 8.501 8.501v204.83c-2e-3 42.335-34.443 76.778-76.777 76.778z"></path> </g> </svg> 