<?xml version="1.0" encoding="UTF-8" standalone="no"?>
<!-- Created with Inkscape (http://www.inkscape.org/) -->

<svg
   xmlns:dc="http://purl.org/dc/elements/1.1/"
   xmlns:cc="http://creativecommons.org/ns#"
   xmlns:rdf="http://www.w3.org/1999/02/22-rdf-syntax-ns#"
   xmlns:svg="http://www.w3.org/2000/svg"
   xmlns="http://www.w3.org/2000/svg"
   xmlns:sodipodi="http://sodipodi.sourceforge.net/DTD/sodipodi-0.dtd"
   xmlns:inkscape="http://www.inkscape.org/namespaces/inkscape"
   version="1.1"
   id="svg4562"
   width="885.00043"
   height="542.09845"
   viewBox="0 0 885.00043 542.09845"
   sodipodi:docname="nodejs-white.svg"
   inkscape:version="0.92.5 (2060ec1f9f, 2020-04-08)">
  <metadata
     id="metadata4568">
    <rdf:RDF>
      <cc:Work
         rdf:about="">
        <dc:format>image/svg+xml</dc:format>
        <dc:type
           rdf:resource="http://purl.org/dc/dcmitype/StillImage" />
        <dc:title></dc:title>
      </cc:Work>
    </rdf:RDF>
  </metadata>
  <defs
     id="defs4566" />
  <sodipodi:namedview
     pagecolor="#ffffff"
     bordercolor="#666666"
     borderopacity="1"
     objecttolerance="10"
     gridtolerance="10"
     guidetolerance="10"
     inkscape:pageopacity="0"
     inkscape:pageshadow="2"
     inkscape:window-width="1920"
     inkscape:window-height="1001"
     id="namedview4564"
     showgrid="false"
     inkscape:zoom="0.40225989"
     inkscape:cx="275.6882"
     inkscape:cy="286.35174"
     inkscape:window-x="-9"
     inkscape:window-y="-9"
     inkscape:window-maximized="1"
     inkscape:current-layer="svg4562" />
  <path
     style="fill:#ffffff;fill-opacity:1"
     d="m 415.71997,532.75512 c -8.64512,-5.0875 -15.71876,-9.82662 -15.71919,-10.53138 -4.3e-4,-0.70477 0.78672,-1.54076 1.74922,-1.85777 0.9625,-0.31701 4.12974,-1.69441 7.03831,-3.0609 2.90856,-1.36649 6.00528,-2.2094 6.88159,-1.87313 0.87631,0.33627 5.78406,3.0778 10.90611,6.09229 5.12205,3.01449 9.97444,5.48089 10.78308,5.48089 0.80864,0 19.50866,-10.41726 41.55559,-23.14947 L 519,480.70619 l -0.0218,-47.60054 -0.0218,-47.60053 -40.34187,-23.25 c -22.18804,-12.7875 -40.75016,-23.25 -41.24916,-23.25 -0.49901,0 -19.12285,10.51382 -41.38633,23.36404 L 355.5,385.7332 l -0.25978,47.11724 -0.25978,47.11724 3.75978,2.37276 c 12.03576,7.59562 22.6959,12.95951 26.63886,13.40394 3.77345,0.42532 4.77356,0.0963 7.72766,-2.54256 l 3.39326,-3.03112 0.5,-48.83279 0.5,-48.83279 h 7 7 l 0.25946,49.96349 c 0.28763,55.38982 0.20162,56.27842 -6.03189,62.3114 -4.63187,4.48287 -9.57384,6.22511 -17.65794,6.22511 -9.04492,0 -14.20962,-1.9842 -30.56963,-11.74437 -19.07822,-11.38182 -17.50128,-5.50315 -17.49442,-65.21752 0.003,-28.76911 0.40661,-49.98169 0.99022,-52.08247 0.54156,-1.94939 2.45155,-4.95147 4.24442,-6.67127 2.67757,-2.56844 71.10143,-42.81331 83.96994,-49.38862 2.13325,-1.09001 5.77042,-1.89575 8.55751,-1.89575 4.5124,0 7.80645,1.71022 47.67097,24.75 31.37396,18.13265 43.52386,25.66476 45.44246,28.17135 l 2.6189,3.42135 0.261,52.07865 c 0.2501,49.90809 0.1807,52.20928 -1.6649,55.21282 -2.8363,4.616 -4.9436,5.96592 -48.73321,31.21906 -49.84882,28.74744 -44.33297,27.61425 -67.64292,13.89677 z m 27.43007,-55.78528 C 428.19115,473.0517 420.27585,464.56667 419.69659,451.82827 L 419.5,447.50512 h 7.45603 7.45602 l 1.27986,4.42053 c 2.61891,9.04546 9.03551,12.07947 25.54677,12.07947 11.62635,0 17.74163,-1.32564 21.29138,-4.61544 2.18563,-2.02557 2.53278,-3.1073 2.27461,-7.0876 -0.26155,-4.03246 -0.73698,-4.9488 -3.35946,-6.47512 -1.68013,-0.97786 -7.41763,-2.4628 -12.75,-3.29988 -5.33236,-0.83708 -13.99911,-2.19688 -19.25943,-3.02179 -20.57005,-3.22572 -28.50939,-10.72363 -27.15624,-25.64636 0.96851,-10.68093 6.97573,-17.5422 18.86737,-21.54978 4.1947,-1.41364 8.38264,-1.79081 19.35309,-1.74293 17.1714,0.0749 23.32061,1.95808 30.54525,9.35426 4.72192,4.83402 8.44696,13.58595 7.78122,18.28185 -0.30694,2.16501 -0.76581,2.30279 -7.66944,2.30279 h -7.34298 l -1.32794,-3.86274 c -1.75457,-5.10369 -5.70159,-9.08564 -10.40184,-10.49387 -4.68685,-1.40421 -20.29405,-1.49065 -25.15853,-0.13933 -5.35711,1.48816 -8.12839,4.93553 -7.7429,9.63188 0.26999,3.28941 0.83767,4.11783 3.81716,5.57049 1.925,0.93854 10.7,2.86275 19.5,4.27604 8.8,1.41328 18.61091,3.29876 21.80202,4.18994 12.70764,3.54887 18.33817,11.13602 17.45231,23.51702 -0.91242,12.75233 -8.8704,20.8571 -23.81738,24.25672 -9.51555,2.16427 -25.53231,1.9426 -34.78691,-0.48143 z M 555.4504,396.59852 c -9.222,-4.01685 -12.3228,-16.83783 -5.9143,-24.45389 5.5877,-6.64067 15.62,-7.57542 21.9215,-2.04255 4.3427,3.8129 5.8997,7.83319 5.3299,13.76253 -0.5695,5.9277 -3.0185,9.48264 -8.3532,12.12598 -4.6742,2.31599 -8.6365,2.50152 -12.9839,0.60793 z m 14.1439,-4.67165 c 2.395,-1.98773 4.4057,-6.51575 4.4057,-9.92175 0,-7.10498 -5.2887,-12 -12.965,-12 -3.2335,0 -4.828,0.6998 -7.7997,3.42316 -3.3614,3.08051 -3.7353,3.92477 -3.7353,8.43434 0,4.19134 0.4847,5.51705 2.9624,8.10329 1.6294,1.70067 4.3294,3.45193 6,3.8917 3.4425,0.90616 8.8421,-0.0303 11.1319,-1.93074 z M 556,382.00512 v -9 h 4.3089 c 5.9951,0 8.1509,1.77938 7.4427,6.14317 -0.3073,1.89369 -0.2125,5.33616 0.2106,7.64995 0.7218,3.94713 0.6271,4.20688 -1.5331,4.20688 -1.8653,0 -2.3619,-0.61549 -2.6157,-3.24181 -0.2064,-2.13505 -0.9108,-3.35499 -2.0634,-3.57332 -1.402,-0.2656 -1.75,0.37902 -1.75,3.24181 0,2.90665 -0.3731,3.57332 -2,3.57332 -1.8518,0 -2,-0.66667 -2,-9 z m 6.4182,-1.60699 c 2.266,-0.86956 1.955,-3.39301 -0.4182,-3.39301 -1.3333,0 -2,0.66667 -2,2 0,2.20213 0.1238,2.27345 2.4182,1.39301 z M 510.95222,315.95778 C 487.0535,302.18175 466.4875,289.78166 465.25,288.40202 L 463,285.89359 v -52.92846 -52.92846 l 2.75,-2.90384 c 1.5125,-1.59712 22.1,-14.06221 45.75,-27.7002 33.4588,-19.29431 43.7833,-24.80586 46.5303,-24.8392 2.5946,-0.0315 6.6346,1.75984 15.2435,6.75898 6.4423,3.74101 12.5037,6.64972 13.4698,6.46379 1.6484,-0.31726 1.7871,-4.46154 2.2564,-67.421365 0.5392,-72.3413204 0.3794,-70.38972036 5.7621,-70.38972036 3.4756,0 55.0256,28.85074036 57.0985,31.95595036 1.4974,2.24324 1.6394,13.30139 1.6394,127.676615 v 125.22066 l -2.1065,2.82339 c -1.3227,1.77288 -18.252,12.19333 -45.5,28.00644 -36.6232,21.254 -44.025,25.1935 -47.4413,25.25 -3.5217,0.0583 -9.6952,-3.18844 -47.49998,-24.98039 z m 68.82008,-59.6406 9.2723,-5.45496 -0.2723,-18.15992 -0.2723,-18.15993 -15.229,-8.86485 -15.2289,-8.86485 -15.512,8.84622 -15.5119,8.84623 0.2409,18.36532 0.2409,18.36532 15,8.77266 15,8.77265 6.5,-3.50447 c 3.575,-1.92745 10.6725,-5.95919 15.7723,-8.95942 z M 322.5,338.59209 c -2.56754,-1.14234 -79.99736,-45.71288 -86.17884,-49.60669 -1.19836,-0.75487 -2.66086,-2.43042 -3.25,-3.72344 C 232.35354,283.68695 232,265.76912 232,230.97384 v -51.93717 l 2.75,-2.95693 c 1.5125,-1.62631 21.9899,-14.05341 45.50533,-27.61577 33.64474,-19.40438 43.50308,-24.65885 46.26445,-24.65885 4.90003,0 90.88556,49.35022 93.04227,53.40034 1.19871,2.25106 1.43425,11.40193 1.41571,55 -0.0204,48.04044 -0.16294,52.47393 -1.75,54.43953 -1.66512,2.0623 -82.38616,49.26527 -88.94564,52.01245 -3.87118,1.62129 -3.99351,1.62026 -7.78212,-0.0653 z m 419.6213,-24.93168 c -29.4618,-16.81818 -44.8277,-26.14376 -45.7145,-27.74433 -1.0654,-1.92274 -1.3431,-12.98846 -1.3714,-54.64518 l -0.035,-52.23423 2.75,-2.97986 c 4.0685,-4.40862 88.9481,-53.05169 92.5724,-53.05169 3.522,0 86.43,47.70918 91.4276,52.61177 l 3.25,3.18823 v 15.58422 15.58423 l -2.75,2.97826 c -3.0253,3.27639 -53.7848,33.05329 -56.3446,33.05329 -0.8775,0 -2.3402,-0.82293 -3.2504,-1.82874 -1.3701,-1.51395 -1.655,-4.18207 -1.655,-15.5 0,-11.70077 -0.2528,-13.92349 -1.7541,-15.42126 -3.0528,-3.04556 -29.2812,-17.45044 -30.7485,-16.88736 -3.7134,1.42495 -28.1506,15.95074 -29.2474,17.385 -0.8821,1.1535 -1.25,6.43486 -1.25,17.94349 0,14.29976 0.2188,16.52446 1.776,18.05887 0.9768,0.9625 21.0538,12.775 44.6154,26.25 28.1939,16.12419 43.1913,25.25744 43.8688,26.71557 0.7644,1.64518 0.6621,2.76883 -0.3974,4.36458 -2.2429,3.37801 -54.2389,31.92103 -58.1371,31.91418 -2.3754,-0.004 -14.9232,-6.68315 -47.6044,-25.33904 z M 1.75,316.92502 C 0.10994,315.96977 0,311.54627 0,246.51119 v -69.39454 l 2.25,-2.51082 c 1.2375,-1.38095 21.86139,-13.78104 45.83086,-27.55576 32.84128,-18.87315 44.39468,-25.04495 46.88333,-25.04495 2.48848,0 14.05292,6.17692 46.91914,25.06096 23.98917,13.78353 44.62917,26.18362 45.86667,27.55576 l 2.25,2.49481 v 68.87281 c 0,74.60576 0.188,72.01566 -5.22718,72.01566 -2.4793,0 -53.7909,-29.2583 -56.43927,-32.18215 -1.68206,-1.85702 -1.87486,-4.88677 -2.33355,-36.67106 -0.34046,-23.592 -0.86969,-35.28493 -1.65863,-36.64679 -1.69143,-2.91971 -25.95086,-16.5 -29.4751,-16.5 -3.22426,0 -26.2138,12.7675 -29.11627,16.17005 -1.59012,1.86409 -1.75014,5.07914 -1.75155,35.19073 -10e-4,29.56198 -0.1903,33.51273 -1.75,36.59942 -1.48925,2.94724 -5.67693,5.7221 -28.24845,18.7181 -14.575,8.39186 -27.4,15.25858 -28.5,15.2594 -1.1,8.1e-4 -2.7875,-0.45719 -3.75,-1.0178 z m 779.5397,-69.31476 c -11.0521,-6.58248 -10.3965,-5.47623 -10.073,-16.99714 l 0.2833,-10.09179 8.5,-5.18077 c 4.675,-2.84943 9.023,-5.21558 9.6622,-5.25811 1.3037,-0.0867 14.8791,7.43189 17.5878,9.74088 1.4437,1.23066 1.7473,3.17116 1.7347,11.08678 -0.01,5.27725 -0.3459,10.06974 -0.75,10.64996 -1.0621,1.52502 -16.9008,10.45438 -18.4381,10.39481 -0.7131,-0.0276 -4.5412,-1.98271 -8.5069,-4.34462 z"
     id="path5115"
     inkscape:connector-curvature="0" />
</svg>
