<?xml version="1.0" encoding="UTF-8" standalone="no"?>
<svg
   xmlns:dc="http://purl.org/dc/elements/1.1/"
   xmlns:cc="http://creativecommons.org/ns#"
   xmlns:rdf="http://www.w3.org/1999/02/22-rdf-syntax-ns#"
   xmlns:svg="http://www.w3.org/2000/svg"
   xmlns="http://www.w3.org/2000/svg"
   id="svg5145"
   version="1.1"
   xml:space="preserve"
   viewBox="0 0 512 512"><metadata
   id="metadata5151"><rdf:RDF><cc:Work
       rdf:about=""><dc:format>image/svg+xml</dc:format><dc:type
         rdf:resource="http://purl.org/dc/dcmitype/StillImage" /><dc:title></dc:title></cc:Work></rdf:RDF></metadata><defs
   id="defs5149" />  <g
   style="fill:#ffffff;fill-opacity:1"
   id="g5143"
   fill="#F2F2F2"> <path
   style="fill:#ffffff;fill-opacity:1"
   id="path5137"
   d="m130.17 178.24h-94.281l-26.864 145.37c5.81 21.285 14.294 41.462 25.088 60.155h8.746l10.407-56.299h51.806c63.08 0 80.039-56.633 84.104-84.449 4.075-27.805-16.269-64.773-59.006-64.773zm13.678 69.464c-2.309 15.768-13.96 47.877-49.716 47.877h-34.973l15.632-84.605h35.6c34.701 0 35.766 20.961 33.457 36.728z" /> <path
   style="fill:#ffffff;fill-opacity:1"
   id="path5139"
   d="m501.98 184.84c-8.014-4.138-17.565-6.604-28.599-6.604h-94.281l-37.982 205.52h44.951l10.407-56.299h51.806c28.056 0 46.989-11.201 59.705-26.091 2.635-14.723 4.014-29.885 4.014-45.37 0-24.691-3.5-48.567-10.021-71.158zm-14.921 62.861c-2.309 15.768-13.96 47.877-49.727 47.877h-34.962l15.632-84.605h35.6c34.701 0 35.766 20.961 33.457 36.728z" /> <path
   style="fill:#ffffff;fill-opacity:1"
   id="path5141"
   d="m309.24 178.92h-54.597l10.248-55.451h-44.766l-37.983 205.52h44.766l21.843-118.19h28.61c18.991 0 31.879 4.07 29.165 21.705-2.713 17.635-18.313 95.636-18.313 95.636h45.444s17.635-86.818 20.348-111.24c2.714-24.418-19.669-37.983-44.765-37.983z" /> </g> </svg>