<?xml version="1.0" encoding="UTF-8" standalone="no"?>
<!-- Created with Inkscape (http://www.inkscape.org/) -->

<svg
   xmlns:dc="http://purl.org/dc/elements/1.1/"
   xmlns:cc="http://creativecommons.org/ns#"
   xmlns:rdf="http://www.w3.org/1999/02/22-rdf-syntax-ns#"
   xmlns:svg="http://www.w3.org/2000/svg"
   xmlns="http://www.w3.org/2000/svg"
   xmlns:sodipodi="http://sodipodi.sourceforge.net/DTD/sodipodi-0.dtd"
   xmlns:inkscape="http://www.inkscape.org/namespaces/inkscape"
   version="1.1"
   id="svg2"
   width="183.50171"
   height="184.52477"
   viewBox="0 0 183.50171 184.52477"
   sodipodi:docname="wordpress-logo.svg"
   inkscape:version="0.92.5 (2060ec1f9f, 2020-04-08)">
  <metadata
     id="metadata8">
    <rdf:RDF>
      <cc:Work
         rdf:about="">
        <dc:format>image/svg+xml</dc:format>
        <dc:type
           rdf:resource="http://purl.org/dc/dcmitype/StillImage" />
        <dc:title></dc:title>
      </cc:Work>
    </rdf:RDF>
  </metadata>
  <defs
     id="defs6" />
  <sodipodi:namedview
     pagecolor="#ffffff"
     bordercolor="#666666"
     borderopacity="1"
     objecttolerance="10"
     gridtolerance="10"
     guidetolerance="10"
     inkscape:pageopacity="0"
     inkscape:pageshadow="2"
     inkscape:window-width="1920"
     inkscape:window-height="1001"
     id="namedview4"
     showgrid="false"
     inkscape:zoom="1.2431112"
     inkscape:cx="545.80608"
     inkscape:cy="104.04215"
     inkscape:window-x="-9"
     inkscape:window-y="-9"
     inkscape:window-maximized="1"
     inkscape:current-layer="svg2" />
  <path
     style="fill:#000000"
     d="m 80.554207,183.78237 c -33.29893,-4.35453 -62.45767,-27.12942 -74.4804997,-58.17414 -5.9743,-15.42655 -7.73186,-36.333359 -4.41986,-52.576128 7.25867,-35.59813 36.3982597,-64.5032296 72.3387097,-71.7566196 10.276724,-2.07401005 32.219753,-1.53692005 41.589623,1.01798 9.53422,2.59971 27.29465,11.7819596 34.73311,17.9572296 14.17938,11.77144 25.77882,29.77326 30.97611,48.07357 1.95364,6.87901 2.26245,10.24197 2.20384,23.999999 -0.0613,14.384479 -0.33867,16.887349 -2.74733,24.788319 -4.63688,15.21002 -11.62461,27.52241 -21.61296,38.08206 -20.50502,21.67784 -49.83242,32.34717 -78.580743,28.58773 z m 30.390783,-6.55206 c 30.79753,-6.91958 55.40649,-30.06943 64.7449,-60.90605 2.42485,-8.00716 2.73311,-10.65473 2.79432,-23.999999 0.0586,-12.784409 -0.27003,-16.181649 -2.22512,-22.999999 -7.0144,-24.46256 -23.49657,-44.57913 -45.67691,-55.7489 -2.75,-1.38487 -8.825,-3.7843896 -13.5,-5.3322796 -7.86496,-2.60408 -9.69537,-2.81731 -24.499999,-2.85411 -18.437444,-0.0458 -23.562584,1.01202 -38.000004,7.8433096 -22.31032,10.55648 -40.50876,32.39039 -47.1690997,56.59198 -2.80546,10.19417 -2.5706,34.926448 0.43009,45.291488 10.2009797,35.23636 40.5154397,60.54379 76.7390137,64.06404 6.19586,0.60212 19.328489,-0.36901 26.362809,-1.94948 z m -28.398893,-6.41839 c -9.06466,-1.23085 -13.00332,-2.50177 -12.68536,-4.09331 0.57346,-2.87049 22.522214,-66.42707 23.203874,-67.190999 0.8801,-0.98631 25.337879,65.969349 24.558279,67.230779 -1.70042,2.75133 -24.912219,5.43372 -35.076793,4.05353 z M 49.487207,158.9689 c -17.7403,-11.58253 -29.64147,-28.38778 -34.47786,-48.68508 -3.01411,-12.649569 -2.39765,-30.341268 1.47078,-42.209558 1.47898,-4.5375 3.00698,-8.24343 3.39555,-8.2354 0.38857,0.008 7.83804,19.69553 16.55438,43.749998 8.71633,24.05447 17.14149,47.2229 18.72256,51.4854 3.38563,9.12747 2.88088,9.47446 -5.66541,3.89464 z m 81.811783,0.70642 c 1.33905,-3.55886 26.26198,-75.915538 27.50433,-79.851058 0.7813,-2.475 1.72626,-9.45 2.09992,-15.5 l 0.67937,-11 3.17149,7.5 c 6.53647,15.45754 8.06554,35.777419 3.87538,51.499998 -3.94374,14.79794 -14.01725,30.69487 -25.47688,40.20484 -7.45827,6.18939 -12.6775,9.33592 -11.85361,7.14622 z M 71.694217,139.82426 c -0.34011,-0.825 -6.87713,-20.27458 -14.52672,-43.221289 l -13.90833,-41.721289 3.1615,-0.50902 c 1.73883,-0.27996 4.28651,-0.63038 5.66151,-0.77871 1.72672,-0.18627 2.59884,-0.96564 2.81955,-2.51969 0.383,-2.6968 1.05896,-2.59785 -15.56955,-2.27897 -7.2875,0.13975 -13.25,-0.14219 -13.25,-0.62652 0,-1.70576 9.76875,-12.70279 15.59972,-17.56117 8.18681,-6.82125 23.8233,-14.27186 34.34182,-16.36349 11.318844,-2.25077 28.685053,-1.53276 38.558463,1.59421 9.32817,2.95428 18.89726,7.86101 25.48348,13.06712 l 5.39072,4.26111 -3.89269,1.34769 c -5.20207,1.801 -8.28707,4.87422 -9.53129,9.49489 -1.34895,5.00961 -0.0431,9.74386 5.1924,18.82473 2.24772,3.8986 4.96045,9.38776 6.02831,12.19813 2.13252,5.61233 2.61519,15.736139 1.06282,22.292269 -2.4353,10.285039 -12.63614,42.485399 -13.23768,41.786589 -0.37242,-0.43262 -7.01884,-19.55933 -14.76984,-42.503799 l -14.09272,-41.717209 3.18325,-0.5131 c 1.75078,-0.2822 4.30824,-0.63446 5.68324,-0.78279 1.88757,-0.20362 2.5,-0.85028 2.5,-2.63969 v -2.37 H 90.582181 67.582177 v 2.37 c 0,2.08108 0.57393,2.43599 4.70797,2.9113 2.58938,0.29772 4.93274,0.76608 5.20747,1.04081 0.27472,0.27472 3.21201,7.93241 6.527314,17.01708 l 6.02781,16.517589 -8.870074,26.441609 c -4.96147,14.79011 -9.14256,25.78064 -9.48845,24.94161 z"
     id="path817"
     inkscape:connector-curvature="0"
     sodipodi:nodetypes="ssssssscssssscssscssssscccccssscscsssccsscscsccccsscsscccscsscscccscccscsscsc" />
</svg>
