<?xml version="1.0" encoding="UTF-8" standalone="no"?>
<svg
   xmlns:dc="http://purl.org/dc/elements/1.1/"
   xmlns:cc="http://creativecommons.org/ns#"
   xmlns:rdf="http://www.w3.org/1999/02/22-rdf-syntax-ns#"
   xmlns:svg="http://www.w3.org/2000/svg"
   xmlns="http://www.w3.org/2000/svg"
   xmlns:sodipodi="http://sodipodi.sourceforge.net/DTD/sodipodi-0.dtd"
   xmlns:inkscape="http://www.inkscape.org/namespaces/inkscape"
   viewBox="0 0 447.67998 447.67998"
   xml:space="preserve"
   version="1.1"
   id="svg16"
   sodipodi:docname="wordpress.svg"
   width="447.67999"
   height="447.67999"
   inkscape:version="0.92.5 (2060ec1f9f, 2020-04-08)"><defs
   id="defs20" /><sodipodi:namedview
   pagecolor="#ffffff"
   bordercolor="#666666"
   borderopacity="1"
   objecttolerance="10"
   gridtolerance="10"
   guidetolerance="10"
   inkscape:pageopacity="0"
   inkscape:pageshadow="2"
   inkscape:window-width="1920"
   inkscape:window-height="1001"
   id="namedview18"
   showgrid="false"
   inkscape:zoom="1.0543386"
   inkscape:cx="225.56594"
   inkscape:cy="149.24617"
   inkscape:window-x="-9"
   inkscape:window-y="-9"
   inkscape:window-maximized="1"
   inkscape:current-layer="svg16" /><metadata
   id="metadata2"><rdf:RDF><cc:Work
       rdf:about=""><dc:format>image/svg+xml</dc:format><dc:type
         rdf:resource="http://purl.org/dc/dcmitype/StillImage" /></cc:Work></rdf:RDF></metadata> <g
   id="g14"
   transform="translate(0.01)"
   style="fill:#ffffff;fill-opacity:1"> <path
   d="m 134.29,138.16 h -24.722 l 67.399,190.52 37.732,-107.82 -29.254,-82.696 H 159.361 V 120.01 h 115.51 v 18.154 h -27.049 l 67.398,190.52 24.227,-69.234 c 31.781,-88.702 -26.048,-116.33 -26.048,-136.13 0,-19.8 16.048,-35.843 35.843,-35.843 1.071,0 2.111,0.058 3.13,0.153 -33.541,-31.663 -78.768,-51.08 -128.53,-51.08 -65.027,0 -122.31,33.146 -155.88,83.458 h 66.336 v 18.154 h 0.002 z"
   id="path4"
   style="fill:#ffffff;fill-opacity:1"
   inkscape:connector-curvature="0" /> <path
   d="m 36.548,223.84 c 0,71.704 40.302,133.99 99.483,165.46 L 51.511,150.38 c -9.628,22.556 -14.963,47.385 -14.963,73.461 z"
   id="path6"
   inkscape:connector-curvature="0"
   style="fill:#ffffff;fill-opacity:1" /> <path
   d="m 386.83,131.55 c 2.679,15.774 1.868,33.503 -2.243,51.301 h 0.745 l -2.832,8.092 c -1.678,5.843 -3.791,11.82 -6.191,17.693 l -64.444,180.54 c 59.057,-31.51 99.256,-93.725 99.256,-165.34 0,-33.557 -8.834,-65.048 -24.291,-92.289 z"
   id="path8"
   inkscape:connector-curvature="0"
   style="fill:#ffffff;fill-opacity:1" /> <path
   d="m 166.08,402.03 c 18.195,5.894 37.603,9.091 57.762,9.091 19.228,0 37.777,-2.902 55.239,-8.285 l -54.784,-154.86 -58.217,154.06 z"
   id="path10"
   inkscape:connector-curvature="0"
   style="fill:#ffffff;fill-opacity:1" /> <path
   d="M 382.11,65.56 C 339.833,23.283 283.622,0 223.83,0 164.038,0 107.83,23.283 65.55,65.56 23.27,107.837 -0.01,164.047 -0.01,223.84 c 0,59.789 23.283,116 65.56,158.28 42.277,42.28 98.488,65.56 158.28,65.56 59.792,0 116,-23.283 158.28,-65.56 42.277,-42.277 65.56,-98.488 65.56,-158.28 -0.001,-59.79 -23.284,-116 -65.561,-158.28 z M 223.83,431.88 c -114.72,0 -208.05,-93.329 -208.05,-208.05 0,-114.721 93.329,-208.05 208.05,-208.05 114.721,0 208.05,93.33 208.05,208.05 0,114.72 -93.328,208.05 -208.05,208.05 z"
   id="path12"
   inkscape:connector-curvature="0"
   style="fill:#ffffff;fill-opacity:1" /> </g> </svg>