<?xml version="1.0" encoding="UTF-8" standalone="no"?> <svg xmlns:dc="http://purl.org/dc/elements/1.1/" xmlns:cc="http://creativecommons.org/ns#" xmlns:rdf="http://www.w3.org/1999/02/22-rdf-syntax-ns#" xmlns:svg="http://www.w3.org/2000/svg" xmlns="http://www.w3.org/2000/svg" xmlns:sodipodi="http://sodipodi.sourceforge.net/DTD/sodipodi-0.dtd" xmlns:inkscape="http://www.inkscape.org/namespaces/inkscape" viewBox="0 0 172 28" height="28" width="172" xml:space="preserve" id="svg2" sodipodi:docname="euromebel_logo_white.svg" inkscape:version="0.92.4 (5da689c313, 2019-01-14)"><metadata id="metadata8"></metadata><defs id="defs6"></defs><g transform="matrix(1.3333333,0,0,-1.3333333,0,28)" id="g10"><g transform="scale(0.1)" id="g12"><path id="path14" style="fill:#ffffff;fill-opacity:1;fill-rule:nonzero;stroke:none" d="m 1294.0906,5.5071902 h -39.1 V 205.78069 h 39.1 z m -53.67,43.4296998 c -4.54,-15.3438 -12.64,-27.0625 -24.36,-35.1992 -11.72,-8.1367498 -25.34,-12.1836198 -40.87,-12.1836198 -24.42,0 -43.11,6.74222 -55.99,20.2304198 -12.87,13.4805 -19.34,32.1758 -19.34,56.0313 0,23.9919 6.05,43.3359 18.19,57.9839 12.14,14.649 30.22,21.993 54.26,21.993 21.63,0 38.64,-6.836 51.1,-20.551 12.42,-13.719 18.65,-34.129 18.65,-61.1954 v -6.9258 h -103.07 c 0.9,-12.0899 4.43,-21.1133 10.57,-27.1563 6.19,-6.0468 14.61,-9.0703 25.22,-9.0703 6.36,0 11.86,1.4883 16.5,4.418 4.61,2.9297 7.61,6.8359 8.99,11.625 z m -38.53,45.5234 c -0.84,9.4414 -3.9,17.0194 -9.26,22.7424 -5.35,5.719 -12.33,8.601 -20.83,8.601 -18.5,0 -29.11,-10.464 -31.77,-31.3434 z m -212.62398,40.1794 h 0.563 c 9.64,15.438 23.91098,23.153 42.87098,23.153 18.02,0 32.8,-6.836 44.36,-20.504 11.58,-13.672 17.35,-32.317 17.35,-55.8948 0,-23.7109 -5.47,-42.9648 -16.46,-57.707 -11.03,-14.7382998 -26.36,-22.1328198 -46.03,-22.1328198 -19.53,0 -33.85698,7.53512 -42.91898,22.6015198 h -0.547 V 5.5071902 h -38.281 V 205.78069 h 39.093 z m 64.98398,-55.988 c 0,14.5078 -2.95,25.715 -8.81,33.574 -5.86,7.856 -13.99,11.762 -24.45,11.762 -11.25,0 -19.63,-4.09 -25.16098,-12.277 -5.563,-8.133 -8.313,-19.9457 -8.313,-35.3832 0,-13.5351 3.125,-24.043 9.344,-31.4844 6.18798,-7.4375 14.58998,-11.1562 25.24998,-11.1562 9.44,0 17.16,3.9961 23.16,12.043 6,8.0468 8.98,19.0156 8.98,32.9218 z M 935.61062,48.93689 c -4.562,-15.3438 -12.656,-27.0625 -24.375,-35.1992 -11.719,-8.1367498 -25.328,-12.1836198 -40.844,-12.1836198 -24.422,0 -43.109,6.74222 -56,20.2304198 -12.875,13.4805 -19.343,32.1758 -19.343,56.0313 0,23.9919 6.031,43.3359 18.187,57.9839 12.125,14.649 30.219,21.993 54.25,21.993 21.625,0 38.641,-6.836 51.094,-20.551 12.437,-13.719 18.656,-34.129 18.656,-61.1954 v -6.9258 h -103.078 c 0.922,-12.0899 4.453,-21.1133 10.609,-27.1563 6.157,-6.0468 14.578,-9.0703 25.188,-9.0703 6.375,0 11.859,1.4883 16.5,4.418 4.609,2.9297 7.64,6.8359 8.984,11.625 z m -38.547,45.5234 c -0.844,9.4414 -3.906,17.0194 -9.265,22.7424 -5.329,5.719 -12.313,8.601 -20.813,8.601 -18.516,0 -29.125,-10.464 -31.75,-31.3434 z M 782.76662,5.5071902 h -39.125 V 96.36669 c 0,8.605 -1.718,15.531 -5.156,20.789 -3.437,5.207 -9.062,7.812 -16.734,7.812 -7.719,0 -13.953,-2.418 -18.688,-7.21 -4.687,-4.836 -7.078,-12.09 -7.078,-21.8052 V 5.5071902 h -39.094 V 98.13269 c 0,9.257 -1.859,16.046 -5.593,20.371 -3.704,4.324 -9.657,6.464 -17.844,6.464 -8.156,0 -14.219,-2.418 -18.219,-7.304 -4.016,-4.836 -6,-12.09 -6,-21.7112 V 5.5071902 h -39.125 V 153.98369 h 37.484 v -21.812 h 0.563 c 8.687,17.066 23.062,25.621 43.016,25.621 18.171,0 31.609,-7.903 40.312,-23.711 9.891,15.808 23.094,23.711 39.656,23.711 15.25,0 27.688,-4.321 37.25,-13.016 9.563,-8.652 14.375,-20.832 14.375,-36.551 z M 555.14162,79.71809 c 0,-24.2226 -6.984,-43.332 -20.937,-57.2382 -13.906,-13.9492998 -32.125,-20.9258198 -54.547,-20.9258198 -22.063,0 -40.172,6.92972 -54.25,20.7890198 -14.141,13.8555 -21.219,32.9649 -21.219,57.375 0,24.6486 7.078,43.8046 21.219,57.5236 14.078,13.715 32.187,20.551 54.25,20.551 22.609,0 40.844,-7.02 54.687,-21.063 13.875,-13.996 20.797,-33.015 20.797,-57.0116 z m -40.187,0.0508 c 0,14.1367 -2.938,25.2028 -8.781,33.1988 -5.875,8 -14.688,12 -26.516,12 -10.953,0 -19.609,-3.769 -25.891,-11.253 -6.281,-7.489 -9.406,-18.7895 -9.406,-33.9458 0,-14.9258 3.031,-26.1836 9.125,-33.8047 6.094,-7.625 14.828,-11.4414 26.172,-11.4414 11.719,0 20.578,3.9532 26.469,11.8594 5.89,7.9023 8.828,19.0156 8.828,33.3867 z m -194.922,74.2148 h 37.484 v -25.762 h 0.547 c 4.516,9.715 10,17.067 16.453,22.086 6.469,4.977 14.563,7.485 24.282,7.485 2.562,0 5.031,-0.184 7.484,-0.555 v -39.668 c -1.813,0.375 -5.531,0.559 -11.156,0.559 -12.188,0 -21.25,-2.926 -27.172,-8.786 -5.891,-5.859 -8.813,-14.7417 -8.813,-26.5972 V 5.5071902 h -39.109 z M 305.90762,5.5071902 h -37.344 V 26.47989 h -0.562 c -9.844,-16.6054998 -24.953,-24.9258198 -45.203,-24.9258198 -15.688,0 -28.079,4.64842 -37.047,13.9023198 -8.985,9.2539 -13.485,22.8828 -13.485,40.875 v 97.6523 h 39.11 v -92.0742 c 0,-9.4335 2.172,-16.3671 6.547,-20.7851 4.343,-4.418 10.609,-6.6016 18.781,-6.6016 8.797,0 16,2.9297 21.625,8.7891 5.625,5.8594 8.469,14.1797 8.469,24.9687 v 85.7031 h 39.109 z M 156.53262,170.35069 H 50.28252 v -42.086 h 97.6561 v -35.4333 h -97.6561 v -51.8945 h 111.0471 V 5.5071902 H 9.2668697 V 205.78069 H 156.53262 v -35.43" inkscape:connector-curvature="0"></path></g></g></svg> 