<?xml version="1.0" encoding="UTF-8" standalone="no"?> <svg xmlns:dc="http://purl.org/dc/elements/1.1/" xmlns:cc="http://creativecommons.org/ns#" xmlns:rdf="http://www.w3.org/1999/02/22-rdf-syntax-ns#" xmlns:svg="http://www.w3.org/2000/svg" xmlns="http://www.w3.org/2000/svg" viewBox="0 0 359.65247 152.87477" height="152.87477" width="359.65247" id="svg815"><metadata id="metadata821"></metadata><defs id="defs819"></defs><path id="path825" d="m 134.61458,151.95534 c -4.97558,-2.16549 -5.31186,-6.96306 -1.32622,-18.92037 3.74195,-11.22621 16.30931,-50.606146 16.79906,-52.639996 l 0.42381,-1.76 -5.02938,-0.01 c -2.76616,-0.005 -5.44592,-0.27334 -5.95502,-0.59542 -0.5091,-0.32209 -1.0851,-1.97368 -1.28,-3.6702 l -0.35436,-3.08458 -2.92347,-0.19031 c -2.62727,-0.17103 -3.00178,-0.0184 -3.69653,1.50641 -0.44183,0.96971 -0.59837,2.62807 -0.36532,3.87031 l 0.40777,2.17359 h -6.41888 c -7.515,0 -8.44357,-0.25487 -8.44357,-2.31749 0,-0.8473 3.64357,-8.63364 8.09682,-17.303 7.08865,-13.799805 7.99854,-15.919835 7.30746,-17.026435 -1.42686,-2.28476 0.0329,-2.71307 9.24663,-2.71307 7.38676,0 8.74407,0.15941 9.72688,1.1424 1.1722,1.1724 1.17613,1.2038 2.438,19.497595 0.49427,7.16561 1.0558,8.79428 1.87558,5.44 0.36083,-1.47636 3.58223,-11.699415 10.01604,-31.785695 0.66692,-2.08214 1.21259,-4.02614 1.21259,-4.32 0,-0.293869 -1.368,-0.543464 -3.04,-0.554658 -1.672,-0.01119 -3.53268,-0.394666 -4.13485,-0.852157 -1.57931,-1.199885 -2.53928,-4.161209 -2.08722,-6.438672 0.6192,-3.11946 6.16479,-19.8019112 6.88488,-20.71131417 0.51399,-0.64914 5.56556,-0.784032 23.96733,-0.64 l 23.31607,0.182497 1.86689,2.09009697 c 2.88878,3.23416 2.58519,6.136106 -2.23877,21.3993582 -7.23357,22.887409 -9.36595,29.483929 -9.71179,30.043509 -0.57312,0.92734 0.22059,0.61491 2.68287,-1.05604 4.55107,-3.08844 7.52342,-3.51692 24.39624,-3.51692 14.17222,0 15.81084,0.113 18.02607,1.24313 3.28148,1.67408 4.55227,3.79836 4.55227,7.609595 0,3.05191 -3.25627,14.30297 -4.61545,15.94727 -0.48405,0.5856 -3.73297,0.8 -12.123,0.8 -9.62916,0 -11.52098,-0.15444 -11.83239,-0.96595 -0.28237,-0.73584 3.49494,-13.68879 6.01725,-20.634045 0.1598,-0.44 -0.13733,-0.8 -0.66029,-0.8 -1.09045,0 -1.57167,1.09988 -4.34025,9.919995 -1.10491,3.52 -2.81968,8.848 -3.8106,11.84 -0.99092,2.992 -4.02629,12.352 -6.74528,20.8 -2.71898,8.447996 -5.08265,15.603686 -5.25259,15.901516 -0.16995,0.29784 0.2026,0.44184 0.82787,0.32 1.29978,-0.25326 1.28612,-0.21783 7.61114,-19.741516 l 4.66512,-14.4 12.55432,-0.17348 c 9.92408,-0.13714 12.50033,-0.003 12.29659,0.64 -0.14175,0.44741 -1.01749,3.26148 -1.94608,6.25348 -1.65279,5.32545 -11.81793,36.897266 -14.73328,45.759996 l -1.47368,4.48 -12.01316,0.17454 c -6.60723,0.096 -12.21929,-0.048 -12.47123,-0.32 -0.25194,-0.272 0.77577,-4.23854 2.28379,-8.81454 1.50803,-4.576 2.61223,-8.536 2.45377,-8.8 -0.15846,-0.264 -3.86528,-0.48 -8.23738,-0.48 -9.08694,0 -12.15926,-0.85152 -14.69974,-4.07415 -0.89518,-1.13557 -1.58433,-1.60299 -1.58835,-1.07733 -0.004,0.51069 -1.87745,6.72248 -4.16344,13.80399 -2.28598,7.08151 -4.34012,14.21631 -4.56474,15.8551 -0.38099,2.77957 -0.2979,3.02164 1.23742,3.60538 2.90002,1.10258 3.43368,3.68769 1.5621,7.56701 l -0.69473,1.44 -19.89185,-0.025 c -15.31004,-0.0193 -20.35204,-0.22534 -21.88974,-0.89458 z m 35.225,-5.32037 c -1.20906,-2.65604 -0.96276,-8.18855 0.59123,-13.28 1.42054,-4.65428 10.77987,-34.128306 17.17282,-54.079996 1.40986,-4.4 3.37623,-10.592 4.36971,-13.76 0.99349,-3.168 3.87121,-12.239995 6.39495,-20.159995 2.52374,-7.92 6.00837,-18.864004 7.74364,-24.320004 1.73525,-5.456 3.33153,-10.993527 3.54727,-12.3056162 0.35541,-2.161514 0.23058,-2.447087 -1.32891,-3.04 -2.65377,-1.008967 -39.70599,-0.875793 -40.51379,0.145616 -0.92505,1.16967 -5.28403,14.6335882 -5.28403,16.3212002 0,1.301622 0.30786,1.4388 3.22908,1.4388 2.57509,0 3.54726,0.318165 4.8,1.570909 0.864,0.864 1.57092,1.837849 1.57092,2.16411 0,0.563777 -5.2298,17.666985 -7.27294,23.784985 -0.52898,1.584 -2.7315,8.495995 -4.89448,15.359995 -2.16297,6.864 -4.32969,13.632 -4.81494,15.04 -0.48525,1.408 -2.50516,7.744 -4.48869,14.08 -1.98353,6.335996 -4.03719,12.815996 -4.56368,14.399996 -0.5265,1.584 -3.09206,9.62535 -5.70127,17.86967 -4.40321,13.91288 -5.39534,18.38566 -4.31734,19.46366 0.23467,0.23467 8.04148,0.42667 17.34848,0.42667 15.88356,0 16.89052,-0.0687 16.41197,-1.12 z M 137.62047,61.178974 c -0.0792,-0.76525 -0.95699,-0.61705 -1.232,0.208 -0.1408,0.4224 0.0896,0.6528 0.512,0.512 0.4224,-0.1408 0.7464,-0.4648 0.72,-0.72 z m 114.40579,53.567736 c -5.42183,-1.66874 -7.59366,-6.31495 -5.69169,-12.17624 0.33116,-1.02052 2.6683,-8.335496 5.19364,-16.255496 9.01181,-28.26287 9.69218,-29.799595 14.899,-33.651905 4.27967,-3.16635 6.39959,-3.46809 24.365,-3.46809 15.32496,0 16.60515,0.0887 19.01416,1.3177 3.22097,1.64322 4.71071,4.76921 4.16617,8.742075 -0.29502,2.15235 -3.93441,14.45872 -4.44465,15.02928 -0.0635,0.071 -6.55048,0.28699 -14.41555,0.48 l -14.30013,0.35094 -1.47781,4.48 c -5.8124,17.62033 -9.92194,30.493816 -9.92194,31.081396 0,0.38085 0.49317,0.59748 1.09593,0.4814 0.823,-0.15849 2.46886,-4.43378 6.6088,-17.166926 l 5.51287,-16.95587 12.38498,-0.17423 c 6.81174,-0.0958 12.61654,0.0573 12.89955,0.34036 0.75406,0.75405 -8.03122,27.110596 -10.05695,30.171696 -2.07766,3.13955 -6.43693,6.1488 -10.77238,7.43629 -4.44569,1.32023 -30.71874,1.27348 -35.059,-0.0624 z m 35.25697,-53.073876 c 2.92501,-8.970575 2.98055,-9.277855 1.67675,-9.277855 -0.6342,0 -1.76015,2.63332 -3.52,8.232425 -1.42313,4.52785 -2.58752,8.41585 -2.58752,8.64 0,0.22416 0.40985,0.40757 0.91077,0.40757 0.60002,0 1.80106,-2.73037 3.52,-8.00214 z m 18.30414,52.642136 c 0.83159,-2.84332 12.08846,-37.557636 16.55083,-51.039996 l 4.55426,-13.759995 12.33567,-0.17388 12.33568,-0.17387 -0.4214,1.77387 c -0.23178,0.97563 -1.79287,5.949875 -3.4691,11.053875 -6.74999,20.55322 -11.71371,35.81844 -13.42281,41.279996 -0.99137,3.168 -2.00331,6.264 -2.24874,6.88 -0.4169,1.04635 0.48416,1.12 13.70223,1.12 8.53991,0 14.14847,0.24177 14.14847,0.60989 0,0.33543 -0.33423,1.34343 -0.74273,2.24 l -0.74273,1.63011 H 331.6666 305.1662 Z M 0.77247754,78.211114 c -0.965694,-0.38967 -1.036116,-3.38181 -0.153967,-6.54189 0.98441796,-3.52644 4.24616096,-17.619945 5.54141196,-23.943625 0.871501,-4.25485 0.968335,-5.74353 0.396581,-6.09689 -0.489956,-0.30281 -0.551138,-0.79978 -0.173661,-1.41063 0.785868,-1.27172 13.0055105,-1.51153 15.3502775,-0.30124 1.138076,0.58743 2.329619,2.55607 4.123156,6.81216 1.387383,3.29229 2.611095,6.10598 2.719358,6.25264 0.456552,0.6185 0.92351,-0.67205 1.848711,-5.10934 0.788205,-3.78025 0.826925,-4.99321 0.196967,-6.1703 -0.431253,-0.8058 -0.568163,-1.68153 -0.304245,-1.94606 0.263917,-0.26453 3.165467,-0.57985 6.447887,-0.70071 5.438893,-0.20026 6.091743,-0.096 7.363243,1.17546 0.88542,0.88543 1.28268,1.90109 1.08725,2.77975 -0.90533,4.07036 -5.911841,25.179555 -7.083032,29.864535 l -1.359937,5.44 -6.141938,0.18199 c -7.606476,0.22538 -8.100065,-0.1099 -11.06867,-7.51883 -1.193728,-2.97926 -2.430914,-5.50367 -2.749303,-5.6098 -0.318388,-0.10613 -1.12387,1.99557 -1.789961,4.67044 -0.979166,3.93212 -1.061299,5.10323 -0.428919,6.11584 0.430185,0.68883 0.611401,1.52871 0.402702,1.86639 -0.383798,0.621 -12.7465615,0.78623 -14.22391146,0.19011 z M 49.454917,77.391204 c -5.15814,-2.34187 -6.08277,-7.34731 -3.43521,-18.59623 2.92487,-12.427185 4.5658,-15.622035 9.16803,-17.849935 3.65869,-1.77114 12.70228,-2.44224 18.7418,-1.39078 5.42032,0.94366 8.09004,2.81492 9.57921,6.71425 1.08128,2.8313 1.07047,2.94154 -1.27199,12.971015 -2.67291,11.44433 -3.395,13.28233 -6.28899,16.00802 -3.02401,2.84816 -5.44658,3.38897 -15.11079,3.37337 -7.16375,-0.0116 -9.17844,-0.22923 -11.38206,-1.22971 z m 14.13075,-10.11623 c 1.00989,-3.33211 3.58681,-15.212795 3.58681,-16.536745 0,-1.72018 -1.5598,-2.12503 -2.16011,-0.56067 -0.30751,0.80138 -2.59194,10.164435 -3.91406,16.042395 -0.50355,2.23871 1.82878,3.22797 2.48736,1.05502 z m 28.34324,10.56 c -1.25794,-0.92477 -1.76915,-3.74372 -3.62698,-20 -1.7353,-15.184185 -1.802,-15.537785 -3.07519,-16.302135 -1.03018,-0.61845 -1.02903,-0.70767 0.0196,-1.52344 1.4969,-1.16452 15.435433,-1.07711 16.629653,0.10429 0.44909,0.44427 1.10779,3.6053 1.46379,7.02452 l 0.64727,6.21677 2.13047,-5.0542 c 1.8557,-4.40239 2.0266,-5.24826 1.32509,-6.55904 -0.44295,-0.82766 -0.64149,-1.66871 -0.4412,-1.869 0.60951,-0.60951 10.95623,-0.8188 12.43481,-0.25153 3.11103,1.19358 3.04656,1.383 -9.68339,28.453765 -1.65527,3.52 -3.44982,7.336 -3.98788,8.48 l -0.97829,2.08 h -5.884747 c -3.70076,0 -6.288626,-0.29691 -6.972966,-0.8 z" style="fill:#ffffff;stroke-width:0.63999999;fill-opacity:1"></path></svg> 