<?xml version="1.0" encoding="UTF-8" standalone="no"?>
<svg
   xmlns:dc="http://purl.org/dc/elements/1.1/"
   xmlns:cc="http://creativecommons.org/ns#"
   xmlns:rdf="http://www.w3.org/1999/02/22-rdf-syntax-ns#"
   xmlns:svg="http://www.w3.org/2000/svg"
   xmlns="http://www.w3.org/2000/svg"
   viewBox="0 0 134.10113 143.5084"
   height="143.50841"
   width="134.10114"
   id="svg2"
   version="1.1">
  <metadata
     id="metadata8">
    <rdf:RDF>
      <cc:Work
         rdf:about="">
        <dc:format>image/svg+xml</dc:format>
        <dc:type
           rdf:resource="http://purl.org/dc/dcmitype/StillImage" />
        <dc:title></dc:title>
      </cc:Work>
    </rdf:RDF>
  </metadata>
  <defs
     id="defs6" />
  <path
     id="path817"
     d="m 0.34484,71.997879 0.34484,-71.51052011 15.33334,-0.4003 c 22.49843,-0.58734 62.05931,1.89786001 70.44243,4.42517001 11.622,3.5037598 24.85961,11.7909801 32.2139,20.1670601 17.98272,20.48119 20.74262,63.32723 5.61491,87.168761 -9.70561,15.29621 -27.43791,26.82257 -44.93791,29.21056 -5.13333,0.70048 -25.0885,1.53825 -44.34484,1.86171 L 0,143.50841 Z M 77.49251,98.10242 c 2.49178,-1.67838 6.02038,-5.728381 7.84131,-9.000001 2.79175,-5.01582 3.31433,-7.72522 3.33333,-17.28173 0.0192,-9.65294 -0.47418,-12.22047 -3.32756,-17.31657 -4.68268,-8.36319 -11.86408,-12.07798 -25.10333,-12.98542 -15.30703,-1.04917 -14.87991,-1.89944 -14.87991,29.62151 0,14.18764 0.3642,26.744791 0.80932,27.904761 0.66138,1.72353 3.18443,2.10905 13.80283,2.10905 11.33128,0 13.57307,-0.39038 17.52401,-3.0516 z"
     style="fill:#ffffff;stroke-width:1.33333337;fill-opacity:1" />
</svg>
